<svg xmlns="http://www.w3.org/2000/svg" width="296.999" height="297.01" viewBox="0 0 296.999 297.01">
  <defs>
    <style>
      .cls-1 {
        fill: #f30;
      }

      .cls-2 {
        fill: #77ff8e;
      }

      .cls-3 {
        fill: #d5ff83;
      }
    </style>
  </defs>
  <g id="Group_1410" data-name="Group 1410" transform="translate(-49 -52)">
    <g id="Group_1417" data-name="Group 1417" transform="translate(49 52)">
      <path id="Path_814" data-name="Path 814" class="cls-1" d="M185.712,117l1.7,121.88,39.28-115.388L190.647,239.93l73.014-97.6-70.262,99.6L293,171.665l-97.6,73.016,116.439-36.045L196.449,247.915l121.878,1.7-121.878,1.7L311.837,290.6,195.4,254.551,293,327.565,193.4,257.3l70.262,99.6L190.647,259.3l36.045,116.443-39.28-115.389-1.7,121.88-1.7-121.88-39.28,115.389L180.777,259.3,107.763,356.9l70.263-99.6-99.6,70.263,97.6-73.015L59.587,290.6l115.388-39.28L53.1,249.615l121.878-1.7L59.587,208.635,176.026,244.68l-97.6-73.014,99.6,70.263-70.263-99.6,73.015,97.6L144.731,123.49l39.28,115.388Z" transform="translate(-37.214 -101.11)"/>
      <g id="Group_1407" data-name="Group 1407" transform="translate(144.732)">
        <path id="Path_815" data-name="Path 815" class="cls-1" d="M180.877,105.936a3.765,3.765,0,1,1-3.765-3.765,3.765,3.765,0,0,1,3.765,3.765Z" transform="translate(-173.346 -102.171)"/>
        <path id="Path_816" data-name="Path 816" class="cls-1" d="M180.877,376.093a3.765,3.765,0,1,1-3.766-3.766,3.765,3.765,0,0,1,3.766,3.766Z" transform="translate(-173.346 -82.848)"/>
      </g>
      <g id="Group_1408" data-name="Group 1408" transform="translate(98.715 7.508)">
        <path id="Path_817" data-name="Path 817" class="cls-1" d="M137.737,111.748a3.765,3.765,0,1,1-4.767-2.373,3.765,3.765,0,0,1,4.767,2.373Z" transform="translate(-130.4 -109.178)"/>
        <path id="Path_818" data-name="Path 818" class="cls-1" d="M223.626,367.887a3.765,3.765,0,1,1-4.767-2.372,3.765,3.765,0,0,1,4.767,2.372Z" transform="translate(-124.257 -90.857)"/>
      </g>
      <g id="Group_1409" data-name="Group 1409" transform="translate(57.475 29.259)">
        <path id="Path_819" data-name="Path 819" class="cls-1" d="M98.683,130.972a3.765,3.765,0,1,1-5.274-.734A3.765,3.765,0,0,1,98.683,130.972Z" transform="translate(-91.913 -129.477)"/>
        <path id="Path_820" data-name="Path 820" class="cls-1" d="M261.552,346.517a3.765,3.765,0,1,1-5.275-.734A3.765,3.765,0,0,1,261.552,346.517Z" transform="translate(-80.264 -114.06)"/>
      </g>
      <g id="Group_1410-2" data-name="Group 1410" transform="translate(25.288 62.991)">
        <path id="Path_821" data-name="Path 821" class="cls-1" d="M67.767,161.616a3.765,3.765,0,1,1-5.234.98,3.765,3.765,0,0,1,5.234-.98Z" transform="translate(-61.875 -160.958)"/>
        <path id="Path_822" data-name="Path 822" class="cls-1" d="M290.709,314.2a3.766,3.766,0,1,1-5.234.982,3.766,3.766,0,0,1,5.234-.982Z" transform="translate(-45.929 -150.044)"/>
      </g>
      <g id="Group_1411" data-name="Group 1411" transform="translate(7.229 99.54)">
        <path id="Path_823" data-name="Path 823" class="cls-1" d="M49.964,195.256a3.765,3.765,0,1,1-4.753,2.4,3.765,3.765,0,0,1,4.753-2.4Z" transform="translate(-45.021 -195.066)"/>
        <path id="Path_824" data-name="Path 824" class="cls-1" d="M306.611,279.619a3.765,3.765,0,1,1-4.753,2.4A3.765,3.765,0,0,1,306.611,279.619Z" transform="translate(-26.665 -189.032)"/>
      </g>
      <g id="Group_1412" data-name="Group 1412" transform="translate(0 143.294)">
        <path id="Path_825" data-name="Path 825" class="cls-1" d="M42,238.6a3.765,3.765,0,1,1-3.727,3.8A3.765,3.765,0,0,1,42,238.6Z" transform="translate(-38.275 -235.707)"/>
        <path id="Path_826" data-name="Path 826" class="cls-1" d="M312.149,235.9a3.765,3.765,0,1,1-3.728,3.8,3.765,3.765,0,0,1,3.728-3.8Z" transform="translate(-18.953 -235.9)"/>
      </g>
      <g id="Group_1413" data-name="Group 1413" transform="translate(6.899 100.557)">
        <path id="Path_827" data-name="Path 827" class="cls-1" d="M47.331,278.662a3.765,3.765,0,1,1-2.437,4.735,3.765,3.765,0,0,1,2.437-4.735Z" transform="translate(-44.713 -190.117)"/>
        <path id="Path_828" data-name="Path 828" class="cls-1" d="M304.594,196.2a3.765,3.765,0,1,1-2.437,4.735,3.765,3.765,0,0,1,2.437-4.735Z" transform="translate(-26.312 -196.015)"/>
      </g>
      <g id="Group_1414" data-name="Group 1414" transform="translate(26.131 61.772)">
        <path id="Path_829" data-name="Path 829" class="cls-1" d="M64.269,315.357a3.765,3.765,0,1,1-.928,5.244,3.765,3.765,0,0,1,.928-5.244Z" transform="translate(-62.661 -148.743)"/>
        <path id="Path_830" data-name="Path 830" class="cls-1" d="M285.637,160.5a3.766,3.766,0,1,1-.927,5.244,3.766,3.766,0,0,1,.927-5.244Z" transform="translate(-46.828 -159.819)"/>
      </g>
      <g id="Group_1415" data-name="Group 1415" transform="translate(59.069 28.068)">
        <path id="Path_831" data-name="Path 831" class="cls-1" d="M94.132,347.667a3.765,3.765,0,1,1,.806,5.263A3.765,3.765,0,0,1,94.132,347.667Z" transform="translate(-93.401 -112.79)"/>
        <path id="Path_832" data-name="Path 832" class="cls-1" d="M254.022,129.9a3.765,3.765,0,1,1,.807,5.263A3.765,3.765,0,0,1,254.022,129.9Z" transform="translate(-81.965 -128.365)"/>
      </g>
      <g id="Group_1416" data-name="Group 1416" transform="translate(100.006 7.082)">
        <path id="Path_833" data-name="Path 833" class="cls-1" d="M131.791,368.319a3.765,3.765,0,1,1,2.417,4.746,3.765,3.765,0,0,1-2.417-4.746Z" transform="translate(-131.606 -90.403)"/>
        <path id="Path_834" data-name="Path 834" class="cls-1" d="M215.269,111.383a3.765,3.765,0,1,1,2.417,4.745,3.765,3.765,0,0,1-2.417-4.745Z" transform="translate(-125.635 -108.78)"/>
      </g>
    </g>
    <path id="Path_835" data-name="Path 835" class="cls-2" d="M167.034,142.088l16.878,96.958,16.624-97-13.911,97.428,45.784-87.115-43.338,88.359,70.465-68.706-68.52,70.646,88.248-43.568-87,46.013,97.391-14.168L192.7,247.811l97,16.623-97.428-13.911,87.115,45.784-88.361-43.336,68.706,70.465-70.645-68.521,43.568,88.248-46.013-86.995,14.166,97.391L183.931,256.6l-16.624,97,13.911-97.428-45.785,87.115,43.339-88.354-70.465,68.706L176.827,253,88.58,296.565l87-46.013L78.185,264.718l96.958-16.878-97-16.628,97.428,13.911L88.454,199.337l88.361,43.337-68.708-70.46,70.645,68.521-43.568-88.248,46.013,87Z" transform="translate(13.577 -47.319)"/>
    <g id="Group_1428" data-name="Group 1428" transform="translate(76.561 82.014)">
      <g id="Group_1418" data-name="Group 1418" transform="translate(99.462 0.047)">
        <path id="Path_836" data-name="Path 836" class="cls-3" d="M162.862,132.788a3.041,3.041,0,1,1-3.481-2.523A3.041,3.041,0,0,1,162.862,132.788Z" transform="translate(-156.818 -130.226)"/>
        <path id="Path_837" data-name="Path 837" class="cls-3" d="M197.268,348.186a3.041,3.041,0,1,1-3.482-2.523,3.041,3.041,0,0,1,3.482,2.523Z" transform="translate(-154.357 -114.82)"/>
      </g>
      <g id="Group_1419" data-name="Group 1419" transform="translate(63.729 11.895)">
        <path id="Path_838" data-name="Path 838" class="cls-3" d="M129.207,142.915a3.041,3.041,0,1,1-4.1-1.286,3.041,3.041,0,0,1,4.1,1.286Z" transform="translate(-123.471 -141.283)"/>
        <path id="Path_839" data-name="Path 839" class="cls-3" d="M230.308,336.2a3.041,3.041,0,1,1-4.1-1.286,3.041,3.041,0,0,1,4.1,1.286Z" transform="translate(-116.239 -127.459)"/>
      </g>
      <g id="Group_1420" data-name="Group 1420" transform="translate(33.62 34.489)">
        <path id="Path_840" data-name="Path 840" class="cls-3" d="M100.518,163.217a3.04,3.04,0,1,1-4.3.087A3.04,3.04,0,0,1,100.518,163.217Z" transform="translate(-95.371 -162.369)"/>
        <path id="Path_841" data-name="Path 841" class="cls-3" d="M257.822,314.331a3.04,3.04,0,1,1-4.3.086,3.04,3.04,0,0,1,4.3-.086Z" transform="translate(-84.12 -151.56)"/>
      </g>
      <g id="Group_1421" data-name="Group 1421" transform="translate(12.251 65.483)">
        <path id="Path_842" data-name="Path 842" class="cls-3" d="M79.77,191.587a3.04,3.04,0,1,1-4.048,1.449,3.04,3.04,0,0,1,4.048-1.449Z" transform="translate(-75.429 -191.294)"/>
        <path id="Path_843" data-name="Path 843" class="cls-3" d="M276.956,284.85a3.04,3.04,0,1,1-4.048,1.448A3.04,3.04,0,0,1,276.956,284.85Z" transform="translate(-61.325 -184.623)"/>
      </g>
      <g id="Group_1422" data-name="Group 1422" transform="translate(2.509 96.925)">
        <path id="Path_844" data-name="Path 844" class="cls-3" d="M69.86,220.676a3.039,3.039,0,1,1-2.265.538A3.04,3.04,0,0,1,69.86,220.676Z" transform="translate(-66.337 -220.637)"/>
        <path id="Path_845" data-name="Path 845" class="cls-3" d="M285.23,255.254a3.04,3.04,0,1,1-3.484,2.519A3.04,3.04,0,0,1,285.23,255.254Z" transform="translate(-50.932 -218.164)"/>
      </g>
      <g id="Group_1423" data-name="Group 1423" transform="translate(0 95.866)">
        <path id="Path_846" data-name="Path 846" class="cls-3" d="M66.527,256.246a3.041,3.041,0,1,1-2.488,3.507,3.041,3.041,0,0,1,2.488-3.507Z" transform="translate(-63.995 -217.034)"/>
        <path id="Path_847" data-name="Path 847" class="cls-3" d="M281.569,219.692a3.04,3.04,0,1,1-2.488,3.506A3.04,3.04,0,0,1,281.569,219.692Z" transform="translate(-48.615 -219.648)"/>
      </g>
      <g id="Group_1424" data-name="Group 1424" transform="translate(10.945 62.67)">
        <path id="Path_848" data-name="Path 848" class="cls-3" d="M75.877,287.511a3.04,3.04,0,1,1-1.339,4.085,3.04,3.04,0,0,1,1.339-4.085Z" transform="translate(-74.21 -181.623)"/>
        <path id="Path_849" data-name="Path 849" class="cls-3" d="M270.492,189a3.04,3.04,0,1,1-1.339,4.086A3.04,3.04,0,0,1,270.492,189Z" transform="translate(-60.29 -188.669)"/>
      </g>
      <g id="Group_1425" data-name="Group 1425" transform="translate(31.217 34.197)">
        <path id="Path_850" data-name="Path 850" class="cls-3" d="M94.056,314.611a3.04,3.04,0,1,1-.072,4.3,3.04,3.04,0,0,1,.072-4.3Z" transform="translate(-93.129 -151.249)"/>
        <path id="Path_851" data-name="Path 851" class="cls-3" d="M250.833,162.951a3.04,3.04,0,1,1-.072,4.3,3.04,3.04,0,0,1,.072-4.3Z" transform="translate(-81.916 -162.096)"/>
      </g>
      <g id="Group_1426" data-name="Group 1426" transform="translate(61.77 11.519)">
        <path id="Path_852" data-name="Path 852" class="cls-3" d="M121.981,336.568a3.04,3.04,0,1,1,1.313,4.094A3.04,3.04,0,0,1,121.981,336.568Z" transform="translate(-121.643 -127.057)"/>
        <path id="Path_853" data-name="Path 853" class="cls-3" d="M221.728,142.583a3.041,3.041,0,1,1,1.314,4.094,3.041,3.041,0,0,1-1.314-4.094Z" transform="translate(-114.508 -140.932)"/>
      </g>
      <g id="Group_1427" data-name="Group 1427" transform="translate(97.084)">
        <path id="Path_854" data-name="Path 854" class="cls-3" d="M154.636,348.239a3.041,3.041,0,1,1,2.535,3.475,3.041,3.041,0,0,1-2.535-3.475Z" transform="translate(-154.599 -114.769)"/>
        <path id="Path_855" data-name="Path 855" class="cls-3" d="M188.473,132.75A3.04,3.04,0,1,1,191,136.225,3.04,3.04,0,0,1,188.473,132.75Z" transform="translate(-152.179 -130.182)"/>
      </g>
    </g>
  </g>
</svg>
