<svg xmlns="http://www.w3.org/2000/svg" width="205.039" height="205.32" viewBox="0 0 205.039 205.32">
  <defs>
    <style>
      .cls-1 {
        fill: #f7c369;
      }

      .cls-2 {
        fill: #3ae8db;
      }

      .cls-3 {
        fill: #dc3ae8;
      }

      .cls-4 {
        fill: #cb3ae8;
      }

      .cls-5 {
        fill: #befcf7;
      }
    </style>
  </defs>
  <g id="Group_1561" data-name="Group 1561" transform="translate(-1087.95 -302.135)">
    <path id="Path_1592" data-name="Path 1592" class="cls-1" d="M1189.64,352.1l1.439,44.152,15.012-41.546-12.275,42.436,27.116-34.874-24.788,36.565,36.565-24.788-34.874,27.116,42.436-12.276L1198.72,403.9l44.152,1.439-44.152,1.439,41.547,15.012-42.436-12.276L1232.7,436.63l-36.565-24.788,24.788,36.565-27.116-34.874,12.275,42.435-15.012-41.546-1.439,44.152-1.439-44.152-15.012,41.546,12.275-42.435-27.116,34.874,24.788-36.565-36.565,24.788,34.874-27.116-42.436,12.276,41.547-15.012-44.152-1.439,44.152-1.439-41.547-15.012,42.436,12.276-34.874-27.116,36.565,24.788-24.788-36.565,27.116,34.874-12.275-42.436,15.012,41.546Z"/>
    <g id="Group_1534" data-name="Group 1534">
      <path id="Path_1593" data-name="Path 1593" class="cls-2" d="M1193.33,380.645l8.152-57.616a1.906,1.906,0,1,1,3.774.534c-.005.039-.013.084-.021.123Z"/>
      <path id="Path_1594" data-name="Path 1594" class="cls-2" d="M1185.95,430.033l-8.15,57.617a1.906,1.906,0,1,1-3.774-.534c.006-.04.014-.084.021-.123Z"/>
    </g>
    <g id="Group_1535" data-name="Group 1535">
      <path id="Path_1595" data-name="Path 1595" class="cls-2" d="M1185.63,380.7l-9.8-57.359a1.906,1.906,0,0,1,3.758-.642c.006.039.012.084.017.124Z"/>
      <path id="Path_1596" data-name="Path 1596" class="cls-2" d="M1193.65,429.983l9.8,57.36a1.906,1.906,0,1,1-3.757.642c-.007-.04-.013-.085-.017-.124Z"/>
    </g>
    <g id="Group_1536" data-name="Group 1536">
      <path id="Path_1597" data-name="Path 1597" class="cls-2" d="M1178.31,383.09l-26.81-51.645a1.906,1.906,0,1,1,3.383-1.756c.018.035.038.076.054.112Z"/>
      <path id="Path_1598" data-name="Path 1598" class="cls-2" d="M1200.97,427.588l26.812,51.646a1.906,1.906,0,1,1-3.383,1.756c-.018-.036-.038-.077-.054-.113Z"/>
    </g>
    <g id="Group_1537" data-name="Group 1537">
      <path id="Path_1599" data-name="Path 1599" class="cls-2" d="M1172.07,387.6l-41.277-41.016a1.906,1.906,0,0,1,2.687-2.7c.029.028.059.061.086.091Z"/>
      <path id="Path_1600" data-name="Path 1600" class="cls-2" d="M1207.21,423.076l41.277,41.017a1.906,1.906,0,0,1-2.687,2.7c-.029-.029-.059-.062-.086-.091Z"/>
    </g>
    <g id="Group_1538" data-name="Group 1538">
      <path id="Path_1601" data-name="Path 1601" class="cls-3" d="M1167.5,393.8l-51.814-26.485a1.906,1.906,0,1,1,1.735-3.394c.036.018.075.04.11.061Z"/>
      <path id="Path_1602" data-name="Path 1602" class="cls-3" d="M1211.79,416.876l51.814,26.485a1.906,1.906,0,1,1-1.735,3.394c-.036-.018-.075-.04-.109-.06Z"/>
    </g>
    <g id="Group_1539" data-name="Group 1539">
      <path id="Path_1603" data-name="Path 1603" class="cls-2" d="M1165.04,401.1l-57.42-9.434a1.906,1.906,0,1,1,.618-3.761l.122.024Z"/>
      <path id="Path_1604" data-name="Path 1604" class="cls-2" d="M1214.25,409.579l57.421,9.433a1.906,1.906,0,1,1-.618,3.761c-.039-.006-.083-.015-.122-.024Z"/>
    </g>
    <g id="Group_1540" data-name="Group 1540">
      <path id="Path_1605" data-name="Path 1605" class="cls-2" d="M1164.92,408.8l-57.564,8.516a1.906,1.906,0,0,1-.558-3.771c.04-.006.085-.011.124-.014Z"/>
      <path id="Path_1606" data-name="Path 1606" class="cls-2" d="M1214.37,401.878l57.564-8.516a1.906,1.906,0,1,1,.558,3.77c-.04.006-.085.011-.124.015Z"/>
    </g>
    <g id="Group_1541" data-name="Group 1541">
      <path id="Path_1607" data-name="Path 1607" class="cls-2" d="M1167.15,416.172l-52.229,25.655a1.906,1.906,0,1,1-1.681-3.421c.036-.018.077-.036.114-.051Z"/>
      <path id="Path_1608" data-name="Path 1608" class="cls-2" d="M1212.14,394.506l52.229-25.655a1.906,1.906,0,1,1,1.681,3.421c-.036.018-.077.037-.114.052Z"/>
    </g>
    <g id="Group_1542" data-name="Group 1542">
      <path id="Path_1609" data-name="Path 1609" class="cls-2" d="M1171.52,422.513l-41.925,40.353a1.906,1.906,0,1,1-2.644-2.746c.029-.028.063-.058.093-.084Z"/>
      <path id="Path_1610" data-name="Path 1610" class="cls-2" d="M1207.77,388.166l41.925-40.353a1.906,1.906,0,1,1,2.644,2.746c-.029.028-.063.058-.093.083Z"/>
    </g>
    <g id="Group_1543" data-name="Group 1543">
      <path id="Path_1611" data-name="Path 1611" class="cls-4" d="M1177.61,427.22l-27.632,51.211a1.906,1.906,0,0,1-3.355-1.81c.019-.035.042-.074.063-.108Z"/>
      <path id="Path_1612" data-name="Path 1612" class="cls-4" d="M1201.67,383.459l27.632-51.211a1.906,1.906,0,1,1,3.355,1.81c-.019.035-.042.074-.063.108Z"/>
    </g>
    <g id="Group_1544" data-name="Group 1544">
      <path id="Path_1613" data-name="Path 1613" class="cls-5" d="M1209.96,348.437l13.375-39.464a1.376,1.376,0,1,1,2.606.883l-.032.085Z"/>
      <path id="Path_1614" data-name="Path 1614" class="cls-5" d="M1170.98,461.087l-13.38,39.465a1.375,1.375,0,1,1-2.6-.883c.01-.028.021-.058.032-.085Z"/>
    </g>
    <g id="Group_1545" data-name="Group 1545">
      <path id="Path_1615" data-name="Path 1615" class="cls-5" d="M1190.1,345.162l-.526-41.667a1.376,1.376,0,0,1,2.751-.034v.09Z"/>
      <path id="Path_1616" data-name="Path 1616" class="cls-5" d="M1190.84,464.363l.526,41.666a1.376,1.376,0,1,1-2.751.035c0-.029,0-.062,0-.091Z"/>
    </g>
    <g id="Group_1546" data-name="Group 1546">
      <path id="Path_1617" data-name="Path 1617" class="cls-5" d="M1172.16,348.042l-13.052-39.572a1.375,1.375,0,0,1,2.612-.862c.01.028.019.059.026.087Z"/>
      <path id="Path_1618" data-name="Path 1618" class="cls-5" d="M1208.78,461.482l13.053,39.573a1.375,1.375,0,0,1-2.612.862c-.01-.028-.019-.059-.026-.087Z"/>
    </g>
    <g id="Group_1547" data-name="Group 1547">
      <path id="Path_1619" data-name="Path 1619" class="cls-5" d="M1156.21,355.99l-24.168-33.945a1.377,1.377,0,1,1,2.241-1.6c.017.024.035.051.05.075Z"/>
      <path id="Path_1620" data-name="Path 1620" class="cls-5" d="M1224.73,453.534l24.17,33.946a1.377,1.377,0,1,1-2.241,1.6c-.017-.024-.035-.051-.05-.076Z"/>
    </g>
    <g id="Group_1548" data-name="Group 1548">
      <path id="Path_1621" data-name="Path 1621" class="cls-5" d="M1156.3,355.925l-24.1-33.992a1.375,1.375,0,0,1,2.244-1.591c.017.024.035.052.05.076Z"/>
      <path id="Path_1622" data-name="Path 1622" class="cls-5" d="M1224.63,453.6l24.1,33.992a1.375,1.375,0,1,1-2.243,1.59c-.017-.023-.035-.051-.05-.075Z"/>
    </g>
    <g id="Group_1549" data-name="Group 1549">
      <path id="Path_1623" data-name="Path 1623" class="cls-5" d="M1143.13,368.554l-33.26-25.1a1.377,1.377,0,0,1,1.657-2.2c.024.018.049.038.071.057Z"/>
      <path id="Path_1624" data-name="Path 1624" class="cls-5" d="M1237.81,440.971l33.259,25.1a1.377,1.377,0,0,1-1.657,2.2l-.07-.057Z"/>
    </g>
    <g id="Group_1550" data-name="Group 1550">
      <path id="Path_1625" data-name="Path 1625" class="cls-5" d="M1143.19,368.464,1109.98,343.3a1.375,1.375,0,0,1,1.661-2.192c.023.018.049.038.071.057Z"/>
      <path id="Path_1626" data-name="Path 1626" class="cls-5" d="M1237.74,441.061l33.211,25.167a1.376,1.376,0,0,1-1.661,2.193c-.024-.018-.049-.039-.071-.057Z"/>
    </g>
    <g id="Group_1551" data-name="Group 1551">
      <path id="Path_1627" data-name="Path 1627" class="cls-5" d="M1134.43,384.472l-39.27-13.937a1.375,1.375,0,0,1,.92-2.592l.084.033Z"/>
      <path id="Path_1628" data-name="Path 1628" class="cls-5" d="M1246.51,425.053l39.27,13.936a1.376,1.376,0,1,1-.92,2.593c-.027-.01-.058-.022-.084-.034Z"/>
    </g>
    <g id="Group_1552" data-name="Group 1552">
      <path id="Path_1629" data-name="Path 1629" class="cls-5" d="M1134.47,384.365l-39.244-14.012a1.376,1.376,0,0,1,.925-2.591c.028.01.058.022.085.034Z"/>
      <path id="Path_1630" data-name="Path 1630" class="cls-5" d="M1246.47,425.16l39.243,14.012a1.375,1.375,0,0,1-.924,2.59c-.028-.009-.059-.022-.085-.033Z"/>
    </g>
    <g id="Group_1553" data-name="Group 1553">
      <path id="Path_1631" data-name="Path 1631" class="cls-5" d="M1130.92,402.269l-41.644-1.479a1.375,1.375,0,1,1,.1-2.749.385.385,0,0,1,.09.007Z"/>
      <path id="Path_1632" data-name="Path 1632" class="cls-5" d="M1250.02,407.256l41.644,1.478a1.375,1.375,0,1,1-.1,2.749.46.46,0,0,1-.091-.006Z"/>
    </g>
    <g id="Group_1554" data-name="Group 1554">
      <path id="Path_1633" data-name="Path 1633" class="cls-5" d="M1130.92,402.155l-41.641-1.559a1.375,1.375,0,1,1,.1-2.748.469.469,0,0,1,.091.006Z"/>
      <path id="Path_1634" data-name="Path 1634" class="cls-5" d="M1250.01,407.37l41.641,1.558a1.375,1.375,0,0,1-.1,2.749l-.091-.006Z"/>
    </g>
    <g id="Group_1555" data-name="Group 1555">
      <path id="Path_1635" data-name="Path 1635" class="cls-5" d="M1132.93,420.3l-40.16,11.116a1.375,1.375,0,0,1-.734-2.651c.028-.008.06-.015.088-.021Z"/>
      <path id="Path_1636" data-name="Path 1636" class="cls-5" d="M1248.01,389.228l40.16-11.117a1.375,1.375,0,0,1,.733,2.651c-.028.008-.06.016-.088.022Z"/>
    </g>
    <g id="Group_1556" data-name="Group 1556">
      <path id="Path_1637" data-name="Path 1637" class="cls-5" d="M1132.9,420.187l-40.181,11.039a1.375,1.375,0,1,1-.729-2.652c.028-.008.06-.016.089-.022Z"/>
      <path id="Path_1638" data-name="Path 1638" class="cls-5" d="M1248.04,389.338l40.18-11.039a1.375,1.375,0,1,1,.729,2.652c-.028.008-.06.015-.088.021Z"/>
    </g>
    <g id="Group_1557" data-name="Group 1557">
      <path id="Path_1639" data-name="Path 1639" class="cls-5" d="M1140.26,436.886l-34.955,22.682a1.376,1.376,0,1,1-1.5-2.308c.025-.016.053-.033.078-.047Z"/>
      <path id="Path_1640" data-name="Path 1640" class="cls-5" d="M1240.67,372.639l34.956-22.682a1.376,1.376,0,1,1,1.5,2.308l-.078.046Z"/>
    </g>
    <g id="Group_1558" data-name="Group 1558">
      <path id="Path_1641" data-name="Path 1641" class="cls-5" d="M1140.2,436.79l-35,22.614a1.375,1.375,0,1,1-1.493-2.31c.024-.016.053-.033.078-.047Z"/>
      <path id="Path_1642" data-name="Path 1642" class="cls-5" d="M1240.73,372.735l35-22.615a1.376,1.376,0,1,1,1.493,2.311l-.078.046Z"/>
    </g>
    <g id="Group_1559" data-name="Group 1559">
      <path id="Path_1643" data-name="Path 1643" class="cls-5" d="M1152.25,450.5l-26.515,32.146a1.376,1.376,0,1,1-2.122-1.751c.019-.022.04-.047.06-.068Z"/>
      <path id="Path_1644" data-name="Path 1644" class="cls-5" d="M1228.68,359.025l26.515-32.146a1.375,1.375,0,0,1,2.122,1.75c-.019.023-.04.047-.06.068Z"/>
    </g>
    <g id="Group_1560" data-name="Group 1560">
      <path id="Path_1645" data-name="Path 1645" class="cls-5" d="M1152.17,450.427l-26.576,32.094a1.375,1.375,0,1,1-2.119-1.754l.06-.068Z"/>
      <path id="Path_1646" data-name="Path 1646" class="cls-5" d="M1228.77,359.1l26.576-32.1a1.376,1.376,0,1,1,2.119,1.755c-.019.022-.041.047-.061.068Z"/>
    </g>
  </g>
</svg>
