<svg xmlns="http://www.w3.org/2000/svg" width="282.589" height="282.355" viewBox="0 0 282.589 282.355">
  <defs>
    <style>
      .cls-1 {
        fill: #ffe566;
      }

      .cls-2 {
        fill: #66ff8f;
      }

      .cls-3 {
        fill: #ff0303;
      }

      .cls-4 {
        fill: #ff7171;
      }

      .cls-5 {
        fill: #ff5af4;
      }
    </style>
  </defs>
  <g id="Group_1409" data-name="Group 1409" transform="translate(-900 -221)">
    <g id="Group_1432" data-name="Group 1432" transform="translate(1025.171 221)">
      <g id="Group_1430" data-name="Group 1430">
        <path id="Path_856" data-name="Path 856" class="cls-1" d="M833.114,364.384l-5.8-31.534a1.9,1.9,0,0,1,3.735-.686,2.033,2.033,0,0,1,.028.222Z" transform="translate(-827.283 -330.607)"/>
        <path id="Path_857" data-name="Path 857" class="cls-1" d="M858.4,364.384l2.037-32a1.9,1.9,0,1,1,3.786.242,2.144,2.144,0,0,1-.027.221Z" transform="translate(-831.987 -330.607)"/>
      </g>
      <g id="Group_1431" data-name="Group 1431" transform="translate(0.002 248.578)">
        <path id="Path_858" data-name="Path 858" class="cls-1" d="M833.113,623.459l-2.037,32a1.9,1.9,0,1,1-3.787-.241,2.146,2.146,0,0,1,.028-.222Z" transform="translate(-827.285 -623.459)"/>
        <path id="Path_859" data-name="Path 859" class="cls-1" d="M858.4,623.459l5.8,31.535a1.9,1.9,0,0,1-3.735.686,2.2,2.2,0,0,1-.027-.223Z" transform="translate(-831.989 -623.459)"/>
      </g>
    </g>
    <g id="Group_1435" data-name="Group 1435" transform="translate(972.691 226.244)">
      <g id="Group_1433" data-name="Group 1433">
        <path id="Path_860" data-name="Path 860" class="cls-1" d="M783.249,379.491l-17.486-26.878a1.9,1.9,0,1,1,3.181-2.069,1.94,1.94,0,0,1,.111.194Z" transform="translate(-765.456 -338.735)"/>
        <path id="Path_861" data-name="Path 861" class="cls-1" d="M806.925,369.622,796.5,339.3a1.9,1.9,0,1,1,3.588-1.233c.023.068.044.148.059.216Z" transform="translate(-770.134 -336.786)"/>
      </g>
      <g id="Group_1434" data-name="Group 1434" transform="translate(100.411 231.113)">
        <path id="Path_862" data-name="Path 862" class="cls-1" d="M883.751,618.39l10.424,30.321a1.9,1.9,0,1,1-3.588,1.233,2.2,2.2,0,0,1-.06-.216Z" transform="translate(-883.751 -610.472)"/>
        <path id="Path_863" data-name="Path 863" class="cls-1" d="M906.138,609.062l17.481,26.878a1.9,1.9,0,1,1-3.181,2.069c-.039-.06-.079-.132-.111-.2Z" transform="translate(-887.135 -609.062)"/>
      </g>
    </g>
    <g id="Group_1438" data-name="Group 1438" transform="translate(929.828 252.777)">
      <g id="Group_1436" data-name="Group 1436">
        <path id="Path_864" data-name="Path 864" class="cls-1" d="M742.406,413.381,715.8,395.493a1.9,1.9,0,0,1,2.117-3.149,2.015,2.015,0,0,1,.178.136Z" transform="translate(-714.959 -371.669)"/>
        <path id="Path_865" data-name="Path 865" class="cls-1" d="M760.333,395.031l-21.463-23.82a1.9,1.9,0,0,1,2.819-2.54c.048.053.1.118.14.175Z" transform="translate(-718.5 -368.044)"/>
      </g>
      <g id="Group_1437" data-name="Group 1437" transform="translate(181.099 177.09)">
        <path id="Path_866" data-name="Path 866" class="cls-1" d="M928.313,594.023l21.464,23.82a1.9,1.9,0,1,1-2.819,2.54,2.11,2.11,0,0,1-.14-.175Z" transform="translate(-928.313 -579.298)"/>
        <path id="Path_867" data-name="Path 867" class="cls-1" d="M945.26,576.675l26.61,17.888a1.9,1.9,0,1,1-2.117,3.148,2,2,0,0,1-.178-.136Z" transform="translate(-930.875 -576.675)"/>
      </g>
    </g>
    <g id="Group_1441" data-name="Group 1441" transform="translate(904.829 295.23)">
      <g id="Group_1439" data-name="Group 1439">
        <path id="Path_868" data-name="Path 868" class="cls-1" d="M718.458,459.283l-31.429-6.353a1.9,1.9,0,1,1,.752-3.719c.07.015.149.036.216.057Z" transform="translate(-685.508 -422.763)"/>
        <path id="Path_869" data-name="Path 869" class="cls-1" d="M728.008,435.473l-28.939-13.8a1.9,1.9,0,1,1,1.829-3.316Z" transform="translate(-687.394 -418.059)"/>
      </g>
      <g id="Group_1440" data-name="Group 1440" transform="translate(232.316 97.374)">
        <path id="Path_870" data-name="Path 870" class="cls-1" d="M959.2,555.284l28.94,13.8a1.9,1.9,0,1,1-1.634,3.425,2.185,2.185,0,0,1-.2-.109Z" transform="translate(-959.2 -536.178)"/>
        <path id="Path_871" data-name="Path 871" class="cls-1" d="M968.228,532.775l31.427,6.356a1.9,1.9,0,0,1-.752,3.72c-.07-.014-.149-.037-.216-.058Z" transform="translate(-960.565 -532.775)"/>
      </g>
    </g>
    <g id="Group_1444" data-name="Group 1444" transform="translate(900 344.839)">
      <g id="Group_1442" data-name="Group 1442" transform="translate(0 2.436)">
        <path id="Path_872" data-name="Path 872" class="cls-1" d="M713.85,510.163l-31.482,6.075a1.9,1.9,0,0,1-.719-3.726,2.217,2.217,0,0,1,.222-.03Z" transform="translate(-679.862 -484.027)"/>
        <path id="Path_873" data-name="Path 873" class="cls-1" d="M713.626,484.923l-32.015-1.76a1.9,1.9,0,1,1,.209-3.788,1.924,1.924,0,0,1,.222.026Z" transform="translate(-679.818 -479.372)"/>
      </g>
      <g id="Group_1443" data-name="Group 1443" transform="translate(248.604 0)">
        <path id="Path_874" data-name="Path 874" class="cls-1" d="M972.909,507.948l32.014,1.76a1.9,1.9,0,1,1-.208,3.788,2.089,2.089,0,0,1-.222-.026Z" transform="translate(-972.732 -481.257)"/>
        <path id="Path_875" data-name="Path 875" class="cls-1" d="M972.7,482.612l31.482-6.074a1.9,1.9,0,0,1,.719,3.725,2.015,2.015,0,0,1-.222.029Z" transform="translate(-972.7 -476.503)"/>
      </g>
    </g>
    <g id="Group_1447" data-name="Group 1447" transform="translate(905.583 292.908)">
      <g id="Group_1445" data-name="Group 1445" transform="translate(0 101.64)">
        <path id="Path_876" data-name="Path 876" class="cls-2" d="M729.18,557.4,702.4,575.028a1.9,1.9,0,1,1-2.086-3.169,2.118,2.118,0,0,1,.194-.111Z" transform="translate(-688.371 -538.442)"/>
        <path id="Path_877" data-name="Path 877" class="cls-2" d="M719.184,535.065l-30.264,10.59a1.9,1.9,0,0,1-1.253-3.581,2.221,2.221,0,0,1,.216-.062Z" transform="translate(-686.396 -535.065)"/>
      </g>
      <g id="Group_1446" data-name="Group 1446" transform="translate(230.612 0)">
        <path id="Path_878" data-name="Path 878" class="cls-2" d="M967.532,456.889,997.795,446.3a1.9,1.9,0,1,1,1.254,3.581,1.991,1.991,0,0,1-.216.061Z" transform="translate(-959.511 -419.99)"/>
        <path id="Path_879" data-name="Path 879" class="cls-2" d="M958.082,433.264l26.782-17.628a1.9,1.9,0,1,1,2.086,3.17,2.143,2.143,0,0,1-.194.112Z" transform="translate(-958.082 -415.323)"/>
      </g>
    </g>
    <g id="Group_1450" data-name="Group 1450" transform="translate(931.614 250.94)">
      <g id="Group_1448" data-name="Group 1448" transform="translate(0 180.614)">
        <path id="Path_880" data-name="Path 880" class="cls-1" d="M762.411,595.663,744.44,622.217a1.9,1.9,0,0,1-3.141-2.127,2.173,2.173,0,0,1,.137-.177Z" transform="translate(-720.681 -581.232)"/>
        <path id="Path_881" data-name="Path 881" class="cls-1" d="M744.112,578.662l-23.887,21.39a1.9,1.9,0,0,1-2.531-2.827,2.237,2.237,0,0,1,.176-.139Z" transform="translate(-717.063 -578.662)"/>
      </g>
      <g id="Group_1449" data-name="Group 1449" transform="translate(177.631)">
        <path id="Path_882" data-name="Path 882" class="cls-1" d="M943.626,411.3l23.886-21.39a1.9,1.9,0,1,1,2.531,2.827c-.054.048-.118.1-.175.14Z" transform="translate(-928.946 -369.44)"/>
        <path id="Path_883" data-name="Path 883" class="cls-1" d="M926.331,393.314,944.3,366.758a1.9,1.9,0,1,1,3.141,2.126c-.04.059-.091.124-.136.178Z" transform="translate(-926.331 -365.879)"/>
      </g>
    </g>
    <g id="Group_1453" data-name="Group 1453" transform="translate(975.145 225.47)">
      <g id="Group_1451" data-name="Group 1451" transform="translate(0 232.875)">
        <path id="Path_884" data-name="Path 884" class="cls-1" d="M809.451,619.108,803.3,650.575a1.9,1.9,0,0,1-3.724-.728,2.059,2.059,0,0,1,.056-.217Z" transform="translate(-773.063 -611.568)"/>
        <path id="Path_885" data-name="Path 885" class="cls-1" d="M785.581,610.225l-13.618,29.03a1.9,1.9,0,0,1-3.434-1.613,1.94,1.94,0,0,1,.107-.2Z" transform="translate(-768.347 -610.225)"/>
      </g>
      <g id="Group_1452" data-name="Group 1452" transform="translate(95.909)">
        <path id="Path_886" data-name="Path 886" class="cls-1" d="M903.906,378.269l13.618-29.03a1.9,1.9,0,0,1,3.435,1.613,2.153,2.153,0,0,1-.107.2Z" transform="translate(-884.751 -337.729)"/>
        <path id="Path_887" data-name="Path 887" class="cls-1" d="M881.339,368.874l6.154-31.467a1.9,1.9,0,1,1,3.724.728,1.974,1.974,0,0,1-.056.217Z" transform="translate(-881.339 -335.874)"/>
      </g>
    </g>
    <g id="Group_1462" data-name="Group 1462" transform="translate(939.654 260.537)">
      <g id="Group_1454" data-name="Group 1454" transform="translate(100.19)">
        <path id="Path_888" data-name="Path 888" class="cls-3" d="M846.02,460.192l-1.45-81.53a1.45,1.45,0,1,1,2.9-.051v.051Z" transform="translate(-844.57 -377.187)"/>
        <path id="Path_889" data-name="Path 889" class="cls-3" d="M846.02,518.884l1.45,81.529a1.45,1.45,0,0,1-2.9.052v-.052Z" transform="translate(-844.57 -398.609)"/>
      </g>
      <g id="Group_1455" data-name="Group 1455" transform="translate(61.849 7.626)">
        <path id="Path_890" data-name="Path 890" class="cls-3" d="M832.059,462.969,799.52,388.2a1.45,1.45,0,1,1,2.659-1.157l.019.048Z" transform="translate(-799.4 -386.171)"/>
        <path id="Path_891" data-name="Path 891" class="cls-3" d="M854.679,517.213l32.539,74.77a1.45,1.45,0,1,1-2.659,1.157l-.02-.048Z" transform="translate(-807.757 -405.982)"/>
      </g>
      <g id="Group_1456" data-name="Group 1456" transform="translate(29.343 29.345)">
        <path id="Path_892" data-name="Path 892" class="cls-3" d="M820.224,470.877l-58.676-56.621a1.451,1.451,0,0,1,2.013-2.091l.037.036Z" transform="translate(-761.104 -411.759)"/>
        <path id="Path_893" data-name="Path 893" class="cls-3" d="M861.8,512.454l58.675,56.625a1.45,1.45,0,0,1-2.013,2.086l-.036-.037Z" transform="translate(-776.327 -426.982)"/>
      </g>
      <g id="Group_1457" data-name="Group 1457" transform="translate(7.624 61.849)">
        <path id="Path_894" data-name="Path 894" class="cls-3" d="M812.317,482.711l-75.88-29.861a1.45,1.45,0,0,1,1.062-2.7l.048.02Z" transform="translate(-735.517 -450.051)"/>
        <path id="Path_895" data-name="Path 895" class="cls-3" d="M866.561,505.331l75.878,29.861a1.45,1.45,0,1,1-1.062,2.7l-.048-.019Z" transform="translate(-755.328 -458.408)"/>
      </g>
      <g id="Group_1458" data-name="Group 1458" transform="translate(0 100.19)">
        <path id="Path_896" data-name="Path 896" class="cls-3" d="M809.539,496.672l-81.529,1.45a1.45,1.45,0,0,1-.051-2.9h.051Z" transform="translate(-726.535 -495.222)"/>
        <path id="Path_897" data-name="Path 897" class="cls-3" d="M868.232,496.672l81.529-1.45a1.45,1.45,0,0,1,.052,2.9h-.052Z" transform="translate(-747.957 -495.222)"/>
      </g>
      <g id="Group_1459" data-name="Group 1459" transform="translate(7.657 61.849)">
        <path id="Path_898" data-name="Path 898" class="cls-3" d="M812.322,505.331l-74.768,32.54a1.451,1.451,0,0,1-1.158-2.659l.048-.02Z" transform="translate(-735.556 -458.409)"/>
        <path id="Path_899" data-name="Path 899" class="cls-3" d="M866.561,482.711l74.768-32.539a1.45,1.45,0,1,1,1.157,2.659l-.048.019Z" transform="translate(-755.361 -450.052)"/>
      </g>
      <g id="Group_1460" data-name="Group 1460" transform="translate(29.345 29.345)">
        <path id="Path_900" data-name="Path 900" class="cls-3" d="M820.225,512.454,763.6,571.129a1.45,1.45,0,1,1-2.087-2.013l.037-.036Z" transform="translate(-761.106 -426.981)"/>
        <path id="Path_901" data-name="Path 901" class="cls-3" d="M861.8,470.877,918.425,412.2a1.45,1.45,0,0,1,2.086,2.014l-.037.036Z" transform="translate(-776.329 -411.758)"/>
      </g>
      <g id="Group_1461" data-name="Group 1461" transform="translate(61.851 7.626)">
        <path id="Path_902" data-name="Path 902" class="cls-3" d="M832.059,517.213,802.2,593.086a1.45,1.45,0,1,1-2.7-1.062l.02-.048Z" transform="translate(-799.402 -405.982)"/>
        <path id="Path_903" data-name="Path 903" class="cls-3" d="M854.679,462.969,884.54,387.09a1.45,1.45,0,0,1,2.7,1.062l-.02.048Z" transform="translate(-807.759 -386.171)"/>
      </g>
    </g>
    <g id="Group_1471" data-name="Group 1471" transform="translate(916.989 237.873)">
      <g id="Group_1463" data-name="Group 1463" transform="translate(95.711 0.986)">
        <path id="Path_904" data-name="Path 904" class="cls-4" d="M836.212,452.375l-23.569-98.438a1.856,1.856,0,1,1,3.61-.864l.014.066Z" transform="translate(-812.591 -351.648)"/>
        <path id="Path_905" data-name="Path 905" class="cls-4" d="M852.137,523.545,875.7,621.983a1.856,1.856,0,1,1-3.61.864c0-.02-.011-.047-.014-.066Z" transform="translate(-818.57 -377.635)"/>
      </g>
      <g id="Group_1464" data-name="Group 1464" transform="translate(51.265 20.463)">
        <path id="Path_906" data-name="Path 906" class="cls-4" d="M820.029,459.467l-59.446-81.926a1.856,1.856,0,0,1,3-2.181l.039.056Z" transform="translate(-760.229 -374.594)"/>
        <path id="Path_907" data-name="Path 907" class="cls-4" d="M861.876,519.277,921.321,601.2a1.856,1.856,0,1,1-3,2.18c-.012-.016-.028-.039-.039-.056Z" transform="translate(-775.596 -396.467)"/>
      </g>
      <g id="Group_1465" data-name="Group 1465" transform="translate(17.655 55.467)">
        <path id="Path_908" data-name="Path 908" class="cls-4" d="M807.792,472.211l-86.272-52.941a1.856,1.856,0,1,1,1.942-3.164l.057.037Z" transform="translate(-720.634 -415.832)"/>
        <path id="Path_909" data-name="Path 909" class="cls-4" d="M869.24,511.607l86.272,52.94a1.856,1.856,0,1,1-1.941,3.164l-.057-.037Z" transform="translate(-743.1 -430.311)"/>
      </g>
      <g id="Group_1466" data-name="Group 1466" transform="translate(0 100.668)">
        <path id="Path_910" data-name="Path 910" class="cls-4" d="M801.364,488.669l-99.965-15.9a1.856,1.856,0,1,1,.582-3.666l.067.012Z" transform="translate(-699.834 -469.084)"/>
        <path id="Path_911" data-name="Path 911" class="cls-4" d="M873.109,501.7l99.965,15.9a1.856,1.856,0,1,1-.583,3.666l-.067-.012Z" transform="translate(-726.029 -474.015)"/>
      </g>
      <g id="Group_1467" data-name="Group 1467" transform="translate(0.986 95.707)">
        <path id="Path_912" data-name="Path 912" class="cls-4" d="M801.723,502.788l-98.438,23.57a1.856,1.856,0,1,1-.864-3.61l.066-.014Z" transform="translate(-700.996 -469.218)"/>
        <path id="Path_913" data-name="Path 913" class="cls-4" d="M872.893,486.863l98.439-23.573a1.856,1.856,0,1,1,.864,3.61l-.066.014Z" transform="translate(-726.983 -463.239)"/>
      </g>
      <g id="Group_1468" data-name="Group 1468" transform="translate(20.465 51.266)">
        <path id="Path_914" data-name="Path 914" class="cls-4" d="M808.815,512.528l-81.925,59.445a1.856,1.856,0,0,1-2.18-3l.055-.039Z" transform="translate(-723.944 -426.25)"/>
        <path id="Path_915" data-name="Path 915" class="cls-4" d="M868.625,470.681l81.926-59.445a1.856,1.856,0,1,1,2.18,3.005l-.056.039Z" transform="translate(-745.817 -410.883)"/>
      </g>
      <g id="Group_1469" data-name="Group 1469" transform="translate(55.468 17.655)">
        <path id="Path_916" data-name="Path 916" class="cls-4" d="M821.559,519.892l-52.94,86.272a1.856,1.856,0,0,1-3.164-1.941l.037-.057Z" transform="translate(-765.181 -393.752)"/>
        <path id="Path_917" data-name="Path 917" class="cls-4" d="M860.955,458.444l52.94-86.272a1.856,1.856,0,1,1,3.164,1.941c-.01.018-.025.041-.036.058Z" transform="translate(-779.66 -371.286)"/>
      </g>
      <g id="Group_1470" data-name="Group 1470" transform="translate(100.669)">
        <path id="Path_918" data-name="Path 918" class="cls-4" d="M838.018,523.761l-15.9,99.965a1.856,1.856,0,1,1-3.666-.583.533.533,0,0,1,.012-.067Z" transform="translate(-818.432 -376.682)"/>
        <path id="Path_919" data-name="Path 919" class="cls-4" d="M851.05,452.017l15.9-99.965a1.856,1.856,0,1,1,3.666.583.391.391,0,0,1-.013.067Z" transform="translate(-823.363 -350.486)"/>
      </g>
    </g>
    <g id="Group_1481" data-name="Group 1481" transform="translate(917.002 237.886)">
      <g id="Group_1472" data-name="Group 1472" transform="translate(120.992)">
        <path id="Path_920" data-name="Path 920" class="cls-5" d="M848.99,353.8a3.3,3.3,0,1,1-3.3-3.3A3.3,3.3,0,0,1,848.99,353.8Z" transform="translate(-842.391 -350.501)"/>
        <circle id="Ellipse_172" data-name="Ellipse 172" class="cls-5" cx="3.299" cy="3.299" r="3.299" transform="translate(0 241.985)"/>
      </g>
      <g id="Group_1473" data-name="Group 1473" transform="translate(74.69 9.212)">
        <path id="Path_921" data-name="Path 921" class="cls-5" d="M794.19,363.389a3.3,3.3,0,1,1-4.31-1.783A3.3,3.3,0,0,1,794.19,363.389Z" transform="translate(-787.842 -361.353)"/>
        <path id="Path_922" data-name="Path 922" class="cls-5" d="M903.287,626.772a3.3,3.3,0,1,1-4.31-1.783,3.3,3.3,0,0,1,4.31,1.783Z" transform="translate(-804.335 -401.172)"/>
      </g>
      <g id="Group_1474" data-name="Group 1474" transform="translate(35.437 35.437)">
        <circle id="Ellipse_173" data-name="Ellipse 173" class="cls-5" cx="3.299" cy="3.299" r="3.299"/>
        <path id="Path_923" data-name="Path 923" class="cls-5" d="M948.816,594.8a3.3,3.3,0,1,1-2.334-.968A3.3,3.3,0,0,1,948.816,594.8Z" transform="translate(-772.074 -422.726)"/>
      </g>
      <g id="Group_1475" data-name="Group 1475" transform="translate(9.208 74.689)">
        <path id="Path_924" data-name="Path 924" class="cls-5" d="M715.261,438.745a3.3,3.3,0,1,1-4.311,1.783A3.3,3.3,0,0,1,715.261,438.745Z" transform="translate(-710.697 -438.492)"/>
        <path id="Path_925" data-name="Path 925" class="cls-5" d="M978.644,547.842a3.3,3.3,0,1,1-4.311,1.783,3.3,3.3,0,0,1,4.311-1.783Z" transform="translate(-750.515 -454.986)"/>
      </g>
      <g id="Group_1476" data-name="Group 1476" transform="translate(0 120.992)">
        <path id="Path_926" data-name="Path 926" class="cls-5" d="M703.148,493.043a3.3,3.3,0,1,1-3.3,3.3,3.3,3.3,0,0,1,3.3-3.3Z" transform="translate(-699.849 -493.043)"/>
        <path id="Path_927" data-name="Path 927" class="cls-5" d="M988.232,493.043a3.3,3.3,0,1,1-3.3,3.3,3.3,3.3,0,0,1,3.3-3.3Z" transform="translate(-742.948 -493.043)"/>
      </g>
      <g id="Group_1477" data-name="Group 1477" transform="translate(9.212 74.688)">
        <path id="Path_928" data-name="Path 928" class="cls-5" d="M712.737,547.842a3.3,3.3,0,1,1-1.783,4.311A3.3,3.3,0,0,1,712.737,547.842Z" transform="translate(-710.702 -454.985)"/>
        <path id="Path_929" data-name="Path 929" class="cls-5" d="M976.12,438.745a3.3,3.3,0,1,1-1.782,4.311A3.3,3.3,0,0,1,976.12,438.745Z" transform="translate(-750.52 -438.492)"/>
      </g>
      <g id="Group_1478" data-name="Group 1478" transform="translate(35.437 35.439)">
        <path id="Path_930" data-name="Path 930" class="cls-5" d="M742.565,594.8a3.3,3.3,0,1,1-.968,2.334A3.3,3.3,0,0,1,742.565,594.8Z" transform="translate(-741.597 -422.728)"/>
        <path id="Path_931" data-name="Path 931" class="cls-5" d="M944.15,393.217a3.3,3.3,0,1,1-.968,2.334,3.3,3.3,0,0,1,.968-2.334Z" transform="translate(-772.073 -392.252)"/>
      </g>
      <g id="Group_1479" data-name="Group 1479" transform="translate(74.689 9.21)">
        <path id="Path_932" data-name="Path 932" class="cls-5" d="M788.093,626.771a3.3,3.3,0,1,1,1.783,4.311,3.3,3.3,0,0,1-1.783-4.311Z" transform="translate(-787.841 -401.17)"/>
        <path id="Path_933" data-name="Path 933" class="cls-5" d="M897.19,363.388a3.3,3.3,0,1,1,1.782,4.31,3.3,3.3,0,0,1-1.782-4.31Z" transform="translate(-804.334 -361.351)"/>
      </g>
      <g id="Group_1480" data-name="Group 1480" transform="translate(74.689 9.21)">
        <path id="Path_934" data-name="Path 934" class="cls-5" d="M788.093,626.771a3.3,3.3,0,1,1,1.783,4.311,3.3,3.3,0,0,1-1.783-4.311Z" transform="translate(-787.841 -401.17)"/>
        <path id="Path_935" data-name="Path 935" class="cls-5" d="M897.19,363.388a3.3,3.3,0,1,1,1.782,4.31,3.3,3.3,0,0,1-1.782-4.31Z" transform="translate(-804.334 -361.351)"/>
      </g>
    </g>
  </g>
</svg>
