<svg xmlns="http://www.w3.org/2000/svg" xmlns:xlink="http://www.w3.org/1999/xlink" width="69.632" height="69.824" viewBox="0 0 69.632 69.824">
  <defs>
    <style>
      .cls-1 {
        fill: #d7d7d7;
        opacity: 0.63;
      }

      .cls-12, .cls-2, .cls-4, .cls-6 {
        fill: none;
      }

      .cls-3 {
        fill: #7a7a7a;
      }

      .cls-4, .cls-6 {
        stroke: #fff;
        stroke-width: 2px;
      }

      .cls-4 {
        stroke-linecap: round;
      }

      .cls-5, .cls-7, .cls-9 {
        fill: #fff;
      }

      .cls-7 {
        opacity: 0.42;
      }

      .cls-10, .cls-11, .cls-13, .cls-14, .cls-15, .cls-8, .cls-9 {
        stroke: none;
      }

      .cls-10 {
        fill: #a2a2a2;
      }

      .cls-11 {
        fill: #666;
      }

      .cls-13 {
        fill: #00ffd4;
      }

      .cls-14 {
        fill: #0fe;
      }

      .cls-15 {
        fill: #a4a4a4;
      }

      .cls-16 {
        filter: url(#Subtraction_145);
      }

      .cls-17 {
        filter: url(#Path_1347);
      }

      .cls-18 {
        filter: url(#Path_1342);
      }

      .cls-19 {
        filter: url(#Path_1339);
      }

      .cls-20 {
        filter: url(#Path_1338);
      }

      .cls-21 {
        filter: url(#Path_1341);
      }
    </style>
    <filter id="Path_1341" x="4.148" y="4.938" width="63.991" height="63.991" filterUnits="userSpaceOnUse">
      <feOffset input="SourceAlpha"/>
      <feGaussianBlur stdDeviation="5" result="blur"/>
      <feFlood flood-opacity="0.161"/>
      <feComposite operator="in" in2="blur"/>
      <feComposite in="SourceGraphic"/>
    </filter>
    <filter id="Path_1338" x="12.989" y="13.181" width="46.907" height="46.907" filterUnits="userSpaceOnUse">
      <feOffset input="SourceAlpha"/>
      <feGaussianBlur stdDeviation="1" result="blur-2"/>
      <feFlood flood-opacity="0.161"/>
      <feComposite operator="in" in2="blur-2"/>
      <feComposite in="SourceGraphic"/>
    </filter>
    <filter id="Path_1339" x="3.254" y="3.446" width="66.378" height="66.378" filterUnits="userSpaceOnUse">
      <feOffset input="SourceAlpha"/>
      <feGaussianBlur stdDeviation="5" result="blur-3"/>
      <feFlood flood-opacity="0.161"/>
      <feComposite operator="in" in2="blur-3"/>
      <feComposite in="SourceGraphic"/>
    </filter>
    <filter id="Path_1342" x="3.748" y="3.94" width="65.39" height="65.39" filterUnits="userSpaceOnUse">
      <feOffset input="SourceAlpha"/>
      <feGaussianBlur stdDeviation="5" result="blur-4"/>
      <feFlood flood-opacity="0.161"/>
      <feComposite operator="in" in2="blur-4"/>
      <feComposite in="SourceGraphic"/>
    </filter>
    <filter id="Path_1347" x="6.993" y="7.185" width="58.899" height="58.899" filterUnits="userSpaceOnUse">
      <feOffset input="SourceAlpha"/>
      <feGaussianBlur stdDeviation="5" result="blur-5"/>
      <feFlood flood-opacity="0.161"/>
      <feComposite operator="in" in2="blur-5"/>
      <feComposite in="SourceGraphic"/>
    </filter>
    <filter id="Subtraction_145" x="0" y="0" width="66.703" height="64.509" filterUnits="userSpaceOnUse">
      <feOffset input="SourceAlpha"/>
      <feGaussianBlur stdDeviation="5" result="blur-6"/>
      <feFlood flood-opacity="0.161"/>
      <feComposite operator="in" in2="blur-6"/>
      <feComposite in="SourceGraphic"/>
    </filter>
  </defs>
  <g id="Group_1683" data-name="Group 1683" transform="translate(-283.984 -480.989)">
    <g class="cls-21" transform="matrix(1, 0, 0, 1, 283.98, 480.99)">
      <path id="Path_1341-2" data-name="Path 1341" class="cls-1" d="M17,0A17,17,0,1,1,0,17,17,17,0,0,1,17,0Z" transform="translate(19.15 19.94)"/>
    </g>
    <g id="Path_1336" data-name="Path 1336" class="cls-2" transform="translate(305.519 502.716)">
      <path class="cls-8" d="M14.908,0A14.908,14.908,0,1,1,0,14.908,14.908,14.908,0,0,1,14.908,0Z"/>
      <path class="cls-9" d="M 14.90790367126465 1.000003814697266 C 11.19296455383301 1.000003814697266 7.700384140014648 2.446674346923828 5.07353401184082 5.07353401184082 C 2.446674346923828 7.700384140014648 1.000003814697266 11.19296455383301 1.000003814697266 14.90790367126465 C 1.000003814697266 18.62284469604492 2.446674346923828 22.11542320251465 5.07353401184082 24.74227333068848 C 7.700384140014648 27.36913299560547 11.19296455383301 28.81580352783203 14.90790367126465 28.81580352783203 C 18.62284469604492 28.81580352783203 22.11542320251465 27.36913299560547 24.74227333068848 24.74227333068848 C 27.36913299560547 22.11542320251465 28.81580352783203 18.62284469604492 28.81580352783203 14.90790367126465 C 28.81580352783203 11.19296455383301 27.36913299560547 7.700384140014648 24.74227333068848 5.07353401184082 C 22.11542320251465 2.446674346923828 18.62284469604492 1.000003814697266 14.90790367126465 1.000003814697266 M 14.90790367126465 3.814697265625e-06 C 23.14131355285645 3.814697265625e-06 29.81580352783203 6.674493789672852 29.81580352783203 14.90790367126465 C 29.81580352783203 23.14131355285645 23.14131355285645 29.81580352783203 14.90790367126465 29.81580352783203 C 6.674493789672852 29.81580352783203 3.814697265625e-06 23.14131355285645 3.814697265625e-06 14.90790367126465 C 3.814697265625e-06 6.674493789672852 6.674493789672852 3.814697265625e-06 14.90790367126465 3.814697265625e-06 Z"/>
    </g>
    <g class="cls-20" transform="matrix(1, 0, 0, 1, 283.98, 480.99)">
      <g id="Path_1338-2" data-name="Path 1338" class="cls-2" transform="translate(15.99 16.18)">
        <path class="cls-8" d="M20.454,0A20.454,20.454,0,1,1,0,20.454,20.454,20.454,0,0,1,20.454,0Z"/>
        <path class="cls-10" d="M 20.45365715026855 6 C 12.4838809967041 6 6 12.4838809967041 6 20.45365715026855 C 6 28.42343330383301 12.4838809967041 34.90731811523438 20.45365715026855 34.90731811523438 C 28.42343330383301 34.90731811523438 34.90731811523438 28.42343330383301 34.90731811523438 20.45365715026855 C 34.90731811523438 12.4838809967041 28.42343330383301 6 20.45365715026855 6 M 20.45365715026855 0 C 31.74989318847656 0 40.90731430053711 9.15740966796875 40.90731430053711 20.45365715026855 C 40.90731430053711 31.74989318847656 31.74989318847656 40.90731430053711 20.45365715026855 40.90731430053711 C 9.15740966796875 40.90731430053711 0 31.74989318847656 0 20.45365715026855 C 0 9.15740966796875 9.15740966796875 0 20.45365715026855 0 Z"/>
      </g>
    </g>
    <g class="cls-19" transform="matrix(1, 0, 0, 1, 283.98, 480.99)">
      <g id="Path_1339-2" data-name="Path 1339" class="cls-3" transform="translate(18.25 18.45)">
        <path class="cls-8" d="M 18.18890762329102 35.3778190612793 C 13.59758758544922 35.3778190612793 9.28107738494873 33.58985900878906 6.034517765045166 30.34329795837402 C 2.787957668304443 27.09673690795898 0.999997615814209 22.78022766113281 0.999997615814209 18.18890762329102 C 0.999997615814209 13.59758758544922 2.787957668304443 9.28107738494873 6.034517765045166 6.034517765045166 C 9.28107738494873 2.787957668304443 13.59758758544922 0.999997615814209 18.18890762329102 0.999997615814209 C 22.78022766113281 0.999997615814209 27.09673690795898 2.787957668304443 30.34329795837402 6.034517765045166 C 33.58985900878906 9.28107738494873 35.3778190612793 13.59758758544922 35.3778190612793 18.18890762329102 C 35.3778190612793 22.78022766113281 33.58985900878906 27.09673690795898 30.34329795837402 30.34329795837402 C 27.09673690795898 33.58985900878906 22.78022766113281 35.3778190612793 18.18890762329102 35.3778190612793 Z"/>
        <path class="cls-11" d="M 18.18890762329102 1.999996185302734 C 13.86468696594238 1.999996185302734 9.799297332763672 3.683937072753906 6.741617202758789 6.741617202758789 C 3.683937072753906 9.799297332763672 1.999996185302734 13.86468696594238 1.999996185302734 18.18890762329102 C 1.999996185302734 22.51311874389648 3.683937072753906 26.57850646972656 6.741617202758789 29.63619804382324 C 9.799297332763672 32.69387817382813 13.86469841003418 34.3778190612793 18.18890762329102 34.3778190612793 C 22.51311874389648 34.3778190612793 26.57850646972656 32.69387817382813 29.63619804382324 29.63619804382324 C 32.69387817382813 26.57850646972656 34.3778190612793 22.51311874389648 34.3778190612793 18.18890762329102 C 34.3778190612793 13.86469841003418 32.69387817382813 9.799297332763672 29.63619804382324 6.741617202758789 C 26.57850646972656 3.683937072753906 22.51311874389648 1.999996185302734 18.18890762329102 1.999996185302734 M 18.18890762329102 -3.814697265625e-06 C 28.2343578338623 -3.814697265625e-06 36.3778190612793 8.143447875976563 36.3778190612793 18.18890762329102 C 36.3778190612793 28.2343578338623 28.2343578338623 36.3778190612793 18.18890762329102 36.3778190612793 C 8.143447875976563 36.3778190612793 -3.814697265625e-06 28.2343578338623 -3.814697265625e-06 18.18890762329102 C -3.814697265625e-06 8.143447875976563 8.143447875976563 -3.814697265625e-06 18.18890762329102 -3.814697265625e-06 Z"/>
      </g>
    </g>
    <line id="Line_49" data-name="Line 49" class="cls-4" y1="7.069" transform="translate(320.746 509.923)"/>
    <rect id="Rectangle_723" data-name="Rectangle 723" class="cls-5" width="3.478" height="1.867" rx="0.2" transform="translate(320.449 510.573)"/>
    <rect id="Rectangle_724" data-name="Rectangle 724" class="cls-5" width="3.011" height="1.4" rx="0.2" transform="translate(320.449 513.584)"/>
    <g id="Ellipse_384" data-name="Ellipse 384" class="cls-6" transform="translate(315.803 516.916)">
      <circle class="cls-8" cx="4.857" cy="4.857" r="4.857"/>
      <circle class="cls-12" cx="4.857" cy="4.857" r="3.857"/>
    </g>
    <g id="Path_1346" data-name="Path 1346" class="cls-2" transform="translate(303.133 500.329)">
      <path class="cls-8" d="M17.295,0A17.295,17.295,0,1,1,0,17.295,17.295,17.295,0,0,1,17.295,0Z"/>
      <path class="cls-13" d="M 17.29450798034668 0.4999961853027344 C 12.80853843688965 0.4999961853027344 8.591058731079102 2.246929168701172 5.418998718261719 5.418998718261719 C 2.246929168701172 8.591058731079102 0.4999961853027344 12.80853843688965 0.4999961853027344 17.29450798034668 C 0.4999961853027344 21.78047752380371 2.246929168701172 25.99795913696289 5.418998718261719 29.17001724243164 C 8.591058731079102 32.34208679199219 12.80853843688965 34.08901977539063 17.29450798034668 34.08901977539063 C 21.78047752380371 34.08901977539063 25.99795913696289 32.34208679199219 29.17001724243164 29.17001724243164 C 32.34208679199219 25.99795913696289 34.08901977539063 21.78047752380371 34.08901977539063 17.29450798034668 C 34.08901977539063 12.80853843688965 32.34208679199219 8.591058731079102 29.17001724243164 5.418998718261719 C 25.99795913696289 2.246929168701172 21.78047752380371 0.4999961853027344 17.29450798034668 0.4999961853027344 M 17.29450798034668 -3.814697265625e-06 C 26.84599685668945 -3.814697265625e-06 34.58901977539063 7.743017196655273 34.58901977539063 17.29450798034668 C 34.58901977539063 26.84599685668945 26.84599685668945 34.58901977539063 17.29450798034668 34.58901977539063 C 7.743017196655273 34.58901977539063 -3.814697265625e-06 26.84599685668945 -3.814697265625e-06 17.29450798034668 C -3.814697265625e-06 7.743017196655273 7.743017196655273 -3.814697265625e-06 17.29450798034668 -3.814697265625e-06 Z"/>
    </g>
    <g class="cls-18" transform="matrix(1, 0, 0, 1, 283.98, 480.99)">
      <g id="Path_1342-2" data-name="Path 1342" class="cls-2" transform="translate(18.75 18.94)">
        <path class="cls-8" d="M17.695,0A17.695,17.695,0,1,1,0,17.695,17.695,17.695,0,0,1,17.695,0Z"/>
        <path class="cls-14" d="M 17.69499397277832 0.5000038146972656 C 13.10204315185547 0.5000038146972656 8.784004211425781 2.288593292236328 5.536293029785156 5.536293029785156 C 2.288593292236328 8.784004211425781 0.5000038146972656 13.10204315185547 0.5000038146972656 17.69499397277832 C 0.5000038146972656 22.28794479370117 2.288593292236328 26.60598373413086 5.536293029785156 29.85368347167969 C 8.784004211425781 33.10139465332031 13.10204315185547 34.88998413085938 17.69499397277832 34.88998413085938 C 22.28794479370117 34.88998413085938 26.60598373413086 33.10139465332031 29.85368347167969 29.85368347167969 C 33.10139465332031 26.60598373413086 34.88998413085938 22.28794479370117 34.88998413085938 17.69499397277832 C 34.88998413085938 13.10204315185547 33.10139465332031 8.784004211425781 29.85368347167969 5.536293029785156 C 26.60598373413086 2.288593292236328 22.28794479370117 0.5000038146972656 17.69499397277832 0.5000038146972656 M 17.69499397277832 3.814697265625e-06 C 27.4676628112793 3.814697265625e-06 35.38998413085938 7.922313690185547 35.38998413085938 17.69499397277832 C 35.38998413085938 27.4676628112793 27.4676628112793 35.38998413085938 17.69499397277832 35.38998413085938 C 7.922313690185547 35.38998413085938 3.814697265625e-06 27.4676628112793 3.814697265625e-06 17.69499397277832 C 3.814697265625e-06 7.922313690185547 7.922313690185547 3.814697265625e-06 17.69499397277832 3.814697265625e-06 Z"/>
      </g>
    </g>
    <g class="cls-17" transform="matrix(1, 0, 0, 1, 283.98, 480.99)">
      <g id="Path_1347-2" data-name="Path 1347" class="cls-2" transform="translate(21.99 22.19)">
        <path class="cls-8" d="M14.45,0A14.45,14.45,0,1,1,0,14.45,14.45,14.45,0,0,1,14.45,0Z"/>
        <path class="cls-15" d="M 14.44971084594727 0.3000011444091797 C 10.67019081115723 0.3000011444091797 7.116880416870117 1.771831512451172 4.444360733032227 4.444360733032227 C 1.771831512451172 7.116880416870117 0.3000011444091797 10.67019081115723 0.3000011444091797 14.44971084594727 C 0.3000011444091797 18.2292308807373 1.771831512451172 21.78254127502441 4.444360733032227 24.4550609588623 C 7.116880416870117 27.12759017944336 10.67019081115723 28.59942054748535 14.44971084594727 28.59942054748535 C 18.2292308807373 28.59942054748535 21.78254127502441 27.12759017944336 24.4550609588623 24.4550609588623 C 27.12759017944336 21.78254127502441 28.59942054748535 18.2292308807373 28.59942054748535 14.44971084594727 C 28.59942054748535 10.67019081115723 27.12759017944336 7.116880416870117 24.4550609588623 4.444360733032227 C 21.78254127502441 1.771831512451172 18.2292308807373 0.3000011444091797 14.44971084594727 0.3000011444091797 M 14.44971084594727 0 C 22.43006134033203 0 28.89942169189453 6.4693603515625 28.89942169189453 14.44971084594727 C 28.89942169189453 22.43006134033203 22.43006134033203 28.89942169189453 14.44971084594727 28.89942169189453 C 6.4693603515625 28.89942169189453 0 22.43006134033203 0 14.44971084594727 C 0 6.4693603515625 6.4693603515625 0 14.44971084594727 0 Z"/>
      </g>
    </g>
    <g class="cls-16" transform="matrix(1, 0, 0, 1, 283.98, 480.99)">
      <path id="Subtraction_145-2" data-name="Subtraction 145" class="cls-7" d="M2.956,30.236v0A19.861,19.861,0,0,1,32.815,4.777,37.8,37.8,0,0,0,17.5,10.9C10.052,15.908,4.753,22.955,2.956,30.234Z" transform="translate(15 19.57) rotate(-8)"/>
    </g>
  </g>
</svg>
