<svg xmlns="http://www.w3.org/2000/svg" width="96.458" height="134.832" viewBox="0 0 96.458 134.832">
  <defs>
    <style>
      .cls-1 {
        fill: #141414;
      }

      .cls-2 {
        fill: #a0002f;
      }

      .cls-3 {
        fill: #ff7fa1;
      }

      .cls-4 {
        fill: #bbd500;
      }

      .cls-5 {
        fill: #ffc300;
      }
    </style>
  </defs>
  <g id="Group_1591" data-name="Group 1591" transform="translate(-367 -142)">
    <ellipse id="Ellipse_369" data-name="Ellipse 369" class="cls-1" cx="38" cy="5" rx="38" ry="5" transform="translate(378 266.832)"/>
    <g id="Group_1568" data-name="Group 1568" transform="translate(4.819 -0.168)">
      <path id="Path_1052" data-name="Path 1052" class="cls-2" d="M117.9,79.822c0,36.293-21.592,53.714-48.227,53.714S21.442,116.115,21.442,79.822,43.034,2.116,69.673,2.116,117.9,43.532,117.9,79.822Z" transform="translate(340.74 140.052)"/>
      <path id="Intersection_84" data-name="Intersection 84" class="cls-3" d="M-11097.948-3720.285c5.273-31.135,24.213-60.832,46.77-60.832,15.237,0,28.825,13.556,37.663,31.95-8.067,8.885-19.992,17.109-34.338,22.905-12.565,5.076-25.094,7.522-36.056,7.523A60.139,60.139,0,0,1-11097.948-3720.285Z" transform="translate(11461.591 3923.287)"/>
      <path id="Intersection_35" data-name="Intersection 35" class="cls-2" d="M67.88,43.671a108.713,108.713,0,0,1-17.845-2.907,107.6,107.6,0,0,1-22.978-8.583A99.683,99.683,0,0,1,7.79,19.338,92.138,92.138,0,0,1,.051,11.925Q0,10.435,0,8.9C0,5.959.142,2.984.417,0A106.814,106.814,0,0,0,33.555,14.541c22.386,5.582,44.57,3.69,62.887-3.926-.26,13.64-3.636,24.528-9.2,32.744q-1.018.114-2.04.207c-3.048.278-6.137.417-9.239.417C73.272,43.984,70.574,43.88,67.88,43.671Z" transform="translate(362.182 210.973)"/>
      <path id="Intersection_33" data-name="Intersection 33" class="cls-4" d="M47.051,45.16A103.123,103.123,0,0,1,24.329,36.3,101.687,101.687,0,0,1,.546,18.924,82.194,82.194,0,0,1,0,9.3C0,6.225.155,3.117.454,0A128.144,128.144,0,0,0,37.3,28.86c16.165,8.6,33.647,13.791,49.924,14.913q-.918,1.354-1.911,2.607-1.321.293-2.67.535a75.43,75.43,0,0,1-13.282,1.15A89.849,89.849,0,0,1,47.051,45.16Z" transform="translate(362.182 210.577)"/>
      <path id="Intersection_34" data-name="Intersection 34" class="cls-3" d="M20.964,34.836A103.56,103.56,0,0,1,.325,28.084Q0,24.482,0,20.594c0-.689.008-1.382.023-2.074a112.313,112.313,0,0,0,28.841,3.719c24.006,0,46.576-7.357,63.556-20.715Q93.377.77,94.3,0a103.168,103.168,0,0,1,2.157,20.594q0,1.947-.082,3.822-.827.461-1.666.907a99.128,99.128,0,0,1-15.19,6.487,107.4,107.4,0,0,1-16.79,4.1A113.8,113.8,0,0,1,44.7,37.341,112.625,112.625,0,0,1,20.964,34.836Z" transform="translate(362.182 199.28)"/>
      <path id="Intersection_32" data-name="Intersection 32" class="cls-5" d="M.132,35.2Q0,32.842,0,30.372A99.724,99.724,0,0,1,.942,16.889,82.98,82.98,0,0,0,32.5,22.9h.005A93.078,93.078,0,0,0,43.8,22.2C62.41,19.914,79.234,12.262,91.171.652Q91.5.327,91.832,0a111.827,111.827,0,0,1,2.931,12.167q-.367.422-.741.84a78.866,78.866,0,0,1-9.313,8.8A88.709,88.709,0,0,1,60.84,35.433a91.45,91.45,0,0,1-15.863,4.509,84.5,84.5,0,0,1-15.529,1.468A68.354,68.354,0,0,1,.132,35.2Z" transform="translate(362.182 189.502)"/>
      <path id="Intersection_36" data-name="Intersection 36" class="cls-5" d="M46.133,25.286a86.077,86.077,0,0,1-22.689-3.214A107.631,107.631,0,0,1,0,12.475,67.192,67.192,0,0,1,9.865,0C29.745,10.895,50.5,17.06,68.633,17.481q.745,1.39,1.452,2.824c-6.667,3.272-14.827,4.981-23.947,4.981Z" transform="translate(377.543 152.895)"/>
      <path id="Intersection_37" data-name="Intersection 37" class="cls-4" d="M45.581,18.977a104.906,104.906,0,0,1-14.4-2.3,103.542,103.542,0,0,1-15.872-5A76.528,76.528,0,0,1,2.42,5.007Q1.156,4.179,0,3.332,1.649,1.559,3.379,0A64.237,64.237,0,0,0,23.951,5.16h0c2.09.183,4.226.275,6.349.276a69.464,69.464,0,0,0,18.961-2.6,74.094,74.094,0,0,1,11.4,16.126q-.688.07-1.391.127c-1.921.155-3.909.232-5.952.232C50.814,19.325,48.228,19.209,45.581,18.977Z" transform="translate(385.548 151.471)"/>
      <circle id="Ellipse_352" data-name="Ellipse 352" class="cls-2" cx="4.5" cy="4.5" r="4.5" transform="translate(371 192)"/>
      <circle id="Ellipse_353" data-name="Ellipse 353" class="cls-2" cx="4.5" cy="4.5" r="4.5" transform="translate(384 190)"/>
      <circle id="Ellipse_354" data-name="Ellipse 354" class="cls-2" cx="4.5" cy="4.5" r="4.5" transform="translate(397 187)"/>
    </g>
  </g>
</svg>
