<svg xmlns="http://www.w3.org/2000/svg" xmlns:xlink="http://www.w3.org/1999/xlink" width="88.136" height="640.001" viewBox="0 0 88.136 640.001">
  <defs>
    <style>
      .cls-1 {
        fill: #f5822f;
      }

      .cls-2 {
        fill: none;
        stroke: #7c7c7c;
        stroke-linecap: square;
      }

      .cls-3 {
        fill: #fff;
      }

      .cls-4 {
        filter: url(#Path_1331);
      }

      .cls-5 {
        filter: url(#Path_1330);
      }

      .cls-6 {
        filter: url(#Subtraction_144);
      }
    </style>
    <filter id="Subtraction_144" x="0" y="0" width="88.136" height="640.001" filterUnits="userSpaceOnUse">
      <feOffset dx="3" input="SourceAlpha"/>
      <feGaussianBlur stdDeviation="5" result="blur"/>
      <feFlood flood-opacity="0.161"/>
      <feComposite operator="in" in2="blur"/>
      <feComposite in="SourceGraphic"/>
    </filter>
    <filter id="Path_1330" x="52.302" y="8.961" width="27.807" height="323.484" filterUnits="userSpaceOnUse">
      <feOffset dy="3" input="SourceAlpha"/>
      <feGaussianBlur stdDeviation="3" result="blur-2"/>
      <feFlood flood-opacity="0.161"/>
      <feComposite operator="in" in2="blur-2"/>
      <feComposite in="SourceGraphic"/>
    </filter>
    <filter id="Path_1331" x="52.303" y="313.304" width="27.806" height="323.675" filterUnits="userSpaceOnUse">
      <feOffset dy="3" input="SourceAlpha"/>
      <feGaussianBlur stdDeviation="3" result="blur-3"/>
      <feFlood flood-opacity="0.161"/>
      <feComposite operator="in" in2="blur-3"/>
      <feComposite in="SourceGraphic"/>
    </filter>
  </defs>
  <g id="Group_1677" data-name="Group 1677" transform="translate(55.501 15)">
    <g class="cls-6" transform="matrix(1, 0, 0, 1, -55.5, -15)">
      <path id="Subtraction_144-2" data-name="Subtraction 144" class="cls-1" d="M51.637,610H1.5V0H51.637V292.655l8,12.227-8,11.549V610Z" transform="translate(10.5 15)"/>
    </g>
    <g id="Group_1675" data-name="Group 1675" transform="translate(6006 1574)">
      <g class="cls-5" transform="matrix(1, 0, 0, 1, -6061.5, -1589)">
        <path id="Path_1330-2" data-name="Path 1330" class="cls-2" d="M-5940.7-1574.215V-1282.2l8.609,12.275" transform="translate(6002.5 1589.68)"/>
      </g>
      <g class="cls-4" transform="matrix(1, 0, 0, 1, -6061.5, -1589)">
        <path id="Path_1331-2" data-name="Path 1331" class="cls-2" d="M-5940.658-1270.2l-.04-292.2,8.609-12.275" transform="translate(6002.5 1894.68)"/>
      </g>
    </g>
    <g id="Group_1676" data-name="Group 1676" transform="translate(6007.645 1576)">
      <path id="Path_1333" data-name="Path 1333" class="cls-3" d="M0,0,2.019.015l.059,8.046L.059,8.046Z" transform="matrix(0.788, -0.616, 0.616, 0.788, -6004.25, -1276.536)"/>
      <path id="Path_1334" data-name="Path 1334" class="cls-3" d="M.938.341,2.957.327,2.9,8.373.878,8.388Z" transform="matrix(0.788, 0.616, -0.616, 0.788, -5999.778, -1273.614)"/>
    </g>
  </g>
</svg>
