<svg xmlns="http://www.w3.org/2000/svg" xmlns:xlink="http://www.w3.org/1999/xlink" width="88.135" height="640.529" viewBox="0 0 88.135 640.529">
  <defs>
    <style>
      .cls-1 {
        fill: #f5822f;
      }

      .cls-2 {
        fill: none;
        stroke: #7c7c7c;
        stroke-linecap: square;
      }

      .cls-3 {
        fill: #fff;
      }

      .cls-4 {
        filter: url(#Path_1331);
      }

      .cls-5 {
        filter: url(#Path_1330);
      }

      .cls-6 {
        filter: url(#Path_1332);
      }

      .cls-7 {
        filter: url(#Path_1036);
      }
    </style>
    <filter id="Path_1036" x="0" y="0" width="80.268" height="640.529" filterUnits="userSpaceOnUse">
      <feOffset dx="3" input="SourceAlpha"/>
      <feGaussianBlur stdDeviation="5" result="blur"/>
      <feFlood flood-opacity="0.161"/>
      <feComposite operator="in" in2="blur"/>
      <feComposite in="SourceGraphic"/>
    </filter>
    <filter id="Path_1332" x="49.153" y="291.181" width="38.982" height="56.696" filterUnits="userSpaceOnUse">
      <feOffset dx="3" input="SourceAlpha"/>
      <feGaussianBlur stdDeviation="5" result="blur-2"/>
      <feFlood flood-opacity="0.161"/>
      <feComposite operator="in" in2="blur-2"/>
      <feComposite in="SourceGraphic"/>
    </filter>
    <filter id="Path_1330" x="52.302" y="8.989" width="27.807" height="323.484" filterUnits="userSpaceOnUse">
      <feOffset dy="3" input="SourceAlpha"/>
      <feGaussianBlur stdDeviation="3" result="blur-3"/>
      <feFlood flood-opacity="0.161"/>
      <feComposite operator="in" in2="blur-3"/>
      <feComposite in="SourceGraphic"/>
    </filter>
    <filter id="Path_1331" x="52.275" y="313.332" width="27.833" height="324.192" filterUnits="userSpaceOnUse">
      <feOffset dy="3" input="SourceAlpha"/>
      <feGaussianBlur stdDeviation="3" result="blur-4"/>
      <feFlood flood-opacity="0.161"/>
      <feComposite operator="in" in2="blur-4"/>
      <feComposite in="SourceGraphic"/>
    </filter>
  </defs>
  <g id="Group_1682" data-name="Group 1682" transform="translate(4736.5 1827.029)">
    <g class="cls-7" transform="matrix(1, 0, 0, 1, -4736.5, -1827.03)">
      <path id="Path_1036-2" data-name="Path 1036" class="cls-1" d="M2.478-.133,613,0V50.136H2.471Z" transform="translate(62.14 12.53) rotate(90)"/>
    </g>
    <g class="cls-6" transform="matrix(1, 0, 0, 1, -4736.5, -1827.03)">
      <path id="Path_1332-2" data-name="Path 1332" class="cls-1" d="M13.727-.135,26.7,8.847H0Z" transform="translate(70 306.18) rotate(90)"/>
    </g>
    <g id="Group_1675" data-name="Group 1675" transform="translate(1325 -238)">
      <g class="cls-5" transform="matrix(1, 0, 0, 1, -6061.5, -1589.03)">
        <path id="Path_1330-2" data-name="Path 1330" class="cls-2" d="M-5940.7-1574.215V-1282.2l8.609,12.275" transform="translate(6002.5 1589.7)"/>
      </g>
      <g class="cls-4" transform="matrix(1, 0, 0, 1, -6061.5, -1589.03)">
        <path id="Path_1331-2" data-name="Path 1331" class="cls-2" d="M-5940.725-1269.68l.027-292.72,8.609-12.275" transform="translate(6002.5 1894.7)"/>
      </g>
    </g>
    <g id="Group_1676" data-name="Group 1676" transform="translate(1326.645 -236)">
      <path id="Path_1333" data-name="Path 1333" class="cls-3" d="M0,0,2.019.015l.059,8.046L.059,8.046Z" transform="matrix(0.788, -0.616, 0.616, 0.788, -6004.25, -1276.536)"/>
      <path id="Path_1334" data-name="Path 1334" class="cls-3" d="M.938.341,2.957.327,2.9,8.373.878,8.388Z" transform="matrix(0.788, 0.616, -0.616, 0.788, -5999.778, -1273.614)"/>
    </g>
  </g>
</svg>
