<svg xmlns="http://www.w3.org/2000/svg" width="96.459" height="134.832" viewBox="0 0 96.459 134.832">
  <defs>
    <style>
      .cls-1 {
        fill: #141414;
      }

      .cls-2 {
        fill: #a0002f;
      }

      .cls-3 {
        fill: #38bee3;
      }

      .cls-4 {
        fill: #ffc300;
      }
    </style>
  </defs>
  <g id="Group_1592" data-name="Group 1592" transform="translate(-509 -142)">
    <ellipse id="Ellipse_370" data-name="Ellipse 370" class="cls-1" cx="38" cy="5" rx="38" ry="5" transform="translate(521 266.832)"/>
    <g id="Group_1581" data-name="Group 1581" transform="translate(10.229 -0.168)">
      <path id="Path_1052" data-name="Path 1052" class="cls-2" d="M117.9,79.822c0,36.293-21.592,53.714-48.227,53.714S21.442,116.115,21.442,79.822,43.034,2.116,69.673,2.116,117.9,43.532,117.9,79.822Z" transform="translate(477.329 140.052)"/>
      <path id="Intersection_58" data-name="Intersection 58" class="cls-3" d="M-10661.176-3333.369c-21.57-3.225-35.879.153-44.812,4.36-3.077-7.276-4.8-16.028-4.8-26.287,0-3.165.164-6.371.482-9.583,1.5.823,3.064,1.668,4.688,2.513,12.329,6.418,28.032,12.833,44.443,9.554,17.016-3.4,34.763-8.066,46.706-7.574q.138,2.558.139,5.09c0,12.331-2.492,22.482-6.827,30.513C-10629.772-3326.275-10642.21-3330.534-10661.176-3333.369Z" transform="translate(11209.561 3575.168)"/>
      <path id="Intersection_59" data-name="Intersection 59" class="cls-4" d="M-10722.2-3354.2c0-.364-.007-.729-.007-1.1,0-22.318,8.167-46.576,20.651-61.947,14.31-1.746,33.333,8.342,49.663,18.43,8.232,5.086,15.781,10.173,21.7,13.742a106.563,106.563,0,0,1,4.448,29.775,78.3,78.3,0,0,1-1.158,13.768c-4.233,2.345-10.429,3.3-17.714,3.3C-10669.5-3338.228-10707.032-3349.352-10722.2-3354.2Z" transform="translate(11220.98 3575.168)"/>
      <path id="Intersection_60" data-name="Intersection 60" class="cls-3" d="M-10670.472-3368.026c-20.378-6.832-36.719-4.982-47.095-2.071a111.118,111.118,0,0,1,2.531-12.175c13.543-2.072,32.3-2.141,39.134,5.974,7.724,9.175,37.03,12.453,53.37,13.582.052.673.1,1.351.136,2.022-1.642.091-3.453.148-5.427.148C-10638.064-3360.546-10652.676-3362.06-10670.472-3368.026Z" transform="translate(11217.469 3575.168)"/>
      <path id="Intersection_61" data-name="Intersection 61" class="cls-3" d="M-10709.928-3357.03q.054-2.9.285-5.821c28.115,14.284,82.039,7.174,96.106,4.538q.048,1.515.049,3.019,0,2.559-.142,4.994a106.067,106.067,0,0,1-22.937,2.1C-10662.638-3348.2-10694.377-3353.887-10709.928-3357.03Z" transform="translate(11208.716 3575.168)"/>
      <ellipse id="Ellipse_284" data-name="Ellipse 284" class="cls-2" cx="5" cy="10.5" rx="5" ry="10.5" transform="translate(563.457 181.758) rotate(48)"/>
      <ellipse id="Ellipse_350" data-name="Ellipse 350" class="cls-3" cx="5" cy="10.5" rx="5" ry="10.5" transform="translate(575.92 185.907) rotate(30)"/>
      <ellipse id="Ellipse_285" data-name="Ellipse 285" class="cls-3" cx="5" cy="10.5" rx="5" ry="10.5" transform="matrix(0.996, 0.087, -0.087, 0.996, 541.934, 172.604)"/>
      <ellipse id="Ellipse_349" data-name="Ellipse 349" class="cls-2" cx="5" cy="10.5" rx="5" ry="10.5" transform="matrix(0.891, -0.454, 0.454, 0.891, 519.778, 173.414)"/>
    </g>
  </g>
</svg>
