<svg xmlns="http://www.w3.org/2000/svg" width="96.46" height="134.832" viewBox="0 0 96.46 134.832">
  <defs>
    <style>
      .cls-1 {
        fill: #141414;
      }

      .cls-2 {
        fill: #a0002f;
      }

      .cls-3 {
        fill: #ffc300;
      }

      .cls-4 {
        fill: #38bee3;
      }

      .cls-5 {
        fill: #ff7fa1;
      }
    </style>
  </defs>
  <g id="Group_1599" data-name="Group 1599" transform="translate(-511 -384)">
    <ellipse id="Ellipse_377" data-name="Ellipse 377" class="cls-1" cx="38" cy="5" rx="38" ry="5" transform="translate(521 508.832)"/>
    <g id="Group_1571" data-name="Group 1571" transform="translate(12.229 -0.167)">
      <path id="Path_1068" data-name="Path 1068" class="cls-2" d="M117.9,79.822c0,36.293-21.592,53.714-48.227,53.714S21.442,116.115,21.442,79.822,43.034,2.116,69.673,2.116,117.9,43.532,117.9,79.822Z" transform="translate(477.329 382.052)"/>
      <path id="Intersection_85" data-name="Intersection 85" class="cls-3" d="M-11097.454-3706.344c-7.18-14.721-11.053-29.69-11.763-43.067,8.491-12.884,19.623-21.555,31.813-21.555,26.635,0,48.227,41.416,48.227,77.706,0,16.272-4.341,28.752-11.531,37.568C-11060.44-3657.806-11083.288-3677.3-11097.454-3706.344Z" transform="translate(11624.406 4155.133)"/>
      <path id="Intersection_86" data-name="Intersection 86" class="cls-4" d="M-11085.041-3691.818a113.74,113.74,0,0,1-15.247-28.647c8.424-12.454,19.353-20.779,31.295-20.779,26.634,0,48.227,41.416,48.227,77.706a80.514,80.514,0,0,1-.776,11.393C-11042.278-3652.448-11067.071-3667.082-11085.041-3691.818Z" transform="translate(11615.996 4125.412)"/>
      <path id="Intersection_53" data-name="Intersection 53" class="cls-5" d="M-10721.776-3334.949a23.96,23.96,0,0,1,4.355-2.7,28.226,28.226,0,0,1,12.2-2.677h.272l.14-.116a31.12,31.12,0,0,1,9.878-5.507,37.407,37.407,0,0,1,12.243-2.012c.929,0,1.871.032,2.8.1a37.888,37.888,0,0,1,15.671,4.541,29.337,29.337,0,0,1,10.635,9.768l.143.226.27.005c7.531.134,14.167,2.957,18.692,7.857-8.343,16.068-23.922,23.886-41.762,23.886C-10697.295-3301.579-10715.2-3312.465-10721.776-3334.949Z" transform="translate(11223.47 3817.168)"/>
      <path id="Intersection_52" data-name="Intersection 52" class="cls-3" d="M-10712.132-3314.377c8.123-6.159,19.318-10.889,32.077-12.91,15.994-2.532,30.967-.258,41.313,5.347-8.7,13.69-23.25,20.361-39.733,20.361C-10691.567-3301.58-10703.441-3305.788-10712.132-3314.377Z" transform="translate(11225.706 3817.168)"/>
      <path id="Intersection_54" data-name="Intersection 54" class="cls-5" d="M-10656.444-3344.863c-5.275-4.064-8.4-9.528-8.787-15.388l-.027-.417-.417-.046a30.953,30.953,0,0,1-17.541-7.638,22.662,22.662,0,0,1-5.179-6.927,19.056,19.056,0,0,1-1.877-8.222,19.16,19.16,0,0,1,2.6-9.612,24.062,24.062,0,0,1,7.063-7.648l.34-.242-.178-.377a19.035,19.035,0,0,1-1.829-8.12,19.107,19.107,0,0,1,2.223-8.914,23.365,23.365,0,0,1,6.086-7.314q.253-.2.511-.4c22.176,8.141,38.911,44.061,38.911,76.008a80.3,80.3,0,0,1-.806,11.6q-.71.028-1.427.028A32.273,32.273,0,0,1-10656.444-3344.863Z" transform="translate(11229.771 3812)"/>
      <path id="Intersection_55" data-name="Intersection 55" class="cls-3" d="M-10655.976-3377.315c-5-13.726-2.6-27.631,5.141-33.941,9.992,15.259,16.294,36.36,16.294,55.962v.179C-10643.174-3357.182-10651.693-3365.554-10655.976-3377.315Z" transform="translate(11229.771 3817.168)"/>
      <circle id="Ellipse_280" data-name="Ellipse 280" class="cls-4" cx="7" cy="7" r="7" transform="translate(555 395)"/>
      <circle id="Ellipse_281" data-name="Ellipse 281" class="cls-2" cx="7" cy="7" r="7" transform="translate(547 423)"/>
      <circle id="Ellipse_282" data-name="Ellipse 282" class="cls-2" cx="7" cy="7" r="7" transform="translate(509 483)"/>
      <circle id="Ellipse_283" data-name="Ellipse 283" class="cls-4" cx="7" cy="7" r="7" transform="translate(532 474)"/>
      <circle id="Ellipse_286" data-name="Ellipse 286" class="cls-4" cx="5" cy="5" r="5" transform="translate(577 458)"/>
    </g>
  </g>
</svg>
