<svg xmlns="http://www.w3.org/2000/svg" width="96.458" height="134.832" viewBox="0 0 96.458 134.832">
  <defs>
    <style>
      .cls-1 {
        fill: #141414;
      }

      .cls-2 {
        fill: #a0002f;
      }

      .cls-3 {
        fill: #bbd500;
      }

      .cls-4 {
        fill: #38bee3;
      }

      .cls-5 {
        fill: #fff;
        stroke: #38bee3;
        stroke-width: 5px;
      }

      .cls-6 {
        stroke: none;
      }

      .cls-7 {
        fill: none;
      }
    </style>
  </defs>
  <g id="Group_1601" data-name="Group 1601" transform="translate(-225 -384)">
    <ellipse id="Ellipse_379" data-name="Ellipse 379" class="cls-1" cx="38" cy="5" rx="38" ry="5" transform="translate(235 508.832)"/>
    <g id="Group_1589" data-name="Group 1589" transform="translate(0.001 -0.168)">
      <path id="Path_1072" data-name="Path 1072" class="cls-2" d="M117.9,79.822c0,36.293-21.592,53.714-48.227,53.714S21.442,116.115,21.442,79.822,43.034,2.116,69.673,2.116,117.9,43.532,117.9,79.822Z" transform="translate(203.557 382.052)"/>
      <path id="Intersection_38" data-name="Intersection 38" class="cls-3" d="M-10690.236-3368.458a71.452,71.452,0,0,1-20.118-9.694q.662-2.92,1.479-5.8c12.254,7.928,27.956,12.28,44.376,12.28,16.218,0,31.73-4.244,43.917-11.985q.81,2.887,1.468,5.829a71.7,71.7,0,0,1-19.647,9.366,87.2,87.2,0,0,1-25.737,3.789A87.193,87.193,0,0,1-10690.236-3368.458Z" transform="translate(10938 3817.168)"/>
      <path id="Intersection_39" data-name="Intersection 39" class="cls-4" d="M-10690.236-3384.457a73.544,73.544,0,0,1-16.172-7.132q1.036-2.848,2.215-5.594c11.453,6.168,25.3,9.516,39.693,9.516a84.452,84.452,0,0,0,39.252-9.28q1.176,2.76,2.21,5.624a73.8,73.8,0,0,1-15.725,6.866,87.275,87.275,0,0,1-25.737,3.789A87.273,87.273,0,0,1-10690.236-3384.457Z" transform="translate(10938 3817.168)"/>
      <path id="Intersection_40" data-name="Intersection 40" class="cls-3" d="M-10690.271-3396.855q-2.106-.489-4.134-1.053,1.594-2.171,3.291-4.138a115.491,115.491,0,0,0,26.614,3.026,115.729,115.729,0,0,0,26.164-2.919q1.7,1.973,3.29,4.156-1.809.493-3.682.928A114.279,114.279,0,0,1-10664.5-3394,114.276,114.276,0,0,1-10690.271-3396.855Z" transform="translate(10938 3800.501)"/>
      <ellipse id="Ellipse_247" data-name="Ellipse 247" class="cls-3" cx="3" cy="7.5" rx="3" ry="7.5" transform="matrix(0.914, 0.407, -0.407, 0.914, 299.31, 406.428)"/>
      <ellipse id="Ellipse_248" data-name="Ellipse 248" class="cls-4" cx="3" cy="8.5" rx="3" ry="8.5" transform="translate(280.795 409.706) rotate(-21)"/>
      <ellipse id="Ellipse_249" data-name="Ellipse 249" class="cls-3" cx="3" cy="8.5" rx="3" ry="8.5" transform="translate(272.628 410.495) rotate(-7)"/>
      <ellipse id="Ellipse_250" data-name="Ellipse 250" class="cls-3" cx="3" cy="8.5" rx="3" ry="8.5" transform="translate(250.642 409.067)"/>
      <ellipse id="Ellipse_252" data-name="Ellipse 252" class="cls-4" cx="3" cy="8.5" rx="3" ry="8.5" transform="matrix(0.809, 0.588, -0.588, 0.809, 247.211, 403.927)"/>
      <ellipse id="Ellipse_251" data-name="Ellipse 251" class="cls-4" cx="3" cy="8.5" rx="3" ry="8.5" transform="matrix(0.766, 0.643, -0.643, 0.766, 268.807, 407.127)"/>
      <circle id="Ellipse_256" data-name="Ellipse 256" class="cls-4" cx="3" cy="3" r="3" transform="translate(234 430)"/>
      <circle id="Ellipse_257" data-name="Ellipse 257" class="cls-3" cx="3" cy="3" r="3" transform="translate(245 434)"/>
      <circle id="Ellipse_258" data-name="Ellipse 258" class="cls-4" cx="3" cy="3" r="3" transform="translate(257 437)"/>
      <circle id="Ellipse_259" data-name="Ellipse 259" class="cls-3" cx="3" cy="3" r="3" transform="translate(271 438)"/>
      <circle id="Ellipse_260" data-name="Ellipse 260" class="cls-4" cx="3" cy="3" r="3" transform="translate(285 437)"/>
      <circle id="Ellipse_261" data-name="Ellipse 261" class="cls-3" cx="3" cy="3" r="3" transform="translate(297 434)"/>
      <circle id="Ellipse_262" data-name="Ellipse 262" class="cls-4" cx="3" cy="3" r="3" transform="translate(309 429)"/>
      <g id="Ellipse_276" data-name="Ellipse 276" class="cls-5" transform="translate(232 477)">
        <circle class="cls-6" cx="6" cy="6" r="6"/>
        <circle class="cls-7" cx="6" cy="6" r="3.5"/>
      </g>
      <g id="Ellipse_287" data-name="Ellipse 287" class="cls-5" transform="translate(246 471)">
        <circle class="cls-6" cx="6" cy="6" r="6"/>
        <circle class="cls-7" cx="6" cy="6" r="3.5"/>
      </g>
      <g id="Ellipse_288" data-name="Ellipse 288" class="cls-5" transform="translate(262 469)">
        <circle class="cls-6" cx="6" cy="6" r="6"/>
        <circle class="cls-7" cx="6" cy="6" r="3.5"/>
      </g>
      <g id="Ellipse_346" data-name="Ellipse 346" class="cls-5" transform="translate(297 449)">
        <circle class="cls-6" cx="10" cy="10" r="10"/>
        <circle class="cls-7" cx="10" cy="10" r="7.5"/>
      </g>
      <g id="Ellipse_348" data-name="Ellipse 348" class="cls-5" transform="translate(278 462)">
        <circle class="cls-6" cx="10" cy="10" r="10"/>
        <circle class="cls-7" cx="10" cy="10" r="7.5"/>
      </g>
      <g id="Ellipse_347" data-name="Ellipse 347" class="cls-5" transform="translate(230 452)">
        <circle class="cls-6" cx="10" cy="10" r="10"/>
        <circle class="cls-7" cx="10" cy="10" r="7.5"/>
      </g>
      <g id="Ellipse_289" data-name="Ellipse 289" class="cls-5" transform="translate(300 475)">
        <circle class="cls-6" cx="6" cy="6" r="6"/>
        <circle class="cls-7" cx="6" cy="6" r="3.5"/>
      </g>
      <path id="Intersection_94" data-name="Intersection 94" class="cls-4" d="M-11115.352-3693.353c8.588-4.536,20.143-7.314,32.853-7.314,12.538,0,23.954,2.7,32.5,7.132-8.6,8.02-20.119,11.953-32.774,11.953C-11095.33-3681.582-11106.77-3685.456-11115.352-3693.353Z" transform="translate(11356 4197.168)"/>
    </g>
  </g>
</svg>
