<svg xmlns="http://www.w3.org/2000/svg" width="96.458" height="134.832" viewBox="0 0 96.458 134.832">
  <defs>
    <style>
      .cls-1 {
        fill: #141414;
      }

      .cls-2 {
        fill: #a0002f;
      }

      .cls-3 {
        fill: #bbd500;
      }

      .cls-4 {
        fill: #ffc300;
      }

      .cls-5 {
        fill: #ff7fa1;
      }

      .cls-6 {
        fill: #38bee3;
      }
    </style>
  </defs>
  <g id="Group_1597" data-name="Group 1597" transform="translate(-796 -384)">
    <ellipse id="Ellipse_375" data-name="Ellipse 375" class="cls-1" cx="38" cy="5" rx="38" ry="5" transform="translate(806 508.832)"/>
    <g id="Group_1585" data-name="Group 1585" transform="translate(15.001 -0.168)">
      <path id="Path_1070" data-name="Path 1070" class="cls-2" d="M117.9,79.822c0,36.293-21.592,53.714-48.227,53.714S21.442,116.115,21.442,79.822,43.034,2.116,69.673,2.116,117.9,43.532,117.9,79.822Z" transform="translate(759.557 382.052)"/>
      <g id="Group_1490" data-name="Group 1490" transform="translate(7 10)">
        <path id="Polygon_123" data-name="Polygon 123" class="cls-3" d="M10,0,20,17H0Z" transform="translate(812 446) rotate(180)"/>
        <path id="Polygon_124" data-name="Polygon 124" class="cls-3" d="M10,0,20,17H0Z" transform="translate(836 446) rotate(180)"/>
        <path id="Polygon_125" data-name="Polygon 125" class="cls-3" d="M10,0,20,17H0Z" transform="translate(860 446) rotate(180)"/>
      </g>
      <g id="Group_1491" data-name="Group 1491" transform="translate(1648 892) rotate(180)">
        <path id="Polygon_123-2" data-name="Polygon 123" class="cls-4" d="M10,0,20,17H0Z" transform="translate(812 446) rotate(180)"/>
        <path id="Polygon_124-2" data-name="Polygon 124" class="cls-4" d="M10,0,20,17H0Z" transform="translate(836 446) rotate(180)"/>
        <path id="Polygon_125-2" data-name="Polygon 125" class="cls-4" d="M10,0,20,17H0Z" transform="translate(860 446) rotate(180)"/>
      </g>
      <path id="Intersection_71" data-name="Intersection 71" class="cls-5" d="M-11109.575-3696.668a45.051,45.051,0,0,1-6.562-10h84.732a45.051,45.051,0,0,1-6.562,10Z" transform="translate(11903 4197.168)"/>
      <path id="Intersection_70" data-name="Intersection 70" class="cls-6" d="M-11118.916-3713.669a63.172,63.172,0,0,1-2.274-10h94.839a63.064,63.064,0,0,1-2.274,10Z" transform="translate(11903 4197.168)"/>
      <path id="Intersection_69" data-name="Intersection 69" class="cls-6" d="M-11116.751-3767.668c1.1-3.429,2.364-6.778,3.768-10h78.425c1.4,3.222,2.665,6.571,3.769,10Z" transform="translate(11903 4197.168)"/>
      <path id="Intersection_68" data-name="Intersection 68" class="cls-5" d="M-11109.6-3784.668a82.071,82.071,0,0,1,6.265-10h59.133a82.071,82.071,0,0,1,6.265,10Z" transform="translate(11903 4197.168)"/>
    </g>
  </g>
</svg>
