<svg xmlns="http://www.w3.org/2000/svg" width="96.458" height="134.832" viewBox="0 0 96.458 134.832">
  <defs>
    <style>
      .cls-1 {
        fill: #141414;
      }

      .cls-2 {
        fill: #a0002f;
      }

      .cls-3 {
        fill: #38bee3;
      }

      .cls-4 {
        fill: #bbd500;
      }

      .cls-5 {
        fill: #ff7fa1;
      }

      .cls-6 {
        fill: #ffc300;
      }
    </style>
  </defs>
  <g id="Group_1596" data-name="Group 1596" transform="translate(-939 -384)">
    <ellipse id="Ellipse_374" data-name="Ellipse 374" class="cls-1" cx="38" cy="5" rx="38" ry="5" transform="translate(949 508.832)"/>
    <g id="Group_1586" data-name="Group 1586" transform="translate(0.229 -0.168)">
      <path id="Path_1071" data-name="Path 1071" class="cls-2" d="M117.9,79.822c0,36.293-21.592,53.714-48.227,53.714S21.442,116.115,21.442,79.822,43.034,2.116,69.673,2.116,117.9,43.532,117.9,79.822Z" transform="translate(917.329 382.052)"/>
      <path id="Union_137" data-name="Union 137" class="cls-3" d="M-11096.448-3776.036c-4.965-2.488-4.735-13.466-4.6-13.742s8.409-7.219,13.373-4.731a10.4,10.4,0,0,1,4.605,13.741,9.979,9.979,0,0,1-9,5.774A9.744,9.744,0,0,1-11096.448-3776.036Zm-24.608-4.732a10.4,10.4,0,0,1,4.605-13.741c4.965-2.488,13.242,4.455,13.373,4.731s.361,11.253-4.6,13.742a9.75,9.75,0,0,1-4.377,1.042A9.979,9.979,0,0,1-11121.057-3780.768Zm8.8-21.955a10.142,10.142,0,0,1,10-10.277,10.142,10.142,0,0,1,10,10.277c0,5.675-9.7,10.276-10,10.276S-11112.256-3797.048-11112.256-3802.723Z" transform="translate(12077.065 4220)"/>
      <path id="Union_138" data-name="Union 138" class="cls-3" d="M-11096.448-3776.036c-4.965-2.488-4.735-13.466-4.6-13.742s8.409-7.219,13.373-4.731a10.4,10.4,0,0,1,4.605,13.741,9.979,9.979,0,0,1-9,5.774A9.744,9.744,0,0,1-11096.448-3776.036Zm-24.608-4.732a10.4,10.4,0,0,1,4.605-13.741c4.965-2.488,13.242,4.455,13.373,4.731s.361,11.253-4.6,13.742a9.75,9.75,0,0,1-4.377,1.042A9.979,9.979,0,0,1-11121.057-3780.768Zm8.8-21.955a10.142,10.142,0,0,1,10-10.277,10.142,10.142,0,0,1,10,10.277c0,5.675-9.7,10.276-10,10.276S-11112.256-3797.048-11112.256-3802.723Z" transform="translate(12113.065 4249)"/>
      <path id="Union_139" data-name="Union 139" class="cls-4" d="M-11096.448-3776.036c-4.965-2.488-4.735-13.466-4.6-13.742s8.409-7.219,13.373-4.731a10.4,10.4,0,0,1,4.605,13.741,9.979,9.979,0,0,1-9,5.774A9.744,9.744,0,0,1-11096.448-3776.036Zm-24.608-4.732a10.4,10.4,0,0,1,4.605-13.741c4.965-2.488,13.242,4.455,13.373,4.731s.361,11.253-4.6,13.742a9.75,9.75,0,0,1-4.377,1.042A9.979,9.979,0,0,1-11121.057-3780.768Zm8.8-21.955a10.142,10.142,0,0,1,10-10.277,10.142,10.142,0,0,1,10,10.277c0,5.675-9.7,10.276-10,10.276S-11112.256-3797.048-11112.256-3802.723Z" transform="translate(12070.065 4268)"/>
      <circle id="Ellipse_330" data-name="Ellipse 330" class="cls-5" cx="4.5" cy="4.5" r="4.5" transform="translate(995 411)"/>
      <circle id="Ellipse_331" data-name="Ellipse 331" class="cls-6" cx="4.5" cy="4.5" r="4.5" transform="translate(984 398)"/>
      <circle id="Ellipse_332" data-name="Ellipse 332" class="cls-6" cx="4.5" cy="4.5" r="4.5" transform="translate(980 450)"/>
      <circle id="Ellipse_333" data-name="Ellipse 333" class="cls-5" cx="4.5" cy="4.5" r="4.5" transform="translate(946 447)"/>
      <circle id="Ellipse_334" data-name="Ellipse 334" class="cls-6" cx="4.5" cy="4.5" r="4.5" transform="translate(1007 476)"/>
      <circle id="Ellipse_335" data-name="Ellipse 335" class="cls-3" cx="4.5" cy="4.5" r="4.5" transform="translate(1000 489)"/>
      <circle id="Ellipse_336" data-name="Ellipse 336" class="cls-5" cx="4.5" cy="4.5" r="4.5" transform="translate(986 495)"/>
      <circle id="Ellipse_337" data-name="Ellipse 337" class="cls-6" cx="4.5" cy="4.5" r="4.5" transform="translate(968 496)"/>
    </g>
  </g>
</svg>
