<svg id="Group_1774" data-name="Group 1774" xmlns="http://www.w3.org/2000/svg" width="871.451" height="611.033" viewBox="0 0 871.451 611.033">
  <defs>
    <style>
      .cls-1 {
        fill: #b1b1b1;
      }

      .cls-2 {
        fill: #fff;
      }
    </style>
  </defs>
  <g id="Group_1769" data-name="Group 1769" transform="translate(12.003 0)">
    <path id="Path_1287" data-name="Path 1287" class="cls-1" d="M484.38,400.882c-18.635.746-38.76,18.261-57.768,7.081s-22.734-12.3-29.069-31.306-5.963-35.032-10.439-40.25,4.844-13.418,10.808-17.889,15.28-27.207-9.691-35.78c0,0-16.024.372-10.438-9.69s19.753-14.908,23.48-23.48,8.572-26.834-11.181-34.666-38.76-10.062-58.507-1.49-32.8,20.124-26.089,39.132,21.991,28.326,7.081,50.314-14.534,24.228-23.851,27.951-11.553,10.81-10.439,18.264,1.49,27.2,25.343,36.523,49.568-2.981,64.475,54.412,29.442,65.222,45.842,76.775,42.859,23.107,61.493,5.592,35.78-74.167,33.915-91.31S503.015,400.136,484.38,400.882Z" transform="translate(-122.604 71.682)"/>
    <path id="Path_1288" data-name="Path 1288" class="cls-1" d="M329.294,258.451c33.542,16.77,71.929-11.927,81.245-54.041,0,0,16.773-37.269-3.35-58.14s-33.543-31.678-64.849-18.635-41.367,33.171-43.6,54.041S295.752,241.68,329.294,258.451Zm32.424-99.509c8.945-5.589,14.535,2.981,14.535,2.981s-1.862,8.573-6.336,11.927-7.081,4.473-14.161.372-2.982-9.685,5.956-15.28Zm-2.236,46.587c7.082-2.983,9.316,2.236,9.316,2.236s5.218,7.826.746,14.162-8.944,1.119-14.534-4.1S352.4,208.511,359.482,205.529Z" transform="translate(-106.904 3.541)"/>
    <path id="Path_1289" data-name="Path 1289" class="cls-1" d="M476.036,152.257s-15.653-15.653-45.1-9.691-45.468,16.4-42.487,29.816,27.952,14.908,12.672,26.833-25.715,14.164-34.666,37.642S347.451,305.8,351.55,330.031s16.4,41,31.678,48.823,45.842,6.335,58.886-9.319,24.97-47.33,28.323-72.3,4.1-47.331-.372-62.612-16.4-26.461-12.671-31.679-1.118-7.081,17.14-12.3S487.588,157.474,476.036,152.257ZM414.914,335.994c-7.826,1.865-12.3-1.119-14.908-5.963s-.372-7.454,6.335-7.826a17.9,17.9,0,0,1,11.553,3.727C421.992,330.4,422.74,334.132,414.914,335.994Zm15.28-42.859c-3.351,4.473-13.044,2.61-20.5.372s-4.471-7.826,1.491-10.062,18.261,1.119,18.261,1.119S433.548,288.664,430.194,293.135Zm5.218-44.35c-2.237,2.237-12.672,1.865-12.672,1.865-9.319-1.491-11.181-3.351-8.945-7.081s7.454-2.983,14.908-2.237,8.945,5.217,6.71,7.453Z" transform="translate(-65.063 18.798)"/>
    <path id="Path_1290" data-name="Path 1290" class="cls-1" d="M374.531,319.775s11.927-3.727,11.181-16.4-1.119-22.734-12.3-26.834-20.124.372-22.362,8.2-2.608,16.4,1.119,23.105S361.116,321.267,374.531,319.775Z" transform="translate(-66.05 124.837)"/>
    <path id="Path_1291" data-name="Path 1291" class="cls-1" d="M407.592,284.6c-10.807-3.727-23.853-5.963-27.207,16.4s-2.608,27.578,9.319,33.915,30.188-9.319,27.578-25.344C417.283,309.57,418.4,288.326,407.592,284.6Z" transform="translate(-42.833 130.569)"/>
    <path id="Path_1292" data-name="Path 1292" class="cls-1" d="M322.162,236.588c-8.2-8.945-3.351-20.126-17.516-21.615s-16.026,21.615-33.915,24.6-42.114-5.963-57.768,11.181-1.49,23.853,8.945,28.7,32.8,5.589,39.878,26.461,4.1,40.623-16.77,39.5-40.623-6.708-46.961,12.672-8.279,79.089,76.775,73.419c5.589-.372,67.83-5.217,57.022-128.578,0,0-.372-16.77,10.062-22.734s21.243-17.14,15.28-27.951S330.361,245.533,322.162,236.588Z" transform="translate(-188.1 77.209)"/>
    <path id="Path_1293" data-name="Path 1293" class="cls-1" d="M361.932,269.656c-18.336-.8-33.483,16.742-39.063,15.944s-21.521-11.161-3.19-18.334,39.861-19.135,45.441-55.8-3.188-59-14.35-65.375-19.931-15.147-37.469-14.35c0,0-22.322-3.987-11.162-22.324s35.079-22.322,17.539-37.469S300.544,67.959,283.8,59.188s-25.517-9.566-33.485-2.392-7.972,26.309-20.729,33.485S196.106,95.861,199.3,115.8s18.334,16.742,20.728,15.945,28.7-7.973,16.742,7.972-25.516,10.364-39.065,40.659-3.985,61.388,14.35,74.143,42.262,15.934,30.3,29.489-19.132,9.567-30.295,15.945-15.148,19.133-.8,31.889,46.239,3.19,52.618,0,31.091-11.959,43.848-3.987,22.322,20.729,39.861,23.119,30.3-10.364,31.094-36.672S380.269,270.45,361.932,269.656ZM244.144,193.939c-5.592.372-9.691-4.471-5.218-14.162s10.064-4.473,10.064-4.473a14.729,14.729,0,0,1,2.981,9.319c-.007,5.962-2.244,8.944-7.833,9.315Zm5.217,39.507c-5.963-6.335-1.117-11.181,5.592-14.908s6.335,2.981,6.335,2.981a46.571,46.571,0,0,1,1.119,7.081c-.007,2.236-7.088,11.178-13.052,4.844Zm46.587-76.034c8.572-5.589,13.418,2.608,13.418,2.608s1.49,5.592,1.117,6.71-.746,7.081-9.688,5.589-13.426-9.314-4.857-14.905Zm7.826,60.748c-6.708-2.981-5.218-8.572-2.608-13.415s6.708-5.964,11.181-5.964,5.963,6.708,3.351,14.162-11.93,5.222-11.93,5.222Z" transform="translate(-191.322 -51.953)"/>
    <path id="Path_1294" data-name="Path 1294" class="cls-1" d="M230.045,294.028c8.44-11.548,6.663-22.652,2.665-30.2s-17.323-11.548-27.538-1.331-3.995,27.538,4.887,32.424C210.058,294.917,221.606,305.576,230.045,294.028Z" transform="translate(-184.534 110.062)"/>
    <path id="Path_1295" data-name="Path 1295" class="cls-1" d="M493.639,248.1c18.658,4.391,25.244,14.267,29.64,41.705s13.72,35.121,24.693,35.121,27.441-14.267,23.6-38.963,3.842-47.192,21.951-54.328,16.462-4.938,23.049-15.916c0,0,9.329-25.791-4.391-38.413s-34.573-4.391-39.512-19.757,2.191-55.975-18.658-58.17-36.22,9.878-33.476,35.121,6.036,37.316-9.878,46.1-38.963,13.721-43.9,34.572S474.976,243.708,493.639,248.1Z" transform="translate(26.168 -14.561)"/>
    <path id="Path_1296" data-name="Path 1296" class="cls-1" d="M496.628,164.344c13.171-5.487,8.78-40.06-2.742-46.1,0,0-17.011-3.842-21.951,6.584s-1.1,24.7,1.646,29.64S483.457,169.831,496.628,164.344Z" transform="translate(29.215 0.048)"/>
    <path id="Path_1297" data-name="Path 1297" class="cls-1" d="M534.536,145.646c4.391,3.842,17.011-14.267,17.011-14.267s6.587-14.267-3.841-16.463-16.463,0-18.659,10.426S530.146,141.8,534.536,145.646Z" transform="translate(75.819 -2.657)"/>
    <path id="Path_1298" data-name="Path 1298" class="cls-1" d="M492.816,190.5s-8.232-.549-13.171,8.78-4.938,21.4,5.487,24.147,17.561-8.232,19.2-14.82S505.439,191.593,492.816,190.5Z" transform="translate(34.674 57.857)"/>
    <path id="Path_1299" data-name="Path 1299" class="cls-1" d="M538.655,182.781c-6.584,7.683-4.938,10.426-4.938,16.463s14.27,18.109,23.05,21.4,15.913-5.487,9.329-25.242S538.655,182.781,538.655,182.781Z" transform="translate(79.93 50.754)"/>
    <path id="Path_1300" data-name="Path 1300" class="cls-1" d="M444.411,166.927c18.658,5.487,24.693-9.329,24.693-9.329s-1.646-19.2-19.2-24.147-19.2,7.134-21.4,11.525S425.755,161.437,444.411,166.927Z" transform="translate(-4.176 11.722)"/>
    <path id="Path_1301" data-name="Path 1301" class="cls-1" d="M667.877,262.336c-5.487-21.951-19.2-37.866-52.682,10.428s-76.827,35.67-96.583,27.438-20.851-19.757-21.951-28.537,10.976-10.426,14.27-30.183-23.05-18.658-26.892-23.6-.549-9.329,1.1-23.049-4.938-30.731-20.854-31.28-20.854,6.584-34.572,26.89,8.232,31.831,8.232,31.831c3.842-.549,19.755-12.074,10.975,6.587s7.134,19.755,14.82,23.049,10.974,15.365-11.525,24.693-27.987,46.1-11.525,50.488,20.3-15.367,36.77-8.78,23.6,80.12,112.5,69.146S673.366,284.29,667.877,262.336Z" transform="translate(-5.939 36.489)"/>
    <path id="Path_1302" data-name="Path 1302" class="cls-1" d="M749.848,185.259c-16.17-17.466-38.4-18-45.8-20.583s-16.276-4.039-20.916-11.46,1.719-12.5-20.7-23.344-31.05,6.268-34.788,19.429-21.184,22.1-21.184,22.1-45.095,19.622-51.754,42.785S570.08,249.434,585.43,248.2c17.314-1.4,25.683-16.738,33.334-25.516s21.024-16.931,41.641-17.32,23.024,4.606,41.568,26.547,35.387,19.237,51.29,10.4S766.014,202.723,749.848,185.259Z" transform="translate(95.74 7.086)"/>
    <path id="Path_1303" data-name="Path 1303" class="cls-1" d="M669.768,299.378c-6.753-4.1-9.209-17.635-9.209-17.635s-3.121-17.676,13.051-26.021,20.823-18.182,20.588-32.63-3.16-34.8-30.475-39.008-54.669,7.574-63.3,20.35-16.931,30.475-3.79,44.414,23.8,13.965,15.02,30.175-21.8,9.5-34.409,30.92-23.19,55.646-3.374,83.591,48.306,38.159,76.431,32.032,44.664-20.207,52.541-43.968,12.778-35.519,1.113-55.649S676.521,303.481,669.768,299.378Zm-12.982-88.932c2.142-2.05,7.446-2.416,9.943,6.166s-4.574,10.973-4.574,10.973c-4.272-1.228-4.272-1.228-6.884-6a9.132,9.132,0,0,1,1.516-11.145Zm-3.571,152.5c-5.3.366-6.451-5.266-5.786-12.162s3.776-5.969,14.632-8.623,6.505,6.023,6.505,6.023c1.474,15.885-10.047,14.395-15.351,14.76Z" transform="translate(103.177 52.092)"/>
  </g>
  <g id="Group_1773" data-name="Group 1773" transform="translate(0 8.002)">
    <path id="Path_1287-2" data-name="Path 1287" class="cls-2" d="M484.38,400.882c-18.635.746-38.76,18.261-57.768,7.081s-22.734-12.3-29.069-31.306-5.963-35.032-10.439-40.25,4.844-13.418,10.808-17.889,15.28-27.207-9.691-35.78c0,0-16.024.372-10.438-9.69s19.753-14.908,23.48-23.48,8.572-26.834-11.181-34.666-38.76-10.062-58.507-1.49-32.8,20.124-26.089,39.132,21.991,28.326,7.081,50.314-14.534,24.228-23.851,27.951-11.553,10.81-10.439,18.264,1.49,27.2,25.343,36.523,49.568-2.981,64.475,54.412,29.442,65.222,45.842,76.775,42.859,23.107,61.493,5.592,35.78-74.167,33.915-91.31S503.015,400.136,484.38,400.882Z" transform="translate(-122.604 71.682)"/>
    <path id="Path_1288-2" data-name="Path 1288" class="cls-2" d="M329.294,258.451c33.542,16.77,71.929-11.927,81.245-54.041,0,0,16.773-37.269-3.35-58.14s-33.543-31.678-64.849-18.635-41.367,33.171-43.6,54.041S295.752,241.68,329.294,258.451Zm32.424-99.509c8.945-5.589,14.535,2.981,14.535,2.981s-1.862,8.573-6.336,11.927-7.081,4.473-14.161.372-2.982-9.685,5.956-15.28Zm-2.236,46.587c7.082-2.983,9.316,2.236,9.316,2.236s5.218,7.826.746,14.162-8.944,1.119-14.534-4.1S352.4,208.511,359.482,205.529Z" transform="translate(-106.904 3.541)"/>
    <path id="Path_1289-2" data-name="Path 1289" class="cls-2" d="M476.036,152.257s-15.653-15.653-45.1-9.691-45.468,16.4-42.487,29.816,27.952,14.908,12.672,26.833-25.715,14.164-34.666,37.642S347.451,305.8,351.55,330.031s16.4,41,31.678,48.823,45.842,6.335,58.886-9.319,24.97-47.33,28.323-72.3,4.1-47.331-.372-62.612-16.4-26.461-12.671-31.679-1.118-7.081,17.14-12.3S487.588,157.474,476.036,152.257ZM414.914,335.994c-7.826,1.865-12.3-1.119-14.908-5.963s-.372-7.454,6.335-7.826a17.9,17.9,0,0,1,11.553,3.727C421.992,330.4,422.74,334.132,414.914,335.994Zm15.28-42.859c-3.351,4.473-13.044,2.61-20.5.372s-4.471-7.826,1.491-10.062,18.261,1.119,18.261,1.119S433.548,288.664,430.194,293.135Zm5.218-44.35c-2.237,2.237-12.672,1.865-12.672,1.865-9.319-1.491-11.181-3.351-8.945-7.081s7.454-2.983,14.908-2.237,8.945,5.217,6.71,7.453Z" transform="translate(-65.063 18.798)"/>
    <path id="Path_1290-2" data-name="Path 1290" class="cls-2" d="M374.531,319.775s11.927-3.727,11.181-16.4-1.119-22.734-12.3-26.834-20.124.372-22.362,8.2-2.608,16.4,1.119,23.105S361.116,321.267,374.531,319.775Z" transform="translate(-66.05 124.837)"/>
    <path id="Path_1291-2" data-name="Path 1291" class="cls-2" d="M407.592,284.6c-10.807-3.727-23.853-5.963-27.207,16.4s-2.608,27.578,9.319,33.915,30.188-9.319,27.578-25.344C417.283,309.57,418.4,288.326,407.592,284.6Z" transform="translate(-42.833 130.569)"/>
    <path id="Path_1292-2" data-name="Path 1292" class="cls-2" d="M322.162,236.588c-8.2-8.945-3.351-20.126-17.516-21.615s-16.026,21.615-33.915,24.6-42.114-5.963-57.768,11.181-1.49,23.853,8.945,28.7,32.8,5.589,39.878,26.461,4.1,40.623-16.77,39.5-40.623-6.708-46.961,12.672-8.279,79.089,76.775,73.419c5.589-.372,67.83-5.217,57.022-128.578,0,0-.372-16.77,10.062-22.734s21.243-17.14,15.28-27.951S330.361,245.533,322.162,236.588Z" transform="translate(-188.1 77.209)"/>
    <path id="Path_1293-2" data-name="Path 1293" class="cls-2" d="M361.932,269.656c-18.336-.8-33.483,16.742-39.063,15.944s-21.521-11.161-3.19-18.334,39.861-19.135,45.441-55.8-3.188-59-14.35-65.375-19.931-15.147-37.469-14.35c0,0-22.322-3.987-11.162-22.324s35.079-22.322,17.539-37.469S300.544,67.959,283.8,59.188s-25.517-9.566-33.485-2.392-7.972,26.309-20.729,33.485S196.106,95.861,199.3,115.8s18.334,16.742,20.728,15.945,28.7-7.973,16.742,7.972-25.516,10.364-39.065,40.659-3.985,61.388,14.35,74.143,42.262,15.934,30.3,29.489-19.132,9.567-30.295,15.945-15.148,19.133-.8,31.889,46.239,3.19,52.618,0,31.091-11.959,43.848-3.987,22.322,20.729,39.861,23.119,30.3-10.364,31.094-36.672S380.269,270.45,361.932,269.656ZM244.144,193.939c-5.592.372-9.691-4.471-5.218-14.162s10.064-4.473,10.064-4.473a14.729,14.729,0,0,1,2.981,9.319c-.007,5.962-2.244,8.944-7.833,9.315Zm5.217,39.507c-5.963-6.335-1.117-11.181,5.592-14.908s6.335,2.981,6.335,2.981a46.571,46.571,0,0,1,1.119,7.081c-.007,2.236-7.088,11.178-13.052,4.844Zm46.587-76.034c8.572-5.589,13.418,2.608,13.418,2.608s1.49,5.592,1.117,6.71-.746,7.081-9.688,5.589-13.426-9.314-4.857-14.905Zm7.826,60.748c-6.708-2.981-5.218-8.572-2.608-13.415s6.708-5.964,11.181-5.964,5.963,6.708,3.351,14.162-11.93,5.222-11.93,5.222Z" transform="translate(-191.322 -51.953)"/>
    <path id="Path_1294-2" data-name="Path 1294" class="cls-2" d="M230.045,294.028c8.44-11.548,6.663-22.652,2.665-30.2s-17.323-11.548-27.538-1.331-3.995,27.538,4.887,32.424C210.058,294.917,221.606,305.576,230.045,294.028Z" transform="translate(-184.534 110.062)"/>
    <path id="Path_1295-2" data-name="Path 1295" class="cls-2" d="M493.639,248.1c18.658,4.391,25.244,14.267,29.64,41.705s13.72,35.121,24.693,35.121,27.441-14.267,23.6-38.963,3.842-47.192,21.951-54.328,16.462-4.938,23.049-15.916c0,0,9.329-25.791-4.391-38.413s-34.573-4.391-39.512-19.757,2.191-55.975-18.658-58.17-36.22,9.878-33.476,35.121,6.036,37.316-9.878,46.1-38.963,13.721-43.9,34.572S474.976,243.708,493.639,248.1Z" transform="translate(26.168 -14.561)"/>
    <path id="Path_1296-2" data-name="Path 1296" class="cls-2" d="M496.628,164.344c13.171-5.487,8.78-40.06-2.742-46.1,0,0-17.011-3.842-21.951,6.584s-1.1,24.7,1.646,29.64S483.457,169.831,496.628,164.344Z" transform="translate(29.215 0.048)"/>
    <path id="Path_1297-2" data-name="Path 1297" class="cls-2" d="M534.536,145.646c4.391,3.842,17.011-14.267,17.011-14.267s6.587-14.267-3.841-16.463-16.463,0-18.659,10.426S530.146,141.8,534.536,145.646Z" transform="translate(75.819 -2.657)"/>
    <path id="Path_1298-2" data-name="Path 1298" class="cls-2" d="M492.816,190.5s-8.232-.549-13.171,8.78-4.938,21.4,5.487,24.147,17.561-8.232,19.2-14.82S505.439,191.593,492.816,190.5Z" transform="translate(34.674 57.857)"/>
    <path id="Path_1299-2" data-name="Path 1299" class="cls-2" d="M538.655,182.781c-6.584,7.683-4.938,10.426-4.938,16.463s14.27,18.109,23.05,21.4,15.913-5.487,9.329-25.242S538.655,182.781,538.655,182.781Z" transform="translate(79.93 50.754)"/>
    <path id="Path_1300-2" data-name="Path 1300" class="cls-2" d="M444.411,166.927c18.658,5.487,24.693-9.329,24.693-9.329s-1.646-19.2-19.2-24.147-19.2,7.134-21.4,11.525S425.755,161.437,444.411,166.927Z" transform="translate(-4.176 11.722)"/>
    <path id="Path_1301-2" data-name="Path 1301" class="cls-2" d="M667.877,262.336c-5.487-21.951-19.2-37.866-52.682,10.428s-76.827,35.67-96.583,27.438-20.851-19.757-21.951-28.537,10.976-10.426,14.27-30.183-23.05-18.658-26.892-23.6-.549-9.329,1.1-23.049-4.938-30.731-20.854-31.28-20.854,6.584-34.572,26.89,8.232,31.831,8.232,31.831c3.842-.549,19.755-12.074,10.975,6.587s7.134,19.755,14.82,23.049,10.974,15.365-11.525,24.693-27.987,46.1-11.525,50.488,20.3-15.367,36.77-8.78,23.6,80.12,112.5,69.146S673.366,284.29,667.877,262.336Z" transform="translate(-5.939 36.489)"/>
    <path id="Path_1302-2" data-name="Path 1302" class="cls-2" d="M749.848,185.259c-16.17-17.466-38.4-18-45.8-20.583s-16.276-4.039-20.916-11.46,1.719-12.5-20.7-23.344-31.05,6.268-34.788,19.429-21.184,22.1-21.184,22.1-45.095,19.622-51.754,42.785S570.08,249.434,585.43,248.2c17.314-1.4,25.683-16.738,33.334-25.516s21.024-16.931,41.641-17.32,23.024,4.606,41.568,26.547,35.387,19.237,51.29,10.4S766.014,202.723,749.848,185.259Z" transform="translate(95.74 7.086)"/>
    <path id="Path_1303-2" data-name="Path 1303" class="cls-2" d="M669.768,299.378c-6.753-4.1-9.209-17.635-9.209-17.635s-3.121-17.676,13.051-26.021,20.823-18.182,20.588-32.63-3.16-34.8-30.475-39.008-54.669,7.574-63.3,20.35-16.931,30.475-3.79,44.414,23.8,13.965,15.02,30.175-21.8,9.5-34.409,30.92-23.19,55.646-3.374,83.591,48.306,38.159,76.431,32.032,44.664-20.207,52.541-43.968,12.778-35.519,1.113-55.649S676.521,303.481,669.768,299.378Zm-12.982-88.932c2.142-2.05,7.446-2.416,9.943,6.166s-4.574,10.973-4.574,10.973c-4.272-1.228-4.272-1.228-6.884-6a9.132,9.132,0,0,1,1.516-11.145Zm-3.571,152.5c-5.3.366-6.451-5.266-5.786-12.162s3.776-5.969,14.632-8.623,6.505,6.023,6.505,6.023c1.474,15.885-10.047,14.395-15.351,14.76Z" transform="translate(103.177 52.092)"/>
  </g>
</svg>
