<svg xmlns="http://www.w3.org/2000/svg" width="103.574" height="103.489" viewBox="0 0 103.574 103.489">
  <defs>
    <style>
      .cls-1 {
        fill: #ffe566;
      }

      .cls-2 {
        fill: #66ff8f;
      }

      .cls-3 {
        fill: #ff0303;
      }

      .cls-4 {
        fill: #ff7171;
      }

      .cls-5 {
        fill: #ff5af4;
      }
    </style>
  </defs>
  <g id="Group_1409" data-name="Group 1409" transform="translate(-900 -221)">
    <g id="Group_1432" data-name="Group 1432" transform="translate(945.877 221)">
      <g id="Group_1430" data-name="Group 1430">
        <path id="Path_856" data-name="Path 856" class="cls-1" d="M829.42,342.988l-2.125-11.558a.7.7,0,0,1,1.369-.251.762.762,0,0,1,.01.082Z" transform="translate(-827.283 -330.608)"/>
        <path id="Path_857" data-name="Path 857" class="cls-1" d="M858.4,342.987l.747-11.729a.7.7,0,1,1,1.388.089.788.788,0,0,1-.01.081Z" transform="translate(-848.719 -330.607)"/>
      </g>
      <g id="Group_1431" data-name="Group 1431" transform="translate(0.001 91.109)">
        <path id="Path_858" data-name="Path 858" class="cls-1" d="M829.421,623.459l-.747,11.729a.7.7,0,0,1-1.388-.088.8.8,0,0,1,.01-.082Z" transform="translate(-827.285 -623.459)"/>
        <path id="Path_859" data-name="Path 859" class="cls-1" d="M858.4,623.459l2.125,11.558a.7.7,0,0,1-1.369.251.8.8,0,0,1-.01-.082Z" transform="translate(-848.72 -623.459)"/>
      </g>
    </g>
    <g id="Group_1435" data-name="Group 1435" transform="translate(926.642 222.922)">
      <g id="Group_1433" data-name="Group 1433">
        <path id="Path_860" data-name="Path 860" class="cls-1" d="M771.978,360.607l-6.409-9.851a.7.7,0,0,1,1.166-.758.709.709,0,0,1,.041.071Z" transform="translate(-765.456 -345.669)"/>
        <path id="Path_861" data-name="Path 861" class="cls-1" d="M800.256,348.821l-3.821-11.113a.7.7,0,1,1,1.315-.452c.008.025.016.054.022.079Z" transform="translate(-786.771 -336.786)"/>
      </g>
      <g id="Group_1434" data-name="Group 1434" transform="translate(36.803 84.708)">
        <path id="Path_862" data-name="Path 862" class="cls-1" d="M883.751,618.39l3.821,11.113a.7.7,0,1,1-1.315.452.789.789,0,0,1-.022-.079Z" transform="translate(-883.751 -615.488)"/>
        <path id="Path_863" data-name="Path 863" class="cls-1" d="M906.138,609.062l6.407,9.851a.7.7,0,1,1-1.166.758c-.014-.022-.029-.049-.041-.072Z" transform="translate(-899.173 -609.062)"/>
      </g>
    </g>
    <g id="Group_1438" data-name="Group 1438" transform="translate(910.932 232.647)">
      <g id="Group_1436" data-name="Group 1436">
        <path id="Path_864" data-name="Path 864" class="cls-1" d="M725.019,399.849l-9.753-6.556a.7.7,0,1,1,.776-1.154.741.741,0,0,1,.065.05Z" transform="translate(-714.959 -384.561)"/>
        <path id="Path_865" data-name="Path 865" class="cls-1" d="M746.428,377.935l-7.867-8.73a.7.7,0,0,1,1.033-.931c.018.02.036.043.051.064Z" transform="translate(-731.095 -368.044)"/>
      </g>
      <g id="Group_1437" data-name="Group 1437" transform="translate(66.377 64.907)">
        <path id="Path_866" data-name="Path 866" class="cls-1" d="M928.313,594.023l7.867,8.73a.7.7,0,1,1-1.033.931.785.785,0,0,1-.051-.064Z" transform="translate(-928.313 -588.626)"/>
        <path id="Path_867" data-name="Path 867" class="cls-1" d="M945.26,576.675l9.753,6.556a.7.7,0,1,1-.776,1.154.737.737,0,0,1-.065-.05Z" transform="translate(-939.988 -576.675)"/>
      </g>
    </g>
    <g id="Group_1441" data-name="Group 1441" transform="translate(901.77 248.207)">
      <g id="Group_1439" data-name="Group 1439">
        <path id="Path_868" data-name="Path 868" class="cls-1" d="M697.585,452.879l-11.519-2.328a.7.7,0,1,1,.276-1.363c.026.005.055.013.079.021Z" transform="translate(-685.508 -439.494)"/>
        <path id="Path_869" data-name="Path 869" class="cls-1" d="M708.99,424.441l-10.607-5.06a.7.7,0,1,1,.67-1.215Z" transform="translate(-694.104 -418.059)"/>
      </g>
      <g id="Group_1440" data-name="Group 1440" transform="translate(85.148 35.689)">
        <path id="Path_870" data-name="Path 870" class="cls-1" d="M959.2,555.284l10.607,5.06a.7.7,0,1,1-.6,1.255.8.8,0,0,1-.072-.04Z" transform="translate(-959.2 -548.281)"/>
        <path id="Path_871" data-name="Path 871" class="cls-1" d="M968.228,532.775l11.519,2.33a.7.7,0,0,1-.276,1.363c-.026-.005-.055-.013-.079-.021Z" transform="translate(-965.419 -532.775)"/>
      </g>
    </g>
    <g id="Group_1444" data-name="Group 1444" transform="translate(900 266.389)">
      <g id="Group_1442" data-name="Group 1442" transform="translate(0 0.893)">
        <path id="Path_872" data-name="Path 872" class="cls-1" d="M692.477,510.163l-11.539,2.227a.7.7,0,0,1-.263-1.365.8.8,0,0,1,.081-.011Z" transform="translate(-680.02 -500.584)"/>
        <path id="Path_873" data-name="Path 873" class="cls-1" d="M692.209,481.407l-11.734-.645a.7.7,0,1,1,.076-1.389.7.7,0,0,1,.082.009Z" transform="translate(-679.818 -479.372)"/>
      </g>
      <g id="Group_1443" data-name="Group 1443" transform="translate(91.118 0)">
        <path id="Path_874" data-name="Path 874" class="cls-1" d="M972.909,507.948l11.734.645a.7.7,0,0,1-.076,1.389.754.754,0,0,1-.081-.009Z" transform="translate(-972.844 -498.165)"/>
        <path id="Path_875" data-name="Path 875" class="cls-1" d="M972.7,478.742l11.539-2.226a.7.7,0,0,1,.264,1.365.741.741,0,0,1-.082.011Z" transform="translate(-972.7 -476.503)"/>
      </g>
    </g>
    <g id="Group_1447" data-name="Group 1447" transform="translate(902.046 247.356)">
      <g id="Group_1445" data-name="Group 1445" transform="translate(0 37.253)">
        <path id="Path_876" data-name="Path 876" class="cls-2" d="M710.352,557.4l-9.816,6.461a.7.7,0,1,1-.765-1.162.792.792,0,0,1,.071-.041Z" transform="translate(-695.394 -550.451)"/>
        <path id="Path_877" data-name="Path 877" class="cls-2" d="M698.414,535.065l-11.092,3.881a.7.7,0,0,1-.459-1.313q.039-.013.079-.023Z" transform="translate(-686.396 -535.065)"/>
      </g>
      <g id="Group_1446" data-name="Group 1446" transform="translate(84.524 0)">
        <path id="Path_878" data-name="Path 878" class="cls-2" d="M967.532,450.113l11.092-3.881a.7.7,0,1,1,.46,1.313.735.735,0,0,1-.079.022Z" transform="translate(-964.592 -436.589)"/>
        <path id="Path_879" data-name="Path 879" class="cls-2" d="M958.082,421.9l9.816-6.461a.7.7,0,1,1,.764,1.162.781.781,0,0,1-.071.041Z" transform="translate(-958.082 -415.323)"/>
      </g>
    </g>
    <g id="Group_1450" data-name="Group 1450" transform="translate(911.587 231.973)">
      <g id="Group_1448" data-name="Group 1448" transform="translate(0 66.199)">
        <path id="Path_880" data-name="Path 880" class="cls-1" d="M748.846,595.663l-6.587,9.732a.7.7,0,0,1-1.151-.78.794.794,0,0,1,.05-.065Z" transform="translate(-733.551 -590.374)"/>
        <path id="Path_881" data-name="Path 881" class="cls-1" d="M726.977,578.662l-8.755,7.84a.7.7,0,0,1-.928-1.036.816.816,0,0,1,.064-.051Z" transform="translate(-717.063 -578.662)"/>
      </g>
      <g id="Group_1449" data-name="Group 1449" transform="translate(65.105)">
        <path id="Path_882" data-name="Path 882" class="cls-1" d="M943.626,397.447l8.755-7.84a.7.7,0,1,1,.928,1.036.809.809,0,0,1-.064.051Z" transform="translate(-938.245 -382.103)"/>
        <path id="Path_883" data-name="Path 883" class="cls-1" d="M926.331,375.935l6.586-9.733a.7.7,0,1,1,1.151.779c-.015.022-.033.045-.05.065Z" transform="translate(-926.331 -365.879)"/>
      </g>
    </g>
    <g id="Group_1453" data-name="Group 1453" transform="translate(927.542 222.638)">
      <g id="Group_1451" data-name="Group 1451" transform="translate(0 85.353)">
        <path id="Path_884" data-name="Path 884" class="cls-1" d="M803.171,619.108l-2.255,11.533a.7.7,0,1,1-1.365-.267.761.761,0,0,1,.021-.08Z" transform="translate(-789.834 -616.344)"/>
        <path id="Path_885" data-name="Path 885" class="cls-1" d="M774.664,610.225l-4.991,10.64a.7.7,0,0,1-1.259-.591.716.716,0,0,1,.039-.072Z" transform="translate(-768.347 -610.225)"/>
      </g>
      <g id="Group_1452" data-name="Group 1452" transform="translate(35.153)">
        <path id="Path_886" data-name="Path 886" class="cls-1" d="M903.906,359.188l4.991-10.64a.7.7,0,1,1,1.259.591.778.778,0,0,1-.039.072Z" transform="translate(-896.885 -344.329)"/>
        <path id="Path_887" data-name="Path 887" class="cls-1" d="M881.339,347.969l2.256-11.533a.7.7,0,1,1,1.344.347Z" transform="translate(-881.339 -335.874)"/>
      </g>
    </g>
    <g id="Group_1462" data-name="Group 1462" transform="translate(914.534 235.491)">
      <g id="Group_1454" data-name="Group 1454" transform="translate(36.722)">
        <path id="Path_888" data-name="Path 888" class="cls-3" d="M845.1,407.61l-.531-29.882a.531.531,0,0,1,1.063-.019v.019Z" transform="translate(-844.57 -377.187)"/>
        <path id="Path_889" data-name="Path 889" class="cls-3" d="M845.1,518.884l.531,29.882a.531.531,0,1,1-1.063.019v-.019Z" transform="translate(-844.57 -474.801)"/>
      </g>
      <g id="Group_1455" data-name="Group 1455" transform="translate(22.669 2.795)">
        <path id="Path_890" data-name="Path 890" class="cls-3" d="M811.37,414.319l-11.926-27.4a.531.531,0,1,1,.974-.424l.007.017Z" transform="translate(-799.4 -386.171)"/>
        <path id="Path_891" data-name="Path 891" class="cls-3" d="M854.679,517.213l11.926,27.4a.531.531,0,1,1-.975.424l-.007-.017Z" transform="translate(-837.481 -476.445)"/>
      </g>
      <g id="Group_1456" data-name="Group 1456" transform="translate(10.755 10.756)">
        <path id="Path_892" data-name="Path 892" class="cls-3" d="M782.773,433.427l-21.506-20.753a.532.532,0,0,1,.738-.766l.013.013Z" transform="translate(-761.104 -411.759)"/>
        <path id="Path_893" data-name="Path 893" class="cls-3" d="M861.8,512.454l21.505,20.754a.531.531,0,1,1-.738.765l-.013-.013Z" transform="translate(-830.473 -481.127)"/>
      </g>
      <g id="Group_1457" data-name="Group 1457" transform="translate(2.794 22.669)">
        <path id="Path_894" data-name="Path 894" class="cls-3" d="M763.666,462.021l-27.812-10.945a.531.531,0,1,1,.389-.989l.018.007Z" transform="translate(-735.517 -450.051)"/>
        <path id="Path_895" data-name="Path 895" class="cls-3" d="M866.561,505.331l27.811,10.945a.531.531,0,0,1-.389.989l-.017-.007Z" transform="translate(-825.792 -488.133)"/>
      </g>
      <g id="Group_1458" data-name="Group 1458" transform="translate(0 36.722)">
        <path id="Path_896" data-name="Path 896" class="cls-3" d="M756.958,495.753l-29.882.531a.531.531,0,0,1-.019-1.063h.019Z" transform="translate(-726.535 -495.222)"/>
        <path id="Path_897" data-name="Path 897" class="cls-3" d="M868.232,495.753l29.882-.531a.531.531,0,0,1,.019,1.063h-.019Z" transform="translate(-824.149 -495.222)"/>
      </g>
      <g id="Group_1459" data-name="Group 1459" transform="translate(2.807 22.669)">
        <path id="Path_898" data-name="Path 898" class="cls-3" d="M763.692,505.331l-27.4,11.926a.532.532,0,0,1-.424-.975l.017-.007Z" transform="translate(-735.556 -488.133)"/>
        <path id="Path_899" data-name="Path 899" class="cls-3" d="M866.561,462.022l27.4-11.926a.531.531,0,0,1,.424.974l-.017.007Z" transform="translate(-825.804 -450.052)"/>
      </g>
      <g id="Group_1460" data-name="Group 1460" transform="translate(10.755 10.756)">
        <path id="Path_900" data-name="Path 900" class="cls-3" d="M782.774,512.454,762.02,533.959a.531.531,0,1,1-.765-.738l.013-.013Z" transform="translate(-761.106 -481.127)"/>
        <path id="Path_901" data-name="Path 901" class="cls-3" d="M861.8,433.426l20.754-21.506a.531.531,0,0,1,.765.738l-.013.013Z" transform="translate(-830.473 -411.758)"/>
      </g>
      <g id="Group_1461" data-name="Group 1461" transform="translate(22.67 2.795)">
        <path id="Path_902" data-name="Path 902" class="cls-3" d="M811.372,517.213l-10.944,27.809a.531.531,0,0,1-.989-.389l.007-.017Z" transform="translate(-799.402 -476.445)"/>
        <path id="Path_903" data-name="Path 903" class="cls-3" d="M854.679,414.319l10.945-27.811a.531.531,0,0,1,.989.389l-.007.017Z" transform="translate(-837.482 -386.171)"/>
      </g>
    </g>
    <g id="Group_1471" data-name="Group 1471" transform="translate(906.227 227.184)">
      <g id="Group_1463" data-name="Group 1463" transform="translate(35.08 0.361)">
        <path id="Path_904" data-name="Path 904" class="cls-4" d="M821.249,388.566l-8.639-36.08a.68.68,0,1,1,1.323-.317l.005.024Z" transform="translate(-812.591 -351.648)"/>
        <path id="Path_905" data-name="Path 905" class="cls-4" d="M852.137,523.545l8.637,36.08a.68.68,0,1,1-1.323.317c0-.007,0-.017-.005-.024Z" transform="translate(-839.834 -470.066)"/>
      </g>
      <g id="Group_1464" data-name="Group 1464" transform="translate(18.789 7.5)">
        <path id="Path_906" data-name="Path 906" class="cls-4" d="M782.147,405.7l-21.788-30.027a.68.68,0,0,1,1.1-.8l.014.021Z" transform="translate(-760.229 -374.594)"/>
        <path id="Path_907" data-name="Path 907" class="cls-4" d="M861.876,519.277,883.664,549.3a.68.68,0,1,1-1.1.8l-.014-.021Z" transform="translate(-830.253 -474.265)"/>
      </g>
      <g id="Group_1465" data-name="Group 1465" transform="translate(6.471 20.33)">
        <path id="Path_908" data-name="Path 908" class="cls-4" d="M752.579,436.5l-31.621-19.4a.68.68,0,1,1,.712-1.16l.021.013Z" transform="translate(-720.634 -415.832)"/>
        <path id="Path_909" data-name="Path 909" class="cls-4" d="M869.24,511.607l31.62,19.4a.68.68,0,1,1-.711,1.159l-.021-.013Z" transform="translate(-823.007 -481.811)"/>
      </g>
      <g id="Group_1466" data-name="Group 1466" transform="translate(0 36.897)">
        <path id="Path_910" data-name="Path 910" class="cls-4" d="M737.047,476.262l-36.639-5.826a.68.68,0,1,1,.214-1.344l.025,0Z" transform="translate(-699.834 -469.084)"/>
        <path id="Path_911" data-name="Path 911" class="cls-4" d="M873.109,501.7l36.639,5.826a.68.68,0,1,1-.214,1.344l-.025,0Z" transform="translate(-819.201 -491.553)"/>
      </g>
      <g id="Group_1467" data-name="Group 1467" transform="translate(0.361 35.079)">
        <path id="Path_912" data-name="Path 912" class="cls-4" d="M737.914,502.788l-36.08,8.639a.68.68,0,1,1-.317-1.323l.024-.005Z" transform="translate(-700.996 -490.484)"/>
        <path id="Path_913" data-name="Path 913" class="cls-4" d="M872.893,471.9l36.08-8.64a.68.68,0,1,1,.317,1.323l-.024.005Z" transform="translate(-819.414 -463.239)"/>
      </g>
      <g id="Group_1468" data-name="Group 1468" transform="translate(7.501 18.79)">
        <path id="Path_914" data-name="Path 914" class="cls-4" d="M755.051,512.528l-30.027,21.788a.68.68,0,0,1-.8-1.1l.02-.014Z" transform="translate(-723.944 -480.905)"/>
        <path id="Path_915" data-name="Path 915" class="cls-4" d="M868.625,432.8l30.027-21.788a.68.68,0,1,1,.8,1.1l-.021.014Z" transform="translate(-823.613 -410.883)"/>
      </g>
      <g id="Group_1469" data-name="Group 1469" transform="translate(20.33 6.471)">
        <path id="Path_916" data-name="Path 916" class="cls-4" d="M785.844,519.892l-19.4,31.621a.68.68,0,1,1-1.159-.712l.013-.021Z" transform="translate(-765.181 -473.659)"/>
        <path id="Path_917" data-name="Path 917" class="cls-4" d="M860.955,403.231l19.4-31.621a.68.68,0,1,1,1.159.712l-.013.021Z" transform="translate(-831.159 -371.286)"/>
      </g>
      <g id="Group_1470" data-name="Group 1470" transform="translate(36.897)">
        <path id="Path_918" data-name="Path 918" class="cls-4" d="M825.611,523.761,819.785,560.4a.68.68,0,1,1-1.344-.214.194.194,0,0,1,0-.025Z" transform="translate(-818.432 -469.854)"/>
        <path id="Path_919" data-name="Path 919" class="cls-4" d="M851.05,387.7l5.826-36.639a.68.68,0,1,1,1.344.214.146.146,0,0,1,0,.025Z" transform="translate(-840.902 -350.486)"/>
      </g>
    </g>
    <g id="Group_1481" data-name="Group 1481" transform="translate(906.231 227.189)">
      <g id="Group_1472" data-name="Group 1472" transform="translate(44.346)">
        <path id="Path_920" data-name="Path 920" class="cls-5" d="M844.81,351.71A1.209,1.209,0,1,1,843.6,350.5,1.209,1.209,0,0,1,844.81,351.71Z" transform="translate(-842.391 -350.501)"/>
        <circle id="Ellipse_172" data-name="Ellipse 172" class="cls-5" cx="1.209" cy="1.209" r="1.209" transform="translate(0 88.692)"/>
      </g>
      <g id="Group_1473" data-name="Group 1473" transform="translate(27.375 3.376)">
        <path id="Path_921" data-name="Path 921" class="cls-5" d="M790.169,362.1a1.209,1.209,0,1,1-1.58-.653A1.209,1.209,0,0,1,790.169,362.1Z" transform="translate(-787.842 -361.353)"/>
        <path id="Path_922" data-name="Path 922" class="cls-5" d="M899.266,625.483a1.209,1.209,0,1,1-1.58-.653,1.209,1.209,0,0,1,1.58.653Z" transform="translate(-862.998 -542.796)"/>
      </g>
      <g id="Group_1474" data-name="Group 1474" transform="translate(12.989 12.988)">
        <circle id="Ellipse_173" data-name="Ellipse 173" class="cls-5" cx="1.209" cy="1.209" r="1.209"/>
        <path id="Path_923" data-name="Path 923" class="cls-5" d="M945.247,594.189a1.209,1.209,0,1,1-.856-.355A1.209,1.209,0,0,1,945.247,594.189Z" transform="translate(-880.467 -531.119)"/>
      </g>
      <g id="Group_1475" data-name="Group 1475" transform="translate(3.375 27.375)">
        <path id="Path_924" data-name="Path 924" class="cls-5" d="M712.37,438.585a1.209,1.209,0,1,1-1.58.653A1.209,1.209,0,0,1,712.37,438.585Z" transform="translate(-710.697 -438.492)"/>
        <path id="Path_925" data-name="Path 925" class="cls-5" d="M975.753,547.682a1.209,1.209,0,1,1-1.58.653,1.209,1.209,0,0,1,1.58-.653Z" transform="translate(-892.139 -513.649)"/>
      </g>
      <g id="Group_1476" data-name="Group 1476" transform="translate(0 44.346)">
        <path id="Path_926" data-name="Path 926" class="cls-5" d="M701.058,493.043a1.209,1.209,0,1,1-1.209,1.209,1.209,1.209,0,0,1,1.209-1.209Z" transform="translate(-699.849 -493.043)"/>
        <path id="Path_927" data-name="Path 927" class="cls-5" d="M986.142,493.043a1.209,1.209,0,1,1-1.209,1.209A1.209,1.209,0,0,1,986.142,493.043Z" transform="translate(-896.241 -493.043)"/>
      </g>
      <g id="Group_1477" data-name="Group 1477" transform="translate(3.377 27.375)">
        <path id="Path_928" data-name="Path 928" class="cls-5" d="M711.448,547.682a1.209,1.209,0,1,1-.653,1.58A1.209,1.209,0,0,1,711.448,547.682Z" transform="translate(-710.702 -513.648)"/>
        <path id="Path_929" data-name="Path 929" class="cls-5" d="M974.831,438.585a1.209,1.209,0,1,1-.653,1.58A1.209,1.209,0,0,1,974.831,438.585Z" transform="translate(-892.144 -438.492)"/>
      </g>
      <g id="Group_1478" data-name="Group 1478" transform="translate(12.988 12.989)">
        <path id="Path_930" data-name="Path 930" class="cls-5" d="M741.952,594.191a1.209,1.209,0,1,1-.355.856A1.209,1.209,0,0,1,741.952,594.191Z" transform="translate(-741.597 -531.122)"/>
        <path id="Path_931" data-name="Path 931" class="cls-5" d="M943.537,392.606a1.209,1.209,0,1,1-.355.856,1.209,1.209,0,0,1,.355-.856Z" transform="translate(-880.467 -392.252)"/>
      </g>
      <g id="Group_1479" data-name="Group 1479" transform="translate(27.375 3.376)">
        <path id="Path_932" data-name="Path 932" class="cls-5" d="M787.933,625.481a1.209,1.209,0,1,1,.653,1.58A1.209,1.209,0,0,1,787.933,625.481Z" transform="translate(-787.841 -542.794)"/>
        <path id="Path_933" data-name="Path 933" class="cls-5" d="M897.03,362.1a1.209,1.209,0,1,1,.653,1.58,1.209,1.209,0,0,1-.653-1.58Z" transform="translate(-862.997 -361.351)"/>
      </g>
      <g id="Group_1480" data-name="Group 1480" transform="translate(27.375 3.376)">
        <path id="Path_934" data-name="Path 934" class="cls-5" d="M787.933,625.481a1.209,1.209,0,1,1,.653,1.58A1.209,1.209,0,0,1,787.933,625.481Z" transform="translate(-787.841 -542.794)"/>
        <path id="Path_935" data-name="Path 935" class="cls-5" d="M897.03,362.1a1.209,1.209,0,1,1,.653,1.58,1.209,1.209,0,0,1-.653-1.58Z" transform="translate(-862.997 -361.351)"/>
      </g>
    </g>
  </g>
</svg>
