<svg xmlns="http://www.w3.org/2000/svg" width="187.374" height="187.63" viewBox="0 0 187.374 187.63">
  <defs>
    <style>
      .cls-1 {
        fill: #f7c369;
      }

      .cls-2 {
        fill: #3ae8db;
      }

      .cls-3 {
        fill: #dc3ae8;
      }

      .cls-4 {
        fill: #cb3ae8;
      }

      .cls-5 {
        fill: #befcf7;
      }
    </style>
  </defs>
  <g id="Group_1561" data-name="Group 1561" transform="translate(-1087.95 -302.135)">
    <path id="Path_1592" data-name="Path 1592" class="cls-1" d="M1185.053,352.1l1.315,40.348,13.719-37.966-11.217,38.78,24.78-31.869L1191,394.807l33.415-22.652-31.869,24.78,38.78-11.218-37.971,13.721,40.348,1.315-40.348,1.315,37.967,13.719-38.78-11.218,31.869,24.78-33.415-22.652,22.652,33.415-24.78-31.869,11.217,38.779-13.719-37.966-1.315,40.348-1.315-40.348-13.719,37.966,11.217-38.779-24.78,31.869,22.652-33.415-33.415,22.652,31.869-24.78-38.78,11.218,37.967-13.719-40.348-1.315,40.348-1.315-37.967-13.719,38.78,11.218-31.869-24.78,33.415,22.652-22.652-33.415,24.78,31.869-11.217-38.78,13.719,37.967Z" transform="translate(-4.174 -4.305)"/>
    <g id="Group_1534" data-name="Group 1534" transform="translate(1166.592 319.731)">
      <path id="Path_1593" data-name="Path 1593" class="cls-2" d="M1193.33,375.54l7.45-52.652a1.742,1.742,0,1,1,3.449.488c0,.036-.012.077-.019.112Z" transform="translate(-1175.671 -321.39)"/>
      <path id="Path_1594" data-name="Path 1594" class="cls-2" d="M1184.921,430.033l-7.448,52.653a1.742,1.742,0,0,1-3.449-.488c.006-.037.013-.077.019-.112Z" transform="translate(-1174.007 -330.75)"/>
    </g>
    <g id="Group_1535" data-name="Group 1535" transform="translate(1168.234 319.478)">
      <path id="Path_1595" data-name="Path 1595" class="cls-2" d="M1184.783,375.566l-8.956-52.417a1.742,1.742,0,0,1,3.434-.587c.005.036.011.077.015.113Z" transform="translate(-1175.802 -321.114)"/>
      <path id="Path_1596" data-name="Path 1596" class="cls-2" d="M1193.65,429.983l8.956,52.418a1.742,1.742,0,1,1-3.434.587c-.006-.037-.011-.078-.015-.113Z" transform="translate(-1177.34 -330.493)"/>
    </g>
    <g id="Group_1536" data-name="Group 1536" transform="translate(1145.828 326.375)">
      <path id="Path_1597" data-name="Path 1597" class="cls-2" d="M1175.982,378.4l-24.5-47.2a1.742,1.742,0,1,1,3.092-1.6c.016.032.035.07.049.1Z" transform="translate(-1151.285 -328.661)"/>
      <path id="Path_1598" data-name="Path 1598" class="cls-2" d="M1200.97,427.588l24.5,47.2a1.742,1.742,0,1,1-3.092,1.6c-.016-.033-.035-.07-.049-.1Z" transform="translate(-1155.566 -337.184)"/>
    </g>
    <g id="Group_1537" data-name="Group 1537" transform="translate(1126.635 339.826)">
      <path id="Path_1599" data-name="Path 1599" class="cls-2" d="M1168.47,383.79l-37.721-37.482a1.742,1.742,0,0,1,2.456-2.467c.026.026.054.056.079.083Z" transform="translate(-1130.283 -343.38)"/>
      <path id="Path_1600" data-name="Path 1600" class="cls-2" d="M1207.21,423.076l37.721,37.483a1.742,1.742,0,0,1-2.455,2.467c-.027-.026-.054-.057-.079-.083Z" transform="translate(-1136.91 -350.246)"/>
    </g>
    <g id="Group_1538" data-name="Group 1538" transform="translate(1112.347 358.406)">
      <path id="Path_1601" data-name="Path 1601" class="cls-3" d="M1162.946,391.208,1115.6,367a1.742,1.742,0,1,1,1.585-3.1c.033.017.069.037.1.056Z" transform="translate(-1114.647 -363.712)"/>
      <path id="Path_1602" data-name="Path 1602" class="cls-3" d="M1211.79,416.876l47.35,24.2a1.742,1.742,0,1,1-1.585,3.1c-.033-.017-.069-.037-.1-.055Z" transform="translate(-1123.017 -368.292)"/>
    </g>
    <g id="Group_1539" data-name="Group 1539" transform="translate(1104.466 380.492)">
      <path id="Path_1603" data-name="Path 1603" class="cls-2" d="M1159.955,399.961l-52.473-8.621a1.742,1.742,0,1,1,.565-3.437l.111.022Z" transform="translate(-1106.023 -387.879)"/>
      <path id="Path_1604" data-name="Path 1604" class="cls-2" d="M1214.25,409.579l52.474,8.62a1.742,1.742,0,1,1-.565,3.437c-.036-.006-.076-.014-.111-.022Z" transform="translate(-1115.347 -389.749)"/>
    </g>
    <g id="Group_1540" data-name="Group 1540" transform="translate(1103.687 385.477)">
      <path id="Path_1605" data-name="Path 1605" class="cls-2" d="M1159.772,408.8l-52.6,7.782a1.742,1.742,0,0,1-.51-3.446c.036-.005.078-.01.113-.013Z" transform="translate(-1105.171 -394.667)"/>
      <path id="Path_1606" data-name="Path 1606" class="cls-2" d="M1214.37,401.142l52.6-7.782a1.742,1.742,0,1,1,.51,3.445c-.036.005-.078.01-.113.014Z" transform="translate(-1114.579 -393.335)"/>
    </g>
    <g id="Group_1541" data-name="Group 1541" transform="translate(1110.087 362.924)">
      <path id="Path_1607" data-name="Path 1607" class="cls-2" d="M1162.413,416.172l-47.729,23.445a1.742,1.742,0,1,1-1.536-3.126c.033-.016.07-.033.1-.046Z" transform="translate(-1112.174 -372.749)"/>
      <path id="Path_1608" data-name="Path 1608" class="cls-2" d="M1212.14,392.279l47.729-23.445a1.742,1.742,0,1,1,1.536,3.126c-.033.016-.07.034-.1.047Z" transform="translate(-1120.787 -368.655)"/>
    </g>
    <g id="Group_1542" data-name="Group 1542" transform="translate(1123.057 343.39)">
      <path id="Path_1609" data-name="Path 1609" class="cls-2" d="M1167.63,422.513l-38.313,36.876a1.742,1.742,0,0,1-2.416-2.509c.027-.026.058-.053.085-.077Z" transform="translate(-1126.367 -353.762)"/>
      <path id="Path_1610" data-name="Path 1610" class="cls-2" d="M1207.77,384.643l38.313-36.876a1.742,1.742,0,1,1,2.416,2.509c-.027.026-.058.053-.085.076Z" transform="translate(-1133.38 -347.28)"/>
    </g>
    <g id="Group_1543" data-name="Group 1543" transform="translate(1141.359 328.738)">
      <path id="Path_1611" data-name="Path 1611" class="cls-4" d="M1174.92,427.22l-25.251,46.8a1.742,1.742,0,0,1-3.066-1.654c.018-.032.038-.068.058-.1Z" transform="translate(-1146.394 -339.515)"/>
      <path id="Path_1612" data-name="Path 1612" class="cls-4" d="M1201.67,378.961l25.251-46.8a1.742,1.742,0,1,1,3.066,1.654c-.017.032-.038.068-.057.1Z" transform="translate(-1151.156 -331.247)"/>
    </g>
    <g id="Group_1544" data-name="Group 1544" transform="translate(1149.152 307.53)">
      <path id="Path_1613" data-name="Path 1613" class="cls-5" d="M1209.96,344.956l12.223-36.064a1.257,1.257,0,1,1,2.382.807l-.03.078Z" transform="translate(-1159.664 -308.038)"/>
      <path id="Path_1614" data-name="Path 1614" class="cls-5" d="M1169.6,461.087l-12.227,36.065a1.257,1.257,0,1,1-2.38-.807c.009-.026.019-.053.029-.078Z" transform="translate(-1154.922 -321.224)"/>
    </g>
    <g id="Group_1545" data-name="Group 1545" transform="translate(1179.942 302.135)">
      <path id="Path_1615" data-name="Path 1615" class="cls-5" d="M1190.055,341.455l-.481-38.077a1.257,1.257,0,0,1,2.514-.031v.082Z" transform="translate(-1188.698 -302.135)"/>
      <path id="Path_1616" data-name="Path 1616" class="cls-5" d="M1190.648,464.363l.481,38.076a1.257,1.257,0,1,1-2.514.032c0-.027,0-.057,0-.083Z" transform="translate(-1188.615 -316.112)"/>
    </g>
    <g id="Group_1546" data-name="Group 1546" transform="translate(1152.914 306.273)">
      <path id="Path_1617" data-name="Path 1617" class="cls-5" d="M1171.029,344.477,1159.1,308.314a1.257,1.257,0,0,1,2.387-.788c.009.026.017.054.024.08Z" transform="translate(-1159.038 -306.663)"/>
      <path id="Path_1618" data-name="Path 1618" class="cls-5" d="M1208.78,461.482l11.928,36.164a1.257,1.257,0,1,1-2.387.788c-.009-.026-.017-.054-.024-.08Z" transform="translate(-1163.324 -320.002)"/>
    </g>
    <g id="Group_1547" data-name="Group 1547" transform="translate(1128.009 318.34)">
      <path id="Path_1619" data-name="Path 1619" class="cls-5" d="M1154.106,352.878l-22.086-31.02a1.258,1.258,0,1,1,2.048-1.462c.016.022.032.047.046.069Z" transform="translate(-1131.786 -319.868)"/>
      <path id="Path_1620" data-name="Path 1620" class="cls-5" d="M1224.73,453.534l22.088,31.021a1.258,1.258,0,0,1-2.048,1.462c-.016-.022-.032-.047-.046-.069Z" transform="translate(-1139.793 -331.384)"/>
    </g>
    <g id="Group_1548" data-name="Group 1548" transform="translate(1128.156 318.243)">
      <path id="Path_1621" data-name="Path 1621" class="cls-5" d="M1154.2,352.809l-22.024-31.063a1.257,1.257,0,1,1,2.051-1.454c.016.022.032.048.046.069Z" transform="translate(-1131.947 -319.762)"/>
      <path id="Path_1622" data-name="Path 1622" class="cls-5" d="M1224.63,453.6l22.024,31.063a1.256,1.256,0,1,1-2.05,1.453c-.015-.021-.032-.047-.046-.069Z" transform="translate(-1139.932 -331.293)"/>
    </g>
    <g id="Group_1549" data-name="Group 1549" transform="translate(1107.48 337.63)">
      <path id="Path_1623" data-name="Path 1623" class="cls-5" d="M1140.217,366.178l-30.394-22.937a1.258,1.258,0,0,1,1.514-2.01c.022.016.045.035.065.052Z" transform="translate(-1109.321 -340.977)"/>
      <path id="Path_1624" data-name="Path 1624" class="cls-5" d="M1237.81,440.971l30.394,22.937a1.258,1.258,0,0,1-1.514,2.01l-.064-.052Z" transform="translate(-1120.391 -349.592)"/>
    </g>
    <g id="Group_1550" data-name="Group 1550" transform="translate(1107.584 337.495)">
      <path id="Path_1625" data-name="Path 1625" class="cls-5" d="M1140.282,366.083l-30.349-23a1.257,1.257,0,0,1,1.518-2c.021.017.045.035.065.052Z" transform="translate(-1109.435 -340.829)"/>
      <path id="Path_1626" data-name="Path 1626" class="cls-5" d="M1237.74,441.061l30.35,23a1.257,1.257,0,0,1-1.518,2c-.022-.016-.045-.036-.065-.052Z" transform="translate(-1120.49 -349.465)"/>
    </g>
    <g id="Group_1551" data-name="Group 1551" transform="translate(1093.702 362.2)">
      <path id="Path_1627" data-name="Path 1627" class="cls-5" d="M1130.968,383.041,1095.081,370.3a1.257,1.257,0,0,1,.841-2.369l.077.03Z" transform="translate(-1094.245 -367.863)"/>
      <path id="Path_1628" data-name="Path 1628" class="cls-5" d="M1246.51,425.053l35.887,12.735a1.257,1.257,0,1,1-.841,2.37c-.025-.009-.053-.02-.077-.031Z" transform="translate(-1107.363 -372.791)"/>
    </g>
    <g id="Group_1552" data-name="Group 1552" transform="translate(1093.793 362.044)">
      <path id="Path_1629" data-name="Path 1629" class="cls-5" d="M1131.013,382.929l-35.863-12.8a1.257,1.257,0,0,1,.845-2.368c.026.009.053.02.078.031Z" transform="translate(-1094.344 -367.693)"/>
      <path id="Path_1630" data-name="Path 1630" class="cls-5" d="M1246.47,425.16l35.862,12.8a1.257,1.257,0,1,1-.844,2.367c-.026-.008-.054-.02-.078-.03Z" transform="translate(-1107.451 -372.644)"/>
    </g>
    <g id="Group_1553" data-name="Group 1553" transform="translate(1087.95 389.777)">
      <path id="Path_1631" data-name="Path 1631" class="cls-5" d="M1127.218,401.9l-38.056-1.352a1.257,1.257,0,0,1,.091-2.512.35.35,0,0,1,.082.006Z" transform="translate(-1087.951 -398.04)"/>
      <path id="Path_1632" data-name="Path 1632" class="cls-5" d="M1250.02,407.256l38.056,1.351a1.257,1.257,0,1,1-.091,2.512.417.417,0,0,1-.083-.005Z" transform="translate(-1101.914 -398.834)"/>
    </g>
    <g id="Group_1554" data-name="Group 1554" transform="translate(1087.954 389.601)">
      <path id="Path_1633" data-name="Path 1633" class="cls-5" d="M1127.218,401.784l-38.053-1.425a1.256,1.256,0,1,1,.092-2.511.43.43,0,0,1,.083.006Z" transform="translate(-1087.954 -397.847)"/>
      <path id="Path_1634" data-name="Path 1634" class="cls-5" d="M1250.01,407.37l38.053,1.424a1.257,1.257,0,0,1-.091,2.512l-.083-.005Z" transform="translate(-1101.916 -398.667)"/>
    </g>
    <g id="Group_1555" data-name="Group 1555" transform="translate(1090.762 371.519)">
      <path id="Path_1635" data-name="Path 1635" class="cls-5" d="M1129.32,420.3l-36.7,10.158a1.257,1.257,0,1,1-.671-2.423c.025-.007.055-.014.08-.019Z" transform="translate(-1091.027 -381.7)"/>
      <path id="Path_1636" data-name="Path 1636" class="cls-5" d="M1248.01,388.266l36.7-10.159a1.257,1.257,0,0,1,.67,2.423l-.08.02Z" transform="translate(-1104.552 -378.061)"/>
    </g>
    <g id="Group_1556" data-name="Group 1556" transform="translate(1090.718 371.692)">
      <path id="Path_1637" data-name="Path 1637" class="cls-5" d="M1129.288,420.187l-36.719,10.088a1.257,1.257,0,1,1-.666-2.423c.026-.007.055-.015.081-.02Z" transform="translate(-1090.979 -381.863)"/>
      <path id="Path_1638" data-name="Path 1638" class="cls-5" d="M1248.04,388.383l36.718-10.088a1.257,1.257,0,1,1,.666,2.424c-.026.007-.055.014-.08.019Z" transform="translate(-1104.511 -378.249)"/>
    </g>
    <g id="Group_1557" data-name="Group 1557" transform="translate(1101.867 345.633)">
      <path id="Path_1639" data-name="Path 1639" class="cls-5" d="M1137.065,436.886l-31.943,20.728a1.258,1.258,0,1,1-1.371-2.109l.071-.043Z" transform="translate(-1103.178 -357.243)"/>
      <path id="Path_1640" data-name="Path 1640" class="cls-5" d="M1240.67,370.666l31.944-20.728a1.258,1.258,0,1,1,1.371,2.109l-.071.042Z" transform="translate(-1115.024 -349.734)"/>
    </g>
    <g id="Group_1558" data-name="Group 1558" transform="translate(1101.775 345.784)">
      <path id="Path_1641" data-name="Path 1641" class="cls-5" d="M1137,436.79l-31.985,20.666a1.257,1.257,0,1,1-1.364-2.111c.022-.015.048-.03.071-.043Z" transform="translate(-1103.078 -357.386)"/>
      <path id="Path_1642" data-name="Path 1642" class="cls-5" d="M1240.73,370.768l31.984-20.667a1.257,1.257,0,1,1,1.365,2.112l-.072.042Z" transform="translate(-1114.938 -349.899)"/>
    </g>
    <g id="Group_1559" data-name="Group 1559" transform="translate(1120.232 324.29)">
      <path id="Path_1643" data-name="Path 1643" class="cls-5" d="M1149.754,450.5l-24.231,29.376a1.257,1.257,0,1,1-1.939-1.6c.017-.02.037-.043.055-.062Z" transform="translate(-1123.276 -337.073)"/>
      <path id="Path_1644" data-name="Path 1644" class="cls-5" d="M1228.68,356.212l24.231-29.376a1.257,1.257,0,0,1,1.939,1.6c-.017.021-.037.043-.055.062Z" transform="translate(-1132.357 -326.379)"/>
    </g>
    <g id="Group_1560" data-name="Group 1560" transform="translate(1120.126 324.402)">
      <path id="Path_1645" data-name="Path 1645" class="cls-5" d="M1149.671,450.427l-24.286,29.329a1.257,1.257,0,0,1-1.936-1.6l.055-.062Z" transform="translate(-1123.159 -337.179)"/>
      <path id="Path_1646" data-name="Path 1646" class="cls-5" d="M1228.77,356.291l24.286-29.334a1.257,1.257,0,1,1,1.937,1.6l-.056.062Z" transform="translate(-1132.258 -326.501)"/>
    </g>
  </g>
</svg>
