<svg xmlns="http://www.w3.org/2000/svg" width="164.113" height="164.119" viewBox="0 0 164.113 164.119">
  <defs>
    <style>
      .cls-1 {
        fill: #f30;
      }

      .cls-2 {
        fill: #77ff8e;
      }

      .cls-3 {
        fill: #d5ff83;
      }
    </style>
  </defs>
  <g id="Group_1410" data-name="Group 1410" transform="translate(-49 -52)">
    <g id="Group_1417" data-name="Group 1417" transform="translate(49 52)">
      <path id="Path_814" data-name="Path 814" class="cls-1" d="M126.378,117l.94,67.347,21.705-63.76L129.1,184.928l40.345-53.933-38.825,55.037,55.037-38.825L131.73,187.553l64.341-19.917-63.761,21.7,67.347.94-67.347.94,63.76,21.705L131.73,193.007l53.933,40.346-55.037-38.825,38.825,55.037L129.1,195.63l19.917,64.343-21.705-63.761-.94,67.347-.94-67.347-21.705,63.761L123.65,195.63,83.305,249.564l38.825-55.037L67.093,233.353l53.933-40.346L56.685,212.924l63.76-21.705-67.345-.94,67.347-.94L56.685,167.635l64.341,19.917L67.093,147.207l55.037,38.825L83.3,131l40.346,53.933-19.917-64.342,21.705,63.76Z" transform="translate(-44.322 -108.22)"/>
      <g id="Group_1407" data-name="Group 1407" transform="translate(79.975)">
        <path id="Path_815" data-name="Path 815" class="cls-1" d="M177.507,104.252a2.081,2.081,0,1,1-2.081-2.081,2.081,2.081,0,0,1,2.081,2.081Z" transform="translate(-173.346 -102.171)"/>
        <path id="Path_816" data-name="Path 816" class="cls-1" d="M177.507,374.408a2.081,2.081,0,1,1-2.081-2.081,2.081,2.081,0,0,1,2.081,2.081Z" transform="translate(-173.346 -212.369)"/>
      </g>
      <g id="Group_1408" data-name="Group 1408" transform="translate(54.547 4.149)">
        <path id="Path_817" data-name="Path 817" class="cls-1" d="M134.454,110.6a2.081,2.081,0,1,1-2.634-1.311,2.081,2.081,0,0,1,2.634,1.311Z" transform="translate(-130.4 -109.178)"/>
        <path id="Path_818" data-name="Path 818" class="cls-1" d="M220.343,366.738a2.081,2.081,0,1,1-2.634-1.311A2.081,2.081,0,0,1,220.343,366.738Z" transform="translate(-165.435 -213.659)"/>
      </g>
      <g id="Group_1409" data-name="Group 1409" transform="translate(31.759 16.168)">
        <path id="Path_819" data-name="Path 819" class="cls-1" d="M95.654,130.3a2.081,2.081,0,1,1-2.914-.406A2.081,2.081,0,0,1,95.654,130.3Z" transform="translate(-91.913 -129.477)"/>
        <path id="Path_820" data-name="Path 820" class="cls-1" d="M258.523,345.847a2.081,2.081,0,1,1-2.915-.406A2.081,2.081,0,0,1,258.523,345.847Z" transform="translate(-158.348 -217.398)"/>
      </g>
      <g id="Group_1410-2" data-name="Group 1410" transform="translate(13.973 34.807)">
        <path id="Path_821" data-name="Path 821" class="cls-1" d="M65.131,161.321a2.081,2.081,0,1,1-2.892.542A2.081,2.081,0,0,1,65.131,161.321Z" transform="translate(-61.875 -160.958)"/>
        <path id="Path_822" data-name="Path 822" class="cls-1" d="M288.073,313.9a2.081,2.081,0,1,1-2.892.542A2.081,2.081,0,0,1,288.073,313.9Z" transform="translate(-152.814 -223.197)"/>
      </g>
      <g id="Group_1411" data-name="Group 1411" transform="translate(3.995 55.003)">
        <path id="Path_823" data-name="Path 823" class="cls-1" d="M47.752,195.171a2.081,2.081,0,1,1-2.627,1.327A2.081,2.081,0,0,1,47.752,195.171Z" transform="translate(-45.021 -195.066)"/>
        <path id="Path_824" data-name="Path 824" class="cls-1" d="M304.4,279.534a2.081,2.081,0,1,1-2.627,1.327A2.081,2.081,0,0,1,304.4,279.534Z" transform="translate(-149.709 -229.478)"/>
      </g>
      <g id="Group_1412" data-name="Group 1412" transform="translate(0 79.18)">
        <path id="Path_825" data-name="Path 825" class="cls-1" d="M40.334,238.6a2.081,2.081,0,1,1-2.059,2.1A2.081,2.081,0,0,1,40.334,238.6Z" transform="translate(-38.275 -237.001)"/>
        <path id="Path_826" data-name="Path 826" class="cls-1" d="M310.481,235.9a2.081,2.081,0,1,1-2.06,2.1,2.081,2.081,0,0,1,2.06-2.1Z" transform="translate(-148.469 -235.9)"/>
      </g>
      <g id="Group_1413" data-name="Group 1413" transform="translate(3.812 55.565)">
        <path id="Path_827" data-name="Path 827" class="cls-1" d="M46.16,278.581a2.081,2.081,0,1,1-1.346,2.616,2.081,2.081,0,0,1,1.346-2.616Z" transform="translate(-44.713 -229.654)"/>
        <path id="Path_828" data-name="Path 828" class="cls-1" d="M303.423,196.115a2.081,2.081,0,1,1-1.346,2.616,2.081,2.081,0,0,1,1.346-2.616Z" transform="translate(-149.652 -196.015)"/>
      </g>
      <g id="Group_1414" data-name="Group 1414" transform="translate(14.439 34.133)">
        <path id="Path_829" data-name="Path 829" class="cls-1" d="M63.55,315.053a2.081,2.081,0,1,1-.513,2.9,2.081,2.081,0,0,1,.513-2.9Z" transform="translate(-62.661 -222.987)"/>
        <path id="Path_830" data-name="Path 830" class="cls-1" d="M284.918,160.2a2.081,2.081,0,1,1-.512,2.9A2.081,2.081,0,0,1,284.918,160.2Z" transform="translate(-152.959 -159.819)"/>
      </g>
      <g id="Group_1415" data-name="Group 1415" transform="translate(32.64 15.509)">
        <path id="Path_831" data-name="Path 831" class="cls-1" d="M93.8,346.979a2.081,2.081,0,1,1,.445,2.908A2.081,2.081,0,0,1,93.8,346.979Z" transform="translate(-93.401 -217.192)"/>
        <path id="Path_832" data-name="Path 832" class="cls-1" d="M253.695,129.215a2.081,2.081,0,1,1,.446,2.908A2.081,2.081,0,0,1,253.695,129.215Z" transform="translate(-158.621 -128.365)"/>
      </g>
      <g id="Group_1416" data-name="Group 1416" transform="translate(55.261 3.913)">
        <path id="Path_833" data-name="Path 833" class="cls-1" d="M131.708,367.155a2.081,2.081,0,1,1,1.336,2.622A2.081,2.081,0,0,1,131.708,367.155Z" transform="translate(-131.606 -213.586)"/>
        <path id="Path_834" data-name="Path 834" class="cls-1" d="M215.186,110.218a2.081,2.081,0,1,1,1.336,2.622,2.081,2.081,0,0,1-1.336-2.622Z" transform="translate(-165.657 -108.78)"/>
      </g>
    </g>
    <path id="Path_835" data-name="Path 835" class="cls-2" d="M127.261,142.068l9.326,53.576,9.186-53.6-7.687,53.836,25.3-48.137-23.947,48.825L178.374,158.6l-37.862,39.037,48.763-24.075L141.2,198.991l53.816-7.829-53.576,9.326,53.6,9.185-53.836-7.687,48.137,25.3-48.826-23.946,37.965,38.937-39.036-37.863,24.075,48.763L138.1,205.106l7.828,53.816L136.6,205.345l-9.186,53.6,7.687-53.836-25.3,48.137,23.948-48.822L94.81,242.39l37.863-39.036L83.909,227.428,131.981,202,78.165,209.83l53.576-9.326-53.6-9.188L131.977,199,83.84,173.7l48.826,23.947L94.7,158.715l39.036,37.863-24.075-48.763,25.426,48.072Z" transform="translate(-5.536 -66.435)"/>
    <g id="Group_1428" data-name="Group 1428" transform="translate(64.229 68.585)">
      <g id="Group_1418" data-name="Group 1418" transform="translate(54.96 0.026)">
        <path id="Path_836" data-name="Path 836" class="cls-3" d="M160.158,131.642a1.68,1.68,0,1,1-1.924-1.394A1.68,1.68,0,0,1,160.158,131.642Z" transform="translate(-156.818 -130.226)"/>
        <path id="Path_837" data-name="Path 837" class="cls-3" d="M194.564,347.04a1.68,1.68,0,1,1-1.924-1.394,1.68,1.68,0,0,1,1.924,1.394Z" transform="translate(-170.853 -218.088)"/>
      </g>
      <g id="Group_1419" data-name="Group 1419" transform="translate(35.215 6.573)">
        <path id="Path_838" data-name="Path 838" class="cls-3" d="M126.64,142.185a1.68,1.68,0,1,1-2.267-.711A1.68,1.68,0,0,1,126.64,142.185Z" transform="translate(-123.471 -141.283)"/>
        <path id="Path_839" data-name="Path 839" class="cls-3" d="M227.741,335.468a1.68,1.68,0,1,1-2.268-.711,1.68,1.68,0,0,1,2.268.711Z" transform="translate(-164.71 -220.124)"/>
      </g>
      <g id="Group_1420" data-name="Group 1420" transform="translate(18.578 19.058)">
        <path id="Path_840" data-name="Path 840" class="cls-3" d="M98.215,162.837a1.68,1.68,0,1,1-2.375.048A1.68,1.68,0,0,1,98.215,162.837Z" transform="translate(-95.371 -162.369)"/>
        <path id="Path_841" data-name="Path 841" class="cls-3" d="M255.519,313.951a1.68,1.68,0,1,1-2.375.047,1.68,1.68,0,0,1,2.375-.047Z" transform="translate(-159.536 -224.009)"/>
      </g>
      <g id="Group_1421" data-name="Group 1421" transform="translate(6.77 36.184)">
        <path id="Path_842" data-name="Path 842" class="cls-3" d="M77.828,191.456a1.68,1.68,0,1,1-2.237.8,1.68,1.68,0,0,1,2.237-.8Z" transform="translate(-75.429 -191.294)"/>
        <path id="Path_843" data-name="Path 843" class="cls-3" d="M275.013,284.719a1.68,1.68,0,1,1-2.237.8A1.68,1.68,0,0,1,275.013,284.719Z" transform="translate(-155.862 -229.336)"/>
      </g>
      <g id="Group_1422" data-name="Group 1422" transform="translate(1.386 53.558)">
        <path id="Path_844" data-name="Path 844" class="cls-3" d="M68.284,220.658a1.679,1.679,0,1,1-1.251.3A1.68,1.68,0,0,1,68.284,220.658Z" transform="translate(-66.337 -220.637)"/>
        <path id="Path_845" data-name="Path 845" class="cls-3" d="M283.654,255.236a1.68,1.68,0,1,1-1.925,1.392A1.68,1.68,0,0,1,283.654,255.236Z" transform="translate(-154.188 -234.741)"/>
      </g>
      <g id="Group_1423" data-name="Group 1423" transform="translate(0 52.973)">
        <path id="Path_846" data-name="Path 846" class="cls-3" d="M65.394,256.226a1.68,1.68,0,1,1-1.375,1.938A1.68,1.68,0,0,1,65.394,256.226Z" transform="translate(-63.995 -234.559)"/>
        <path id="Path_847" data-name="Path 847" class="cls-3" d="M280.436,219.672a1.68,1.68,0,1,1-1.375,1.937A1.68,1.68,0,0,1,280.436,219.672Z" transform="translate(-151.712 -219.649)"/>
      </g>
      <g id="Group_1424" data-name="Group 1424" transform="translate(6.048 34.63)">
        <path id="Path_848" data-name="Path 848" class="cls-3" d="M75.131,287.364a1.68,1.68,0,1,1-.74,2.257A1.68,1.68,0,0,1,75.131,287.364Z" transform="translate(-74.21 -228.853)"/>
        <path id="Path_849" data-name="Path 849" class="cls-3" d="M269.746,188.85a1.68,1.68,0,1,1-.74,2.258A1.68,1.68,0,0,1,269.746,188.85Z" transform="translate(-153.594 -188.669)"/>
      </g>
      <g id="Group_1425" data-name="Group 1425" transform="translate(17.25 18.896)">
        <path id="Path_850" data-name="Path 850" class="cls-3" d="M93.641,314.229a1.68,1.68,0,1,1-.04,2.375,1.68,1.68,0,0,1,.04-2.375Z" transform="translate(-93.129 -223.959)"/>
        <path id="Path_851" data-name="Path 851" class="cls-3" d="M250.418,162.569a1.68,1.68,0,1,1-.04,2.375A1.68,1.68,0,0,1,250.418,162.569Z" transform="translate(-157.079 -162.096)"/>
      </g>
      <g id="Group_1426" data-name="Group 1426" transform="translate(34.133 6.365)">
        <path id="Path_852" data-name="Path 852" class="cls-3" d="M121.829,335.83a1.68,1.68,0,1,1,.725,2.262A1.68,1.68,0,0,1,121.829,335.83Z" transform="translate(-121.643 -220.06)"/>
        <path id="Path_853" data-name="Path 853" class="cls-3" d="M221.578,141.844a1.68,1.68,0,1,1,.726,2.262,1.68,1.68,0,0,1-.726-2.262Z" transform="translate(-162.331 -140.932)"/>
      </g>
      <g id="Group_1427" data-name="Group 1427" transform="translate(53.646)">
        <path id="Path_854" data-name="Path 854" class="cls-3" d="M154.62,347.088a1.68,1.68,0,1,1,1.4,1.92,1.68,1.68,0,0,1-1.4-1.92Z" transform="translate(-154.599 -218.08)"/>
        <path id="Path_855" data-name="Path 855" class="cls-3" d="M188.456,131.6a1.68,1.68,0,1,1,1.4,1.92A1.68,1.68,0,0,1,188.456,131.6Z" transform="translate(-168.401 -130.182)"/>
      </g>
    </g>
  </g>
</svg>
