<svg id="logo_新媒體中心" xmlns="http://www.w3.org/2000/svg" viewBox="0 0 370 146.5"><defs><style>.cls-1{fill:#888;}.cls-2{fill:#bf2923;}.cls-3{fill:#231815;}</style></defs><title>newmedia_logo</title><rect class="cls-1" x="9.9" y="96.5" width="350.1" height="0.64"/><rect class="cls-2" x="10.4" y="67.8" width="0.5" height="16.24"/><rect class="cls-2" x="13.3" y="66.7" width="0.5" height="17.29"/><rect class="cls-2" x="16.2" y="66" width="0.5" height="17.99"/><rect class="cls-2" x="19.1" y="61.3" width="0.5" height="22.66"/><rect class="cls-2" x="22" y="56.5" width="0.5" height="27.55"/><rect class="cls-2" x="24.9" y="55.4" width="0.5" height="28.6"/><rect class="cls-2" x="27.8" y="57.2" width="0.5" height="26.85"/><rect class="cls-2" x="30.7" y="53.1" width="0.5" height="30.87"/><rect class="cls-2" x="33.5" y="52.3" width="0.5" height="31.75"/><rect class="cls-2" x="36.4" y="53.8" width="0.5" height="30.17"/><rect class="cls-2" x="39.3" y="68.5" width="0.5" height="15.54"/><rect class="cls-2" x="42.2" y="70.4" width="0.5" height="13.61"/><rect class="cls-2" x="45.1" y="69.2" width="0.5" height="14.84"/><rect class="cls-2" x="48" y="63.7" width="0.5" height="20.3"/><rect class="cls-2" x="50.9" y="58.5" width="0.5" height="25.55"/><rect class="cls-2" x="53.8" y="54.2" width="0.5" height="29.82"/><rect class="cls-2" x="56.7" y="55.9" width="0.5" height="28.07"/><rect class="cls-2" x="59.6" y="57.7" width="0.5" height="26.32"/><rect class="cls-2" x="62.4" y="62.9" width="0.5" height="21.08"/><rect class="cls-1" x="65.3" y="61" width="0.5" height="23"/><rect class="cls-2" x="68.2" y="58.2" width="0.5" height="25.8"/><rect class="cls-2" x="71.1" y="55.1" width="0.5" height="28.95"/><rect class="cls-2" x="74" y="55.9" width="0.5" height="28.07"/><rect class="cls-2" x="76.9" y="54.9" width="0.5" height="29.07"/><rect class="cls-2" x="82.8" y="58.8" width="0.5" height="25.21"/><rect class="cls-2" x="85.7" y="67.2" width="0.5" height="16.8"/><rect class="cls-2" x="88.6" y="65.3" width="0.5" height="18.67"/><rect class="cls-2" x="91.5" y="64.1" width="0.5" height="19.89"/><rect class="cls-2" x="94.4" y="57.6" width="0.5" height="26.44"/><rect class="cls-2" x="97.2" y="56.6" width="0.5" height="27.44"/><rect class="cls-2" x="101.6" y="56.4" width="0.5" height="28.02"/><rect class="cls-2" x="103" y="55.8" width="0.5" height="28.19"/><rect class="cls-2" x="105.9" y="57.6" width="0.5" height="26.44"/><rect class="cls-2" x="108.8" y="58.8" width="0.5" height="25.18"/><rect class="cls-2" x="111.7" y="57.1" width="0.5" height="26.93"/><rect class="cls-2" x="114.6" y="63.5" width="0.5" height="20.55"/><rect class="cls-2" x="117.5" y="62.6" width="0.5" height="21.43"/><rect class="cls-2" x="120.4" y="67.7" width="0.5" height="16.35"/><path class="cls-2" d="M79.8,54.1h.5V84h-.5Z"/><polygon class="cls-2" points="16.2 92.8 10.5 85.2 10.5 85.2 10.4 85.2 10.4 93.8 10.8 93.8 10.8 86.4 16.5 94 16.6 94 16.7 94 16.7 85.4 16.2 85.4 16.2 92.8"/><polygon class="cls-2" points="19.5 89.8 23.5 89.8 23.5 89.4 19.5 89.4 19.5 85.9 23.9 85.9 23.9 85.4 19 85.4 19 93.8 24.1 93.8 24.1 93.4 19.5 93.4 19.5 89.8"/><polygon class="cls-2" points="33 92.7 30.4 85.2 30.4 85.2 30.3 85.2 27.7 92.7 25.5 85.4 25.5 85.4 25 85.4 27.6 94 27.6 94 27.8 94 30.4 86.5 33 94 33.1 94 35.7 85.4 35.2 85.4 33 92.7"/><polygon class="cls-2" points="44.2 90.2 40.5 85.3 40.4 85.2 40.3 85.2 40.3 93.8 40.8 93.8 40.8 86.5 44.1 90.9 44.1 90.9 44.2 90.9 47.6 86.5 47.6 93.8 48.1 93.8 48.1 85.2 48 85.2 44.2 90.2"/><polygon class="cls-2" points="50.9 89.8 54.9 89.8 54.9 89.4 50.9 89.4 50.9 85.9 55.3 85.9 55.3 85.4 50.4 85.4 50.4 93.8 55.5 93.8 55.5 93.4 50.9 93.4 50.9 89.8"/><path class="cls-2" d="M59.1,85.4H57.2v8.4h1.9c2.8,0,4.5-1.6,4.5-4.2S61.8,85.4,59.1,85.4Zm0,.5c2.5,0,4,1.4,4,3.7s-1.5,3.8-4,3.8H57.7V85.9Z"/><rect class="cls-1" x="65.3" y="85.4" width="0.5" height="8.42"/><path class="cls-2" d="M71,85.2h-.2l-3.4,8.6h.5l1-2.4h4l1,2.4h.5L71,85.2Zm1.7,5.7H69.1l1.8-4.6Z"/><path class="cls-2" d="M85.5,92a3.9,3.9,0,0,1-3.1,1.5,3.8,3.8,0,0,1-3.8-3.9,3.7,3.7,0,0,1,3.8-3.8,3.7,3.7,0,0,1,2.8,1.3h.1l.4-.3h-.1a4.3,4.3,0,0,0-7.5,2.8,4.1,4.1,0,0,0,4.3,4.3,4.5,4.5,0,0,0,3.5-1.6h0l-.4-.3Z"/><polygon class="cls-2" points="88 89.8 91.9 89.8 91.9 89.4 88 89.4 88 85.9 92.4 85.9 92.4 85.4 87.5 85.4 87.5 93.8 92.5 93.8 92.5 93.4 88 93.4 88 89.8"/><polygon class="cls-2" points="100.1 92.8 94.4 85.2 94.4 85.2 94.3 85.2 94.3 93.8 94.7 93.8 94.7 86.4 100.4 94 100.5 94 100.6 94 100.6 85.4 100.1 85.4 100.1 92.8"/><polygon class="cls-2" points="102 85.9 104.7 85.9 104.7 93.8 105.2 93.8 105.2 85.9 107.8 85.9 107.8 85.4 102 85.4 102 85.9"/><polygon class="cls-2" points="109.8 89.8 113.7 89.8 113.7 89.4 109.8 89.4 109.8 85.9 114.2 85.9 114.2 85.4 109.3 85.4 109.3 93.8 114.3 93.8 114.3 93.4 109.8 93.4 109.8 89.8"/><path class="cls-2" d="M119.1,90.1a2.2,2.2,0,0,0,1.9-2.3,2.4,2.4,0,0,0-2.6-2.4h-2.3v8.4h.5V90.2h2l2.3,3.6h.6Zm-2.5-4.2h1.8a1.9,1.9,0,1,1,0,3.8h-1.8Z"/><path class="cls-3" d="M137.9,94.4h-.1a1.1,1.1,0,0,1-1.1-1.1V83.5a1.1,1.1,0,0,0-1.9-.6,52.5,52.5,0,0,1-6,6.5,1.1,1.1,0,0,1-1.3.1h0a1,1,0,0,1-.1-1.7A49.1,49.1,0,0,0,133,82c.9-1.2,1.8-2.5,2.6-3.8a1,1,0,0,0-.9-1.6h-7.3a1.1,1.1,0,0,1-1.1-1.1h0a1,1,0,0,1,1.1-1h8.3a1,1,0,0,0,1-1.1V70.2a1,1,0,0,0-1-1.1h-8.1a1.1,1.1,0,0,1-1.1-1.1h0a1,1,0,0,1,1.1-1h12a1.1,1.1,0,0,0,.9-.7,52.1,52.1,0,0,0,3.2-7.5A1,1,0,0,1,145,58h.2a1.3,1.3,0,0,1,.7,1.4,52.4,52.4,0,0,1-2.4,5.9,1.2,1.2,0,0,0,1,1.6h3.6a.9.9,0,0,1,1,1h0a1,1,0,0,1-1,1.1h-8a1.1,1.1,0,0,0-1.1,1.1v3.1a1.1,1.1,0,0,0,1.1,1.1h8a.9.9,0,0,1,1,1h0a1,1,0,0,1-1,1.1h-6.6a.6.6,0,0,0-.5,1c2.1,2.2,4.1,4.6,6,7a1.1,1.1,0,0,1-.2,1.5h0a1.1,1.1,0,0,1-1.6-.2c-1.3-1.8-3-3.9-4.8-6a.8.8,0,0,0-1.4.5V93.3A1.1,1.1,0,0,1,137.9,94.4Zm.7-45.1h.1a1.1,1.1,0,0,1,1.1,1.1v2.4a1.1,1.1,0,0,0,1,1.1h7.1a.9.9,0,0,1,1,1h0a1,1,0,0,1-1,1.1H128.1a1.1,1.1,0,0,1-1-1.1h0a1,1,0,0,1,1-1h8.4a1.1,1.1,0,0,0,1-1.1V50.4A1.1,1.1,0,0,1,138.6,49.3Zm-6.2,9.2a36.3,36.3,0,0,1,1.7,6.2,1,1,0,0,1-.8,1.2h-.1a1,1,0,0,1-1.3-.8,44.3,44.3,0,0,0-1.6-5.9,1.1,1.1,0,0,1,.7-1.4h.1A1.1,1.1,0,0,1,132.4,58.5Zm23.4,6.2a1.1,1.1,0,0,0-1.1,1.1v8.7a24.9,24.9,0,0,1-1.6,9,29.5,29.5,0,0,1-5.4,8.7,1,1,0,0,1-1.5.1l-.3-.3a1.1,1.1,0,0,1,0-1.5,26.5,26.5,0,0,0,5.3-8.4,26.9,26.9,0,0,0,1.3-7.6V53.3c-.1-.5.1-.8.5-.8A84.4,84.4,0,0,0,166.9,51a1.1,1.1,0,0,1,1.2.7h0a1.2,1.2,0,0,1-.8,1.5A96.3,96.3,0,0,1,155,54.7c-.2,0-.3.1-.3.4v6.3a1,1,0,0,0,1.1,1h15.1a1,1,0,0,1,1,1.1h0a1,1,0,0,1-1,1.1h-4.8a1.1,1.1,0,0,0-1.1,1.1V93.7a1,1,0,0,1-1,1.1h-.1a1.1,1.1,0,0,1-1.1-1.1V65.8a1.1,1.1,0,0,0-1-1.1Z"/><path class="cls-3" d="M175,76.6a1.5,1.5,0,0,1-.3-1.6,91.9,91.9,0,0,0,3.8-13.8.8.8,0,0,0-.8-.9h-2.8a1.1,1.1,0,0,1-1.1-1.1h0a1.1,1.1,0,0,1,1.1-1.1h3.5a.7.7,0,0,0,.7-.7l.9-5.9a1,1,0,0,1,1.2-.9h.1a1,1,0,0,1,.9,1.2l-.8,5.4a.8.8,0,0,0,.8.9h6.2c.3,0,.5.2.4.7h0c-.3,8.7-1.7,16.2-4.4,22.5a.8.8,0,0,0,.2.8l3.1,2.6a1.1,1.1,0,0,1,.1,1.5h0a1,1,0,0,1-1.6.2l-2.3-1.9a.7.7,0,0,0-1.1.1,42.1,42.1,0,0,1-6.7,8.3,1.2,1.2,0,0,1-1.4.1h0a1,1,0,0,1-.1-1.7,38.6,38.6,0,0,0,4.9-5.4h0l1.8-2.9a.8.8,0,0,0-.2-.9Zm10.8-16.3h-4.3a.7.7,0,0,0-.7.6,125.8,125.8,0,0,1-3.7,14.2c-.1.2,0,.5.4.7l5.1,4.6.3-.8a52.7,52.7,0,0,0,2.5-8.3,87,87,0,0,0,1.2-10.2A.8.8,0,0,0,185.8,60.3Zm3.3,16.3h0a1.1,1.1,0,0,1,1.1-1.1h11.5a.9.9,0,0,0,.8-.8V71.6a.9.9,0,0,0-.8-.8h-7.2a1,1,0,0,1-1.1-1.1V56.8a.7.7,0,0,0-.7-.7h-3.1a1.1,1.1,0,0,1-1.1-1.1h0a1,1,0,0,1,1.1-1.1h3.1a.8.8,0,0,0,.7-.8V50.7a1.1,1.1,0,0,1,1.2-1.1h0a1.1,1.1,0,0,1,1.1,1.1v2.4a.8.8,0,0,0,.8.8h13.8a.9.9,0,0,0,.8-.8V50.7a1,1,0,0,1,1.1-1.1h0a1.1,1.1,0,0,1,1.1,1.1v2.4a.8.8,0,0,0,.8.8h3.3a1,1,0,0,1,1.1,1.1h0a1.1,1.1,0,0,1-1.1,1.1h-3.3a.7.7,0,0,0-.8.7V68.9a1.8,1.8,0,0,1-1.9,1.9h-6a.8.8,0,0,0-.7.8v3.1a.8.8,0,0,0,.7.8h11.8a1.1,1.1,0,0,1,1.1,1.1h0a1.1,1.1,0,0,1-1.1,1.1H207a.7.7,0,0,0-.6,1.2,45.3,45.3,0,0,0,11.7,10.8,1.1,1.1,0,0,1,.1,1.7h0a1.2,1.2,0,0,1-1.4.1c-3.8-2.6-6.9-5.9-10.2-9-1.4-1.3-1.9-.3-1.9.7V93.7a1.1,1.1,0,0,1-1.1,1.1h0a1.1,1.1,0,0,1-1.1-1.1V81.2a.4.4,0,0,0-.7-.2,47.6,47.6,0,0,1-13.2,11.1,1.1,1.1,0,0,1-1.3-.3h-.1a1.2,1.2,0,0,1,.3-1.7,48.4,48.4,0,0,0,13.2-11,.8.8,0,0,0-.6-1.3h-9.9A1.1,1.1,0,0,1,189.1,76.6Zm21.2-20.5H196.5a.7.7,0,0,0-.8.7v3.8a.7.7,0,0,0,.8.7h13.8a.8.8,0,0,0,.8-.7V56.8A.8.8,0,0,0,210.3,56.1ZM195.7,67.4a1.2,1.2,0,0,0,1.2,1.2h13a1.2,1.2,0,0,0,1.2-1.2V64.3a.8.8,0,0,0-.8-.7H196.5a.7.7,0,0,0-.8.7Z"/><path class="cls-3" d="M224.5,53a1.8,1.8,0,0,1,1.8-1.8h9.8a1.8,1.8,0,0,1,1.9,1.9v9.6a1.1,1.1,0,0,0,1.1,1.1h.8c.3,0,.4.3.4.7a42.6,42.6,0,0,1-.6,5,1.1,1.1,0,0,1-1.3.9h-.2a1,1,0,0,1-.8-1.1l.2-2.8q.2-.3-.3-.3H226.1a1.3,1.3,0,0,0-1.3,1.3v2a1.1,1.1,0,0,1-1.1,1.1h-.1a1,1,0,0,1-1-1.1V64.2a.4.4,0,0,1,.4-.4h1.5Zm2.3,41h-.1a1.1,1.1,0,0,1-1.1-1.1V71.5a1.6,1.6,0,0,1,1.6-1.6h9.5c.4,0,.6.2.6.5V91.6a2.5,2.5,0,0,1-1.1,2.1,5.5,5.5,0,0,1-3.7.1,1.1,1.1,0,0,1-.9-1h0a1.1,1.1,0,0,1,1.4-1c.7.1,1.2.2,1.4,0a1.1,1.1,0,0,0,.6-1V86.9a1.1,1.1,0,0,0-1.1-1.1H229a1.1,1.1,0,0,0-1.1,1.1v6A1.1,1.1,0,0,1,226.8,94Zm2-30.2a1.1,1.1,0,0,0,1.1-1.1V57c0-.3.1-.5.4-.5h4.4a1.1,1.1,0,0,0,1.1-1.1v-.6a1.5,1.5,0,0,0-1.4-1.4h-6.2a1.5,1.5,0,0,0-1.5,1.4v7.9a1.1,1.1,0,0,0,1.1,1.1Zm5.1,13a1.1,1.1,0,0,0,1.1-1.1V72.3h-7.1v3.4a1.1,1.1,0,0,0,1.1,1.1Zm1.1,5.6V80.2a1,1,0,0,0-1.1-1.1H229a1,1,0,0,0-1.1,1.1v2.2a1.1,1.1,0,0,0,1.1,1.1h4.9A1.1,1.1,0,0,0,235,82.4Zm.8-19.7V59.9a1,1,0,0,0-1.1-1.1h-1.2a1.4,1.4,0,0,0-1.4,1.4v2.5a1.1,1.1,0,0,0,1.1,1.1h1.5A1.1,1.1,0,0,0,235.8,62.7Zm11,23.5a.9.9,0,0,0-.9-.6h-2.4c-.2,0-.3-.1-.3-.4V78.4a1.4,1.4,0,0,1,1.4-1.4h18.8a.3.3,0,0,1,.3.3v6.8a1.5,1.5,0,0,1-1.4,1.5h-.8a1.2,1.2,0,0,0-1.1.7l-.8,2.3-.4,1.1a1.1,1.1,0,0,0,1,1.5h4.7a1.1,1.1,0,0,1,1.1,1.1h0a1.1,1.1,0,0,1-1.1,1.1h-23a1.1,1.1,0,0,1-1.1-1.1h0a1.1,1.1,0,0,1,1.1-1.1h5.4a1.1,1.1,0,0,0,1-1.5A25.9,25.9,0,0,0,246.8,86.2Zm19.4-13.6h0a1.1,1.1,0,0,1-1.1,1.1h-23a1.1,1.1,0,0,1-1.1-1.1h0a1,1,0,0,1,1.1-1.1h23A1,1,0,0,1,266.2,72.6Zm-2.6-19.5a1.4,1.4,0,0,1,1.4,1.4V67.8c0,.3-.1.4-.3.4H242.6c-.2,0-.3-.1-.3-.4V54.5a1.4,1.4,0,0,1,1.4-1.4h4.2A1.1,1.1,0,0,0,249,52v-.8a1.1,1.1,0,0,1,1.1-1.1h0a1.1,1.1,0,0,1,1.1,1.1V52a1.1,1.1,0,0,0,1.1,1.1h2.1a1.1,1.1,0,0,0,1.1-1.1v-.8a1.1,1.1,0,0,1,1.1-1.1h.1a1.1,1.1,0,0,1,1.1,1.1V52a1,1,0,0,0,1.1,1.1ZM249,56.4a1.1,1.1,0,0,0-1.1-1.1h-3.4v2.9a1.1,1.1,0,0,0,1.1,1.1h2.3a1.1,1.1,0,0,0,1.1-1.1Zm-1.1,5.3h-2.3a1,1,0,0,0-1.1,1v3.1h3.4a1.1,1.1,0,0,0,1.1-1.1V62.7A1,1,0,0,0,247.9,61.7Zm-2.3,17.6h-.1v3.8h15.9V79.4H245.6Zm10.9,11.2,1.3-3.4a1.1,1.1,0,0,0-1-1.5h-6.3a1.1,1.1,0,0,0-1,1.5l1.4,3.4a1.2,1.2,0,0,0,1,.7h3.6A1.2,1.2,0,0,0,256.5,90.5Zm-2.1-35.2h-2.1a1.1,1.1,0,0,0-1.1,1.1v1.9a1.1,1.1,0,0,0,1.1,1.1h2.1a1.1,1.1,0,0,0,1.1-1.1V56.4A1.1,1.1,0,0,0,254.4,55.3Zm0,6.4h-2.1a1,1,0,0,0-1.1,1v2.1a1.1,1.1,0,0,0,1.1,1.1h2.1a1.1,1.1,0,0,0,1.1-1.1V62.7A1,1,0,0,0,254.4,61.7Zm4.5-2.3h2.8a1.1,1.1,0,0,0,1.1-1.1V55.4h-3.9a1,1,0,0,0-1.1,1.1v1.9A1,1,0,0,0,258.9,59.4Zm-1.1,5.4a1,1,0,0,0,1.1,1.1h3.9V62.7a1,1,0,0,0-1.1-1h-2.8a1,1,0,0,0-1.1,1Z"/><path class="cls-3" d="M272.5,84.5h0a1.2,1.2,0,0,1-1.2-1.3V60.7a2,2,0,0,1,2-2.1h15.1a1.2,1.2,0,0,0,1.3-1.2V51.7a1.2,1.2,0,0,1,1.2-1.2h0a1.2,1.2,0,0,1,1.2,1.2v5.7a1.2,1.2,0,0,0,1.3,1.2H310c.6,0,.9.3.9.8V83.2a1.2,1.2,0,0,1-1.2,1.3h0a1.2,1.2,0,0,1-1.2-1.3V82a1.2,1.2,0,0,0-1.3-1.2H293.4a1.2,1.2,0,0,0-1.3,1.2V93.4a1.2,1.2,0,0,1-1.2,1.2h0a1.2,1.2,0,0,1-1.2-1.2V82a1.2,1.2,0,0,0-1.3-1.2H275a1.2,1.2,0,0,0-1.3,1.2v1.2A1.2,1.2,0,0,1,272.5,84.5Zm17.2-7.2V62.1a1.2,1.2,0,0,0-1.3-1.2H274.1c-.3,0-.4.1-.4.3V77.3a1.3,1.3,0,0,0,1.3,1.3h13.4A1.3,1.3,0,0,0,289.7,77.3Zm18.8,0V62.5a1.7,1.7,0,0,0-1.7-1.6H293.4a1.2,1.2,0,0,0-1.3,1.2V77.3a1.3,1.3,0,0,0,1.3,1.3h13.8A1.3,1.3,0,0,0,308.5,77.3Z"/><path class="cls-3" d="M321.7,59.1A141.9,141.9,0,0,1,318,87.5a1.1,1.1,0,0,1-1.3.9h-.2a1.2,1.2,0,0,1-1-1.4,160.3,160.3,0,0,0,3.8-28,1,1,0,0,1,1.2-1h.2A1.1,1.1,0,0,1,321.7,59.1Zm7.3-6.3a1.1,1.1,0,0,1,1.1,1.1V89c0,.6,0,.9.2,1.1s.6.4,1.2.4h16.1a1.8,1.8,0,0,0,1.5-.6c.7-1,1.1-4.3,1.2-9.6a1.1,1.1,0,0,1,1.3-1.1h0a1.2,1.2,0,0,1,.9,1.1c.1,6.4-.4,10.3-1.4,11.5a3.8,3.8,0,0,1-2.8,1H330.6a3.4,3.4,0,0,1-1.6-.4,3.2,3.2,0,0,1-1.1-3V53.9a1.1,1.1,0,0,1,1.1-1.1Zm10-1.6A141.7,141.7,0,0,1,343.6,77a1.2,1.2,0,0,1-1,1.2h-.2a1.1,1.1,0,0,1-1.3-1c-1.1-10.5-2.6-19-4.5-25.4a1.1,1.1,0,0,1,.8-1.4h.2A1.2,1.2,0,0,1,339,51.2Zm15.1,5.7a158.7,158.7,0,0,1,6,29.2,1.3,1.3,0,0,1-1,1.3h-.2a1.1,1.1,0,0,1-1.3-.9,166.2,166.2,0,0,0-5.8-28.8,1,1,0,0,1,.8-1.4h.2A1.1,1.1,0,0,1,354.1,56.9Z"/></svg>