<svg id="logo_聯合新聞網" xmlns="http://www.w3.org/2000/svg" viewBox="0 0 370 146.5"><defs><style>.cls-1{fill:#f46c00;}.cls-2{fill:#fff;}.cls-3{fill:#001655;}</style></defs><title>udn_logo</title><path class="cls-1" d="M80.7,41.1c-1.4-.1-11.7-.2-27.5-.2s-26,.1-27.4.2a4.8,4.8,0,0,0-3.4,1.3,4.9,4.9,0,0,0-1.3,3.2C21,47,21,57.4,21,73.2s0,26.2.1,27.6a5.2,5.2,0,0,0,1.3,3.3,5.2,5.2,0,0,0,3.4,1.2c1.4.2,11.6.3,27.4.3s26.1-.1,27.5-.3a4.3,4.3,0,0,0,4.7-4.5c.1-1.4.1-11.8.1-27.6s0-26.2-.1-27.6a4.9,4.9,0,0,0-1.3-3.2A4.8,4.8,0,0,0,80.7,41.1Z"/><path class="cls-2" d="M64.8,55.4c-2.4-.2-5.8-.2-11.6-.2s-9.1,0-11.5.2a9.5,9.5,0,0,0-6.2,2.2A9.1,9.1,0,0,0,32.7,64V80.9a9.1,9.1,0,0,0,2.8,6.4,10.1,10.1,0,0,0,6.2,2.3c2.4.1,5.7.2,11.5.2s9.2-.1,11.6-.2A10.4,10.4,0,0,0,71,87.3a9.1,9.1,0,0,0,2.8-6.4V64A9.1,9.1,0,0,0,71,57.6,9.7,9.7,0,0,0,64.8,55.4Z"/><path d="M61.5,62.5H59.8V74.7h1.7a1.9,1.9,0,0,0,2-2.1V64.7C63.5,63.5,63,62.5,61.5,62.5Z"/><path d="M49.4,80.8c.2,2,1.2,3.7,3.9,3.7s3.6-1.7,3.8-3.7Z"/><path d="M46.9,72.7c0,1.1-.5,2.1-1.9,2.1s-1.8-1-1.8-2.1V62.5h3.7Z"/><path class="cls-3" d="M304.4,83.9c.2-1.1.4-3,.7-5.4l3.9.3q-.3,3.9-.6,6a51.8,51.8,0,0,1-1.5,6.2l-4.2-.5C303.6,87.3,304.2,85.1,304.4,83.9Zm15.8-26.7A96.3,96.3,0,0,1,311.7,71l5.2-.4-.9-3,3.4-.5a53.1,53.1,0,0,1,2.6,8l-4.2.5a7.8,7.8,0,0,0-.2-1.4l-2.8.2V94.9h-4.1V74.8l-6.8.5-.3-3.7,2.7-.2,3.6-4.9a56.4,56.4,0,0,0-6.4-6.5l2.3-3.4a6,6,0,0,0,.8.8,57.3,57.3,0,0,0,4.5-7.5l3.6,1.6a96.1,96.1,0,0,1-5.3,8.7q1.4,1.3,2.7,3c1.5-2.5,2.9-5,4.2-7.7Zm-2.9,30.3c0-2.6-.2-5.6-.5-9h3.5q.6,6.4.6,9Zm5.4,7.4V51.6H349V90.4c0,3.3-1.6,5-4.9,5h-.7a3.8,3.8,0,0,1-3.9-3.3l-.2-.9h3.5a1.9,1.9,0,0,0,2.1-2.2V55.6h-18V94.9Zm20.8-19.6h-9.2v7.4a.7.7,0,0,0,.7.8h7.5v4H333c-1.9,0-2.8-1-2.8-2.9V75.3h-1.8V71.7h5.7V67.3h-5.7V63.7h2.5L329.1,58l3.9-.6,1.9,6.3h2.3l2.1-6.1,4,.5-2.1,5.6h2.3v3.6H338v4.4h5.5Z"/><path class="cls-3" d="M213.6,82.3V94.9h-4.1V83.2a11.3,11.3,0,0,1-1,1.3,61.4,61.4,0,0,1-6.8,6.9l-2.9-2.9a49.3,49.3,0,0,0,6.5-6.3,40.7,40.7,0,0,0,3.3-4.8h-8.3v-4h9.2V69.2h-8v-4h3.4l-1.7-6.9h-2.5v-4h8.8V50.1h4.1v4.2h8.6v4h-2.3l-1.8,6.9h3.1v4h-7.6v4.2h8.6v4h-8.6v.2a41.9,41.9,0,0,0,7.3,5.9l-1.7,3.9A43.1,43.1,0,0,1,213.6,82.3Zm2.1-24h-8.2l1.6,6.9H214Zm20.4,36.8V69.6h-7.4V70a84.2,84.2,0,0,1-1,14.3A32.3,32.3,0,0,1,223.9,95L220,93.1a33.4,33.4,0,0,0,3.7-10.3,78.4,78.4,0,0,0,.9-12.8V53.2A96.1,96.1,0,0,0,241.8,50l2.2,3.4a117.3,117.3,0,0,1-15.3,3.2v9h17.1v4h-5.6V91.1a3.9,3.9,0,0,1-3.9,4Z"/><path class="cls-3" d="M253.3,94.9V51.1h18.9V67.4H257.5V94.9Zm4.2-37.3H268V54.5H257.5ZM268,61.1H257.5v3H268Zm-6.4,8.7h26.6v3.4h-3.4V86.8l3.4-.3.3,3.1-3.7.5V94h-4.1V90.5c-6.2.6-12.9,1-19.9,1.3l-.2-3.5,4.2-.2V73.2h-3.2Zm19.1,3.4H269v3h11.7Zm0,6H269v2.7h11.7Zm0,5.7H269v3l11.7-.7Zm15.8-33.8V91.4c0,2.6-1.2,4-3.8,4H291a4,4,0,0,1-3.9-3.3l-.2-.9H291c1,0,1.4-.5,1.4-1.5V67.4H277.7V51.1Zm-14.6,6.5h10.5V54.5H281.9Zm10.5,3.5H281.9v3h10.5Z"/><path class="cls-3" d="M110.7,55.6V94.9h-4.1V86.8c-3.3,1-6.8,1.9-10.6,2.8l-.9-4,2.4-.5V55.6H96.4v-4h15.8v4Zm-9,0v6.7h4.9V55.6Zm0,10.3v6.5h4.9V65.9Zm0,10.1v8.1l4.9-1.2V76Zm24.7-19.1a50.1,50.1,0,0,1-7.2,10.7l3.3-.4-.6-2.1,3.2-.5a33.6,33.6,0,0,1,2,6.4l-3.5.5a4.4,4.4,0,0,1-.2-1l-10.1,1.2a19.1,19.1,0,0,0-.6-3.3l2-.3,3.7-4.7a45.7,45.7,0,0,0-5.7-5.9l2-3,1,.9a38.7,38.7,0,0,0,3.4-5.5l3.2,1.5a60.8,60.8,0,0,1-4,6.6l2.1,2.4a60.3,60.3,0,0,0,3.1-5.3Zm-.6,16.2v5.7a23.2,23.2,0,0,1-1.8,9.6c-1.2,2.6-3.5,5-6.8,7.2l-3.1-3c3-1.9,5.4-4.3,6.4-7H114V73.7h4.2V82h3.3a16.2,16.2,0,0,0,.2-3.2V73.1Zm12.8-2.6L128,72a21.4,21.4,0,0,0-.6-3.5l1.9-.2,3.5-4.5a51,51,0,0,0-5.8-6.3l2-2.9,1,.8a36.5,36.5,0,0,0,3.2-5.4l3.3,1.4a72.3,72.3,0,0,1-4,6.6l2.3,2.7a58.9,58.9,0,0,0,2.9-5.5l3,1.7a58.2,58.2,0,0,1-6.8,10.8l3.6-.5a18,18,0,0,0-.8-2.1l3.1-.9a42.8,42.8,0,0,1,2.6,6.6l-3.5.8Zm2.1,3.2V86.1h-7.6v5.4a3.9,3.9,0,0,1-4,3.9h-.2V73.1h4.2v9.3h3.5V73.7Z"/><path class="cls-3" d="M146.9,67.3c10.6-5.8,18-11.6,22.1-17.6h3.9c3.7,6,11,11.7,21.8,17.2l-2.5,3.7a81.1,81.1,0,0,1-8.4-5v3.8H158.1V65.5a76,76,0,0,1-8.8,5.3Zm6.3,7.5h36V91a3.9,3.9,0,0,1-4,4H185V93H157.3v1.9h-4.1Zm31.8,4H157.3V89H185Zm-14-25a71.6,71.6,0,0,1-12.7,11.6h25.1C178.1,61.7,173.9,57.9,171,53.8Z"/></svg>