<svg xmlns="http://www.w3.org/2000/svg" width="60.484" height="104.696" viewBox="0 0 60.484 104.696">
  <defs>
    <style>
      .cls-1, .cls-3, .cls-8 {
        fill: none;
      }

      .cls-2 {
        fill: #582e8c;
      }

      .cls-2, .cls-3 {
        stroke: #fff;
      }

      .cls-4, .cls-5, .cls-7 {
        fill: #fff;
      }

      .cls-4 {
        font-size: 22px;
        font-family: MicrosoftJhengHeiRegular, Microsoft JhengHei;
      }

      .cls-5 {
        stroke: #9b9b9b;
        stroke-width: 0.5px;
      }

      .cls-6, .cls-7 {
        stroke: none;
      }
    </style>
  </defs>
  <g id="Group_1639" data-name="Group 1639" transform="translate(-589.758 -315.273)">
    <g id="Path_1120" data-name="Path 1120" class="cls-1" transform="translate(589.758 366.199)">
      <path class="cls-6" d="M6.394-3.667h47.4c1.942,0,6.693,4.153,6.693,6.1V50.254a3.517,3.517,0,0,1-3.517,3.517H3.517A3.517,3.517,0,0,1,0,50.254V2.429C0,.487,4.452-3.667,6.394-3.667Z"/>
      <path class="cls-7" d="M 6.394317626953125 -2.666507720947266 C 5.874126434326172 -2.666507720947266 4.562255859375 -1.949375152587891 3.155635833740234 -0.6203346252441406 C 1.585227966308594 0.86346435546875 0.9999961853027344 2.037322998046875 0.9999961853027344 2.428703308105469 L 0.9999961853027344 50.25355529785156 C 0.9999961853027344 51.64117431640625 2.12890625 52.77009582519531 3.516529083251953 52.77009582519531 L 56.96783828735352 52.77009582519531 C 58.3554573059082 52.77009582519531 59.48437881469727 51.64117431640625 59.48437881469727 50.25355529785156 L 59.48437881469727 2.428703308105469 C 59.48437881469727 2.019962310791016 58.77533721923828 0.8093757629394531 57.19900894165039 -0.6022453308105469 C 55.60905838012695 -2.026065826416016 54.24912643432617 -2.666507720947266 53.79128646850586 -2.666507720947266 L 6.394317626953125 -2.666507720947266 M 6.394317626953125 -3.666507720947266 L 53.79128646850586 -3.666507720947266 C 55.73340606689453 -3.666507720947266 60.48437881469727 0.486572265625 60.48437881469727 2.428703308105469 L 60.48437881469727 50.25355529785156 C 60.48437881469727 52.19568252563477 58.90996932983398 53.77009582519531 56.96783828735352 53.77009582519531 L 3.516529083251953 53.77009582519531 C 1.574405670166016 53.77009582519531 -3.814697265625e-06 52.19568252563477 -3.814697265625e-06 50.25355529785156 L -3.814697265625e-06 2.428703308105469 C -3.814697265625e-06 0.486572265625 4.452198028564453 -3.666507720947266 6.394317626953125 -3.666507720947266 Z"/>
    </g>
    <g id="Rectangle_582" data-name="Rectangle 582" class="cls-2" transform="translate(594 362)">
      <rect class="cls-6" width="52" height="54" rx="5"/>
      <rect class="cls-8" x="0.5" y="0.5" width="51" height="53" rx="4.5"/>
    </g>
    <g id="Group_1489" data-name="Group 1489" transform="translate(590.08 412.816)">
      <path id="Path_1117" data-name="Path 1117" class="cls-3" d="M4920.5,6103.935l-2.042,4.729" transform="translate(-4914.17 -6101.897)"/>
      <path id="Path_1118" data-name="Path 1118" class="cls-3" d="M4927.249,6100.83l-4.9,2.375" transform="translate(-4922.348 -6100.672)"/>
    </g>
    <g id="Group_1638" data-name="Group 1638" transform="translate(643.08 412.973)">
      <path id="Path_1117-2" data-name="Path 1117" class="cls-3" d="M4918.459,6103.935l2.042,4.724" transform="translate(-4918.459 -6102.055)"/>
      <path id="Path_1118-2" data-name="Path 1118" class="cls-3" d="M4922.348,6100.83l5.091,2.375" transform="translate(-4920.918 -6100.83)"/>
    </g>
    <text id="Esc" class="cls-4" transform="translate(603 389)"><tspan x="0" y="0">Esc</tspan></text>
    <path id="Path_749" data-name="Path 749" class="cls-5" d="M22.733,15.924l-7.325-3.646a2.272,2.272,0,0,0-.871-.177H13.311V2.42a2.42,2.42,0,0,0-4.84,0V19.748L2.936,18.587a2.819,2.819,0,0,0-.387-.048,1.8,1.8,0,0,0-1.275.532L0,20.361l7.97,7.97a2.429,2.429,0,0,0,1.71.71H20.636a2.35,2.35,0,0,0,2.323-2.065l1.21-8.5a2.319,2.319,0,0,0-1.436-2.549Z" transform="translate(632.444 344.565) rotate(180)"/>
  </g>
</svg>
