<svg xmlns="http://www.w3.org/2000/svg" width="61.492" height="94.746" viewBox="0 0 61.492 94.746">
  <defs>
    <style>
      .cls-1 {
        fill: #727272;
      }

      .cls-2 {
        fill: #f1b3b3;
        opacity: 0.53;
      }

      .cls-3 {
        fill: #fff;
      }
    </style>
  </defs>
  <g id="Group_1700" data-name="Group 1700" transform="translate(-176.66 -341)">
    <g id="è¯logo" transform="translate(176.66 374.254)">
      <path id="Path_736" data-name="Path 736" class="cls-1" d="M87.478,146.972a1.917,1.917,0,0,0-.4-1.909c-.33-.212-.919-1.037-1.673-.377s-.99,1.226-1.461,1.414a10.492,10.492,0,0,0-1.084.542,1.179,1.179,0,0,0-.825,1.579,11.16,11.16,0,0,0,2.593,2.97c.636.424,1.768-.259,2-1.108A18.777,18.777,0,0,1,87.478,146.972Z" transform="translate(-63.956 -111.05)"/>
      <path id="Path_737" data-name="Path 737" class="cls-1" d="M71.773,224.353a46.021,46.021,0,0,0-4.973,4.5,30.682,30.682,0,0,0,3.677,1.98,24.945,24.945,0,0,0,3.111-4.078C74.46,224.918,72.716,223.81,71.773,224.353Z" transform="translate(-52.376 -172.025)"/>
      <path id="Path_738" data-name="Path 738" class="cls-1" d="M37.233,179.981c-1.178-1.013-1.2-1.3-2.333-.636s-1.084.377-1.367.636-3.677,3.583-4.29,4.172L27.9,185.4a30.893,30.893,0,0,0,2.027,2.664c.919-.966,2.05-2.074,2.687-2.664a13.351,13.351,0,0,1,2.616-2.216,3.51,3.51,0,0,0,1.673-.919C37.775,181.561,38.412,181.019,37.233,179.981Z" transform="translate(-22.644 -137.46)"/>
      <path id="Path_739" data-name="Path 739" class="cls-1" d="M19.934,155.77c-.636.495-4.9,4.431-5.8,5.209l-.236.189a30.6,30.6,0,0,0,1.579,3.512c.424-.495.825-.966,1.131-1.273.683-.66,3.512-3.418,4.572-4.266s1.3-1.414.848-2.286S20.57,155.275,19.934,155.77Z" transform="translate(-11.944 -119.589)"/>
      <path id="Path_740" data-name="Path 740" class="cls-1" d="M142.489,78.842c.118-.519-.542-1.367-1.108-1.014s-1.579,1.509-2.545,2.357-1.956,1.65-1.956,1.65a18.807,18.807,0,0,0-1.744,2.381c-.33.519-.354.872.189,1.108s2.687-.094,3.983.754,2.027,1.014,2.5.731.33-1.061.094-1.839a11.435,11.435,0,0,1,.354-4.054A11.907,11.907,0,0,0,142.489,78.842Z" transform="translate(-104.425 -60.08)"/>
      <path id="Path_741" data-name="Path 741" class="cls-1" d="M52.8,197.38a2.01,2.01,0,0,0-2.263-1.626c-.919.236-1.65,1.509-1.65,1.509s-2.121,1.933-3.347,2.994L43,202.542a30.952,30.952,0,0,0,2.593,2.357,29.605,29.605,0,0,1,2.239-2.428c.613-.542,2.734-2.616,3.3-2.946S53.087,198.535,52.8,197.38Z" transform="translate(-34.185 -150.238)"/>
      <path id="Path_742" data-name="Path 742" class="cls-1" d="M207.739,30.7c-.4.354-1.768,1.485-1.933,1.7s-.919.731.377,1.509a6.581,6.581,0,0,0,3.677.966,11.879,11.879,0,0,1,3.465.778,30.946,30.946,0,0,0-5.35-5.351,1.2,1.2,0,0,1-.236.4Z" transform="translate(-158.339 -23.818)"/>
      <path id="Path_743" data-name="Path 743" class="cls-1" d="M10.408,34.809c2.875-2.5,2.758-2.616,4.6-3.583s2.687-.165,3.912.754,1.556.707,2.239.024.33-1.485.448-2.569.118-4.078.33-5.539.024-2.074,1.3-3.206,2.9-.9,4.737-.8a14.5,14.5,0,0,1,4.808,1.532A10.066,10.066,0,0,0,35.2,22.576a1.574,1.574,0,0,0,1.556-1.061c.094-.354-.118-2.074,0-2.687s.094-3.63.118-4.148c.283-4.1.377-5.091,1.131-7.213.589-1.7.778-2.027,1.508-2S42.7,5.227,44.889,5.3a42.2,42.2,0,0,1,5.421.849A30.787,30.787,0,0,0,6,38.557C8.169,36.765,10.2,35,10.408,34.809Z" transform="translate(-5.6 -2.8)"/>
      <path id="Path_744" data-name="Path 744" class="cls-1" d="M181.32,63.387a.864.864,0,0,0,1.391.212c.613-.519,2.616-2.5,3.087-2.852s1.013-.8.542-1.32a9.948,9.948,0,0,0-2.616-1.956c-.471-.071-.966-.377-1.414.094s-1.7,1.556-1.7,1.556a2.988,2.988,0,0,0-.589,1.933A6.679,6.679,0,0,0,181.32,63.387Z" transform="translate(-138.896 -44.46)"/>
      <path id="Path_745" data-name="Path 745" class="cls-1" d="M135.805,77.933a4.159,4.159,0,0,1-2.522-1.179,13.663,13.663,0,0,1-2.05-3.229c-.566-1.108-2.074-2.216-2.357-2.97s.377-.542,1.155-.519l1.037-.259c.495-.165,1.862-.707,2.71-1.108a10.133,10.133,0,0,0,2.357-1.367l1.084-.849A30.686,30.686,0,0,0,135,62.4h0c-.377.613-2.781,1.579-3.158,1.839a28.215,28.215,0,0,1-2.168,1.815,14.963,14.963,0,0,1-2.475,1.3c-1.556,1.131-2.215,2.239-3.889,3.818-.566.542-1.343,1.179-1.791,1.7s-.495,1.2-1.414,1.909c-.259.212-.424.566-.66.754a10.239,10.239,0,0,0-.99.66c-.33.306-1.226.118-1.485.354a1.633,1.633,0,0,0-.613,1.721c0,.519-.8.919-.943,1.249s-.354,1.155-.047,1.532.848,1.391,1.65,1.744a13.8,13.8,0,0,1,2.9,2.286c.99.919,1.084,1.391.825,2.97s-2.027,2.051-3.323,1.7-1.7-1.933-1.862-3.253a22.6,22.6,0,0,0-1.32-4.361,1.117,1.117,0,0,0-1.768-.566,42.861,42.861,0,0,0-4.572,4.408,2.217,2.217,0,0,0-.518,2.569c.189.684,1.084,1.249,1.508,1.65a10.564,10.564,0,0,0,2.946,1.249c.754.189,1.673.471,1.744,1.108a5.834,5.834,0,0,1-1.273,3.653c-.99,1.061-3.182.66-4.313-.141s-.306-2-.141-2.687a2.322,2.322,0,0,0-.33-1.485,3.9,3.9,0,0,0-1.084-2.734c-.566-.636-.943-.306-1.367.047a11.021,11.021,0,0,0-2.192,3.323c-.094.731,1.838,3.3,1.838,3.3,2.758,4.667.471,7.142-1.532,9.923-.66.919-1.461,1.956-2.286,2.97a30.782,30.782,0,0,0,38.653-34.461C138.657,76.731,136.8,78,135.805,77.933Zm-8.2,6.812c-2.1.849-3.111-1.108-3.606-2.1s-1.721-2.616-2.121-3.394a6.083,6.083,0,0,1,0-3.253c.189-.99.731-.707,1.131-.495a19.491,19.491,0,0,1,2.027.707c1.108.471,3.229,2.8,4.172,4.526S129.7,83.92,127.6,84.745Z" transform="translate(-78.439 -48.352)"/>
      <path id="Path_746" data-name="Path 746" class="cls-1" d="M159.943,32.417A22.758,22.758,0,0,0,158.01,30.7a2.278,2.278,0,0,0-1.579-.024l-1.556,1.061A4.29,4.29,0,0,0,153.65,33.5a3.139,3.139,0,0,0,.613,2.169c.377.613.872,1.721,1.98,1.108a28.018,28.018,0,0,0,3.606-3.088C160.273,33.313,160.461,32.841,159.943,32.417Z" transform="translate(-118.721 -24.002)"/>
      <path id="Path_747" data-name="Path 747" class="cls-1" d="M114.551,124.007c.236.212,1.084.825,2.239-.33s1.6-1.744,2.121-2.286,1.3-1.414.9-2.216-1.3-1.98-2.616-1.391a11.053,11.053,0,0,0-2.475,1.461l-.636.566a2.559,2.559,0,0,0-.636,2.522A2.669,2.669,0,0,0,114.551,124.007Z" transform="translate(-87.942 -90.559)"/>
      <path id="Path_748" data-name="Path 748" class="cls-1" d="M94.78,99.74c.731-.778.4-1.131-.165-1.98s-1.7-.966-3.347-.825a3.26,3.26,0,0,0-2.616,2.286,5.378,5.378,0,0,0-.377,1.744,4.585,4.585,0,0,0,1.838,2.357c.8.424,1.485-.094,2.263-1.131A26.538,26.538,0,0,1,94.78,99.74Z" transform="translate(-68.784 -74.708)"/>
    </g>
    <circle id="Ellipse_385" data-name="Ellipse 385" class="cls-2" cx="15" cy="15" r="15" transform="translate(193 375)"/>
    <g id="Group_1699" data-name="Group 1699">
      <circle id="Ellipse_386" data-name="Ellipse 386" class="cls-2" cx="13" cy="13" r="13" transform="translate(195 377)"/>
      <path id="Path_749" data-name="Path 749" class="cls-3" d="M39.208,27.465,26.574,21.176a3.919,3.919,0,0,0-1.5-.306H22.957V4.174a4.174,4.174,0,0,0-8.348,0V34.06l-9.545-2a4.862,4.862,0,0,0-.668-.083,3.113,3.113,0,0,0-2.2.918L0,35.117,13.746,48.863a4.189,4.189,0,0,0,2.95,1.224H35.59A4.053,4.053,0,0,0,39.6,46.526l2.087-14.665a4,4,0,0,0-2.477-4.4Z" transform="translate(226.213 391.088) rotate(180)"/>
    </g>
  </g>
</svg>
