<?xml version="1.0" encoding="utf-8"?>
<!-- Generator: Adobe Illustrator 23.0.6, SVG Export Plug-In . SVG Version: 6.00 Build 0)  -->
<svg version="1.1" xmlns="http://www.w3.org/2000/svg" xmlns:xlink="http://www.w3.org/1999/xlink" x="0px" y="0px"
	 viewBox="0 0 61.5 94.8" style="enable-background:new 0 0 61.5 94.8;" xml:space="preserve">
<style type="text/css">
	.st0{fill:#727272;}
	.st1{opacity:0.53;fill:#F1B3B3;enable-background:new    ;}
	.st2{fill:#FFFFFF;}
</style>
<g id="logo">
	<g id="è¯logo" transform="translate(0 33.254)">
		<path id="Path_736" class="st0" d="M23.5,35.9c0.2-0.7,0.1-1.4-0.4-1.9c-0.3-0.2-0.9-1-1.7-0.4s-1,1.2-1.5,1.4
			c-0.4,0.2-0.7,0.3-1.1,0.5c-0.6,0.2-1,0.8-0.9,1.4c0,0.1,0,0.1,0.1,0.2c0.7,1.1,1.6,2.1,2.6,3c0.6,0.4,1.8-0.3,2-1.1
			C22.9,38,23.2,36.9,23.5,35.9z"/>
		<path id="Path_737" class="st0" d="M19.4,52.3c-1.8,1.4-3.4,2.9-5,4.5c1.2,0.7,2.4,1.4,3.7,2c1.2-1.2,2.2-2.6,3.1-4.1
			C22.1,52.9,20.3,51.8,19.4,52.3z"/>
		<path id="Path_738" class="st0" d="M14.6,42.5c-1.2-1-1.2-1.3-2.3-0.6s-1.1,0.4-1.4,0.6s-3.7,3.6-4.3,4.2l-1.3,1.2
			c0.6,0.9,1.3,1.8,2,2.7c0.9-1,2-2.1,2.7-2.7c0.8-0.8,1.7-1.6,2.6-2.2c0.6-0.1,1.2-0.5,1.7-0.9C15.1,44.1,15.8,43.6,14.6,42.5z"/>
		<path id="Path_739" class="st0" d="M8,36.2c-0.6,0.5-4.9,4.4-5.8,5.2L2,41.6c0.5,1.2,1,2.4,1.6,3.5c0.4-0.5,0.8-1,1.1-1.3
			c0.7-0.7,3.5-3.4,4.6-4.3s1.3-1.4,0.8-2.3S8.6,35.7,8,36.2z"/>
		<path id="Path_740" class="st0" d="M38.1,18.8c0.1-0.5-0.5-1.4-1.1-1s-1.6,1.5-2.5,2.4s-2,1.7-2,1.7c-0.6,0.7-1.2,1.5-1.7,2.4
			c-0.3,0.5-0.4,0.9,0.2,1.1s2.7-0.1,4,0.8s2,1,2.5,0.7s0.3-1.1,0.1-1.8c-0.1-1.4,0-2.7,0.4-4.1C38,20.2,38,19.5,38.1,18.8z"/>
		<path id="Path_741" class="st0" d="M18.6,47.1c-0.2-1.1-1.2-1.8-2.3-1.6c-0.9,0.2-1.7,1.5-1.7,1.5s-2.1,1.9-3.3,3l-2.5,2.3
			c0.8,0.8,1.7,1.6,2.6,2.4c0.7-0.9,1.4-1.7,2.2-2.4c0.6-0.5,2.7-2.6,3.3-2.9S18.9,48.3,18.6,47.1z"/>
		<path id="Path_742" class="st0" d="M49.4,6.9c-0.4,0.4-1.8,1.5-1.9,1.7s-0.9,0.7,0.4,1.5c1.1,0.7,2.4,1,3.7,1
			c1.2,0.1,2.4,0.3,3.5,0.8c-1.6-2-3.4-3.8-5.4-5.4C49.6,6.6,49.5,6.8,49.4,6.9L49.4,6.9z"/>
		<path id="Path_743" class="st0" d="M4.8,32c2.9-2.5,2.8-2.6,4.6-3.6s2.7-0.2,3.9,0.8s1.6,0.7,2.2,0c0.7-0.7,0.3-1.5,0.4-2.6
			c0.1-1.1,0.1-4.1,0.3-5.5s0-2.1,1.3-3.2s2.9-0.9,4.7-0.8c1.7,0.2,3.3,0.7,4.8,1.5c0.8,0.5,1.6,0.9,2.4,1.2c0.7,0,1.3-0.4,1.6-1.1
			c0.1-0.4-0.1-2.1,0-2.7c0.1-0.6,0.1-3.6,0.1-4.1c0.3-4.1,0.4-5.1,1.1-7.2c0.6-1.7,0.8-2,1.5-2s3.2-0.2,5.4-0.2
			c1.8,0.2,3.6,0.4,5.4,0.8C29.5-4.3,11,1.7,3.3,16.9c-3,5.8-4,12.4-2.9,18.9C2.6,34,4.6,32.2,4.8,32z"/>
		<path id="Path_744" class="st0" d="M42.4,18.9c0.2,0.4,0.7,0.6,1.2,0.4c0.1,0,0.2-0.1,0.2-0.2c0.6-0.5,2.6-2.5,3.1-2.9
			s1-0.8,0.5-1.3c-0.8-0.8-1.6-1.5-2.6-2c-0.5-0.1-1-0.4-1.4,0.1s-1.7,1.6-1.7,1.6c-0.4,0.6-0.6,1.2-0.6,1.9
			C41.4,17.5,41.8,18.2,42.4,18.9z"/>
		<path id="Path_745" class="st0" d="M57.4,29.6c-1-0.1-1.8-0.5-2.5-1.2c-0.8-1-1.5-2.1-2.1-3.2c-0.6-1.1-2.1-2.2-2.4-3
			s0.4-0.5,1.2-0.5l1-0.3c0.5-0.2,1.9-0.7,2.7-1.1c0.8-0.3,1.6-0.8,2.4-1.4l1.1-0.8c-0.6-1.4-1.4-2.8-2.2-4.1l0,0
			c-0.4,0.6-2.8,1.6-3.2,1.8c-0.7,0.6-1.4,1.2-2.2,1.8c-0.8,0.5-1.6,0.9-2.5,1.3c-1.6,1.1-2.2,2.2-3.9,3.8c-0.6,0.5-1.3,1.2-1.8,1.7
			s-0.5,1.2-1.4,1.9c-0.3,0.2-0.4,0.6-0.7,0.8c-0.3,0.2-0.7,0.4-1,0.7c-0.3,0.3-1.2,0.1-1.5,0.4c-0.5,0.4-0.8,1.1-0.6,1.7
			c0,0.5-0.8,0.9-0.9,1.2s-0.4,1.2,0,1.5s0.8,1.4,1.7,1.7c1.1,0.6,2,1.4,2.9,2.3c1,0.9,1.1,1.4,0.8,3s-2,2.1-3.3,1.7
			s-1.7-1.9-1.9-3.3c-0.3-1.5-0.7-3-1.3-4.4c-0.2-0.6-0.8-0.9-1.4-0.8c-0.1,0-0.3,0.1-0.4,0.2c-1.6,1.4-3.2,2.8-4.6,4.4
			c-0.7,0.7-0.9,1.7-0.5,2.6c0.2,0.7,1.1,1.2,1.5,1.7c0.9,0.6,1.9,1,2.9,1.2c0.8,0.2,1.7,0.5,1.7,1.1c0,1.3-0.4,2.6-1.3,3.7
			c-1,1.1-3.2,0.7-4.3-0.1s-0.3-2-0.1-2.7c0.1-0.5-0.1-1-0.3-1.5c0-1-0.4-2-1.1-2.7c-0.6-0.6-0.9-0.3-1.4,0c-0.9,1-1.7,2.1-2.2,3.3
			c-0.1,0.7,1.8,3.3,1.8,3.3c2.8,4.7,0.5,7.1-1.5,9.9c-0.7,0.9-1.5,2-2.3,3c16.4,4.6,33.3-5,37.9-21.4c1.2-4.2,1.4-8.7,0.7-13.1
			C60.2,28.4,58.4,29.6,57.4,29.6z M49.2,36.4c-2.1,0.8-3.1-1.1-3.6-2.1s-1.7-2.6-2.1-3.4c-0.3-1.1-0.3-2.2,0-3.3
			c0.2-1,0.7-0.7,1.1-0.5c0.7,0.2,1.4,0.4,2,0.7c1.1,0.5,3.2,2.8,4.2,4.5S51.3,35.6,49.2,36.4L49.2,36.4z"/>
		<path id="Path_746" class="st0" d="M41.2,8.4c-0.6-0.6-1.3-1.2-1.9-1.7c-0.5-0.2-1.1-0.2-1.6,0l-1.6,1.1c-0.6,0.5-1,1.1-1.2,1.8
			c-0.1,0.8,0.1,1.5,0.6,2.2c0.4,0.6,0.9,1.7,2,1.1c1.3-0.9,2.5-2,3.6-3.1C41.6,9.3,41.7,8.8,41.2,8.4z"/>
		<path id="Path_747" class="st0" d="M26.6,33.4c0.2,0.2,1.1,0.8,2.2-0.3s1.6-1.7,2.1-2.3s1.3-1.4,0.9-2.2c-0.4-0.8-1.3-2-2.6-1.4
			c-0.9,0.4-1.7,0.9-2.5,1.5l-0.6,0.6c-0.7,0.7-0.9,1.6-0.6,2.5C25.6,32.5,26,33.1,26.6,33.4z"/>
		<path id="Path_748" class="st0" d="M26,25c0.7-0.8,0.4-1.1-0.2-2s-1.7-1-3.3-0.8c-1.2,0.2-2.3,1.1-2.6,2.3
			c-0.2,0.6-0.3,1.1-0.4,1.7c0.3,1,1,1.8,1.8,2.4c0.8,0.4,1.5-0.1,2.3-1.1C24.3,26.6,25.1,25.8,26,25z"/>
	</g>
</g>
<g id="point">
	<circle id="Ellipse_385" class="st1" cx="31.3" cy="49" r="15"/>
	<circle id="Ellipse_386" class="st1" cx="31.3" cy="49" r="13"/>
</g>
<g id="hand">
	<path id="Path_749" class="st2" d="M10.3,22.6L23,28.9c0.5,0.2,1,0.3,1.5,0.3h2.1v16.7c0,2.3,1.9,4.2,4.2,4.2s4.2-1.9,4.2-4.2V16
		l9.5,2c0.2,0,0.4,0.1,0.7,0.1c0.8,0,1.6-0.3,2.2-0.9l2.2-2.2L35.8,1.2C35,0.4,34,0,32.9,0H14c-2,0-3.8,1.5-4,3.6L7.9,18.2
		C7.5,20.1,8.6,21.9,10.3,22.6L10.3,22.6z"/>
</g>
</svg>
