<svg xmlns="http://www.w3.org/2000/svg" width="68" height="83" viewBox="0 0 68 83">
  <defs>
    <style>
      .cls-1 {
        fill: none;
      }

      .cls-2 {
        fill: #707070;
      }

      .cls-3 {
        fill: #f1b3b3;
        opacity: 0.53;
      }

      .cls-4 {
        fill: #fff;
      }

      .cls-5, .cls-6 {
        stroke: none;
      }

      .cls-6 {
        fill: #e2e2e2;
      }
    </style>
  </defs>
  <g id="Group_1693" data-name="Group 1693" transform="translate(-174 -341)">
    <g id="Group_1692" data-name="Group 1692" transform="translate(13.286 -47.714)">
      <g id="Subtraction_128" data-name="Subtraction 128" class="cls-1" transform="translate(160.714 403.714)">
        <path class="cls-5" d="M40.155,68H27.845a5.869,5.869,0,0,1-5.862-5.862l2.546-18.667L5.862,46.017A5.869,5.869,0,0,1,0,40.155V27.845a5.869,5.869,0,0,1,5.862-5.862l18.667,2.546L21.983,5.862A5.869,5.869,0,0,1,27.845,0h12.31a5.869,5.869,0,0,1,5.862,5.862L43.471,24.529l18.667-2.546A5.869,5.869,0,0,1,68,27.845v12.31a5.869,5.869,0,0,1-5.862,5.862L43.471,43.471l2.546,18.667A5.869,5.869,0,0,1,40.155,68ZM34,26.379A7.621,7.621,0,1,0,41.621,34,7.629,7.629,0,0,0,34,26.379Z"/>
        <path class="cls-6" d="M 40.15509033203125 67 C 41.45127868652344 67 42.67153930664063 66.49358367919922 43.59109878540039 65.57402038574219 C 44.49533843994141 64.66978454589844 45.00008773803711 63.47482299804688 45.01665878295898 62.2027702331543 L 42.48065185546875 43.60660171508789 L 42.30286026000977 42.30286026000977 L 43.60660171508789 42.48065185546875 L 62.20275115966797 45.01666641235352 C 64.85397338867188 44.98191070556641 67 42.81441116333008 67 40.15509033203125 L 67 33.7069206237793 L 67 27.84490966796875 C 67 25.18559837341309 64.85397338867188 23.01809883117676 62.20275115966797 22.98334503173828 L 43.60660171508789 25.51935005187988 L 42.30286026000977 25.69713973999023 L 42.48065185546875 24.39340019226074 L 45.01666641235352 5.797239303588867 C 44.98191070556641 3.146015882492065 42.81441116333008 1 40.15509033203125 1 L 33.7069206237793 1 L 27.84490966796875 1 C 25.18559837341309 1 23.01809883117676 3.146025896072388 22.98334503173828 5.797249317169189 L 25.51935005187988 24.39339065551758 L 25.69713973999023 25.69713020324707 L 24.39340019226074 25.51934051513672 L 5.797239780426025 22.98334503173828 C 3.146016359329224 23.01809883117676 1 25.18559837341309 1 27.84490966796875 L 1 33.7069206237793 L 1 40.15509033203125 C 1 41.45127105712891 1.506420016288757 42.67153930664063 2.425980091094971 43.59109878540039 C 3.330217838287354 44.49533843994141 4.525176048278809 45.00008773803711 5.797228336334229 45.01665878295898 L 24.39339065551758 42.48065185546875 L 25.69713020324707 42.30286026000977 L 25.51934051513672 43.60660171508789 L 22.98334503173828 62.20275115966797 C 23.01809883117676 64.85397338867188 25.18559837341309 67 27.84490966796875 67 L 33.7069206237793 67 L 40.15509033203125 67 M 33.99972915649414 25.3792896270752 C 38.75334930419922 25.3792896270752 42.62070846557617 29.24640083312988 42.62070846557617 33.99972915649414 C 42.62070846557617 38.75334930419922 38.75334930419922 42.62070846557617 33.99972915649414 42.62070846557617 C 29.24640083312988 42.62070846557617 25.3792896270752 38.75334930419922 25.3792896270752 33.99972915649414 C 25.3792896270752 29.24640083312988 29.24640083312988 25.3792896270752 33.99972915649414 25.3792896270752 M 40.15509033203125 68 L 33.7069206237793 68 L 27.84490966796875 68 C 24.61260032653809 68 21.98291969299316 65.37032318115234 21.98291969299316 62.13798904418945 L 24.52850914001465 43.47148132324219 L 5.86201000213623 46.0170783996582 C 2.62965989112854 46.01708984375 0 43.38740158081055 0 40.15509033203125 L 0 33.7069206237793 L 0 27.84490966796875 C 0 24.61260032653809 2.629679918289185 21.98291969299316 5.861999988555908 21.98291969299316 L 24.52852058410645 24.52850914001465 L 21.98291969299316 5.86201000213623 C 21.98291969299316 2.62965989112854 24.61260032653809 0 27.84490966796875 0 L 33.7069206237793 0 L 40.15509033203125 0 C 43.38740158081055 0 46.01708984375 2.629679918289185 46.01708984375 5.861999988555908 L 43.47148132324219 24.52852058410645 L 62.13798904418945 21.98291969299316 C 65.37035369873047 21.98291969299316 68 24.61260032653809 68 27.84490966796875 L 68 33.7069206237793 L 68 40.15509033203125 C 68 43.38740158081055 65.37032318115234 46.01708984375 62.13798904418945 46.01708984375 L 43.47148132324219 43.47148132324219 L 46.0170783996582 62.13798904418945 C 46.01708984375 65.37035369873047 43.38740158081055 68 40.15509033203125 68 Z M 33.99972915649414 26.3792896270752 C 29.79780006408691 26.3792896270752 26.3792896270752 29.79780006408691 26.3792896270752 33.99972915649414 C 26.3792896270752 38.20195007324219 29.79780006408691 41.62070846557617 33.99972915649414 41.62070846557617 C 38.20195007324219 41.62070846557617 41.62070846557617 38.20195007324219 41.62070846557617 33.99972915649414 C 41.62070846557617 29.79780006408691 38.20195007324219 26.3792896270752 33.99972915649414 26.3792896270752 Z"/>
      </g>
      <path id="Polygon_135" data-name="Polygon 135" class="cls-2" d="M3.57,4.132a3,3,0,0,1,5.1,0l.743,1.2A3,3,0,0,1,6.866,9.912H5.379A3,3,0,0,1,2.827,5.336Z" transform="translate(188.121 405.757)"/>
      <path id="Polygon_136" data-name="Polygon 136" class="cls-2" d="M4.421,2.755a2,2,0,0,1,3.4,0L10.36,6.861a2,2,0,0,1-1.7,3.051H3.586a2,2,0,0,1-1.7-3.051Z" transform="translate(200.366 469.313) rotate(180)"/>
      <path id="Polygon_137" data-name="Polygon 137" class="cls-2" d="M4.421,2.755a2,2,0,0,1,3.4,0L10.36,6.861a2,2,0,0,1-1.7,3.051H3.586a2,2,0,0,1-1.7-3.051Z" transform="translate(226.021 431.412) rotate(90)"/>
      <path id="Polygon_138" data-name="Polygon 138" class="cls-2" d="M4.421,2.755a2,2,0,0,1,3.4,0L10.36,6.861a2,2,0,0,1-1.7,3.051H3.586a2,2,0,0,1-1.7-3.051Z" transform="translate(162.465 443.657) rotate(-90)"/>
    </g>
    <circle id="Ellipse_385" data-name="Ellipse 385" class="cls-3" cx="15" cy="15" r="15" transform="translate(193 375)"/>
    <circle id="Ellipse_386" data-name="Ellipse 386" class="cls-3" cx="13" cy="13" r="13" transform="translate(195 377)"/>
    <path id="Path_749" data-name="Path 749" class="cls-4" d="M39.208,27.465,26.574,21.176a3.919,3.919,0,0,0-1.5-.306H22.957V4.174a4.174,4.174,0,0,0-8.348,0V34.06l-9.545-2a4.862,4.862,0,0,0-.668-.083,3.113,3.113,0,0,0-2.2.918L0,35.117,13.746,48.863a4.189,4.189,0,0,0,2.95,1.224H35.59A4.053,4.053,0,0,0,39.6,46.526l2.087-14.665a4,4,0,0,0-2.477-4.4Z" transform="translate(226.213 391.088) rotate(180)"/>
  </g>
</svg>
