<svg id="Group_1606" data-name="Group 1606" xmlns="http://www.w3.org/2000/svg" width="35.929" height="50.223" viewBox="0 0 35.929 50.223">
  <ellipse id="Ellipse_369" data-name="Ellipse 369" cx="14.154" cy="1.862" rx="14.154" ry="1.862" transform="translate(4.097 46.498)" fill="#141414"/>
  <g id="Group_1568" data-name="Group 1568" transform="translate(0 0)">
    <path id="Path_1052" data-name="Path 1052" d="M57.371,31.06c0,13.519-8.043,20.008-17.964,20.008S21.442,44.579,21.442,31.06,29.485,2.116,39.407,2.116,57.371,17.543,57.371,31.06Z" transform="translate(-21.442 -2.116)" fill="#a0002f"/>
    <path id="Intersection_84" data-name="Intersection 84" d="M0,22.659C1.965,11.062,9.019,0,17.421,0,23.1,0,28.158,5.049,31.45,11.9a35.234,35.234,0,0,1-12.79,8.532,36.512,36.512,0,0,1-13.431,2.8A22.388,22.388,0,0,1,0,22.659Z" transform="translate(0.544 0)" fill="#ff7fa1"/>
    <path id="Intersection_35" data-name="Intersection 35" d="M25.284,16.267a40.494,40.494,0,0,1-6.647-1.083,40.079,40.079,0,0,1-8.559-3.2A37.131,37.131,0,0,1,2.9,7.2,34.32,34.32,0,0,1,.019,4.442Q0,3.887,0,3.315C0,2.22.053,1.112.155,0A39.787,39.787,0,0,0,12.5,5.416,37.6,37.6,0,0,0,35.923,3.954a22.157,22.157,0,0,1-3.428,12.2q-.379.042-.76.077c-1.135.1-2.286.155-3.441.155C27.293,16.383,26.288,16.345,25.284,16.267Z" transform="translate(0 25.629)" fill="#a0002f"/>
    <path id="Intersection_33" data-name="Intersection 33" d="M17.526,16.821a38.412,38.412,0,0,1-8.464-3.3A37.877,37.877,0,0,1,.2,7.049,30.616,30.616,0,0,1,0,3.463C0,2.319.058,1.161.169,0A47.732,47.732,0,0,0,13.9,10.75a47.325,47.325,0,0,0,18.6,5.555q-.342.5-.712.971-.492.109-.994.2a28.1,28.1,0,0,1-4.947.428A33.468,33.468,0,0,1,17.526,16.821Z" transform="translate(0 25.481)" fill="#bbd500"/>
    <path id="Intersection_34" data-name="Intersection 34" d="M7.809,12.976A38.575,38.575,0,0,1,.121,10.461Q0,9.119,0,7.671c0-.257,0-.515.009-.773A41.835,41.835,0,0,0,10.752,8.284,38.3,38.3,0,0,0,34.425.567q.356-.28.7-.567a38.429,38.429,0,0,1,.8,7.671q0,.725-.031,1.424-.308.172-.621.338a36.924,36.924,0,0,1-5.658,2.416,40.006,40.006,0,0,1-6.254,1.527,42.389,42.389,0,0,1-6.715.532A41.951,41.951,0,0,1,7.809,12.976Z" transform="translate(0 21.273)" fill="#ff7fa1"/>
    <path id="Intersection_32" data-name="Intersection 32" d="M.049,13.111Q0,12.233,0,11.313A37.146,37.146,0,0,1,.351,6.291,30.909,30.909,0,0,0,12.107,8.528h0a34.67,34.67,0,0,0,4.206-.259A30.645,30.645,0,0,0,33.96.243q.124-.121.246-.243A41.655,41.655,0,0,1,35.3,4.532q-.137.157-.276.313a29.376,29.376,0,0,1-3.469,3.28A33.043,33.043,0,0,1,22.662,13.2a34.064,34.064,0,0,1-5.909,1.679,31.474,31.474,0,0,1-5.784.547A25.461,25.461,0,0,1,.049,13.111Z" transform="translate(0 17.631)" fill="#ffc300"/>
    <path id="Intersection_36" data-name="Intersection 36" d="M17.184,9.419a32.062,32.062,0,0,1-8.451-1.2A40.091,40.091,0,0,1,0,4.647,25.028,25.028,0,0,1,3.674,0C11.08,4.058,18.81,6.355,25.565,6.512q.277.518.541,1.052a20.269,20.269,0,0,1-8.92,1.855Z" transform="translate(5.722 3.996)" fill="#ffc300"/>
    <path id="Intersection_37" data-name="Intersection 37" d="M16.978,7.069a39.076,39.076,0,0,1-5.363-.859A38.568,38.568,0,0,1,5.7,4.347,28.506,28.506,0,0,1,.9,1.865Q.43,1.557,0,1.241.614.581,1.259,0A23.927,23.927,0,0,0,8.921,1.922h0c.778.068,1.574.1,2.365.1a25.874,25.874,0,0,0,7.063-.967A27.6,27.6,0,0,1,22.6,7.065q-.256.026-.518.047c-.716.058-1.456.086-2.217.086C18.928,7.2,17.964,7.155,16.978,7.069Z" transform="translate(8.704 3.465)" fill="#bbd500"/>
    <ellipse id="Ellipse_352" data-name="Ellipse 352" cx="1.676" cy="1.676" rx="1.676" ry="1.676" transform="translate(3.285 18.562)" fill="#a0002f"/>
    <ellipse id="Ellipse_353" data-name="Ellipse 353" cx="1.676" cy="1.676" rx="1.676" ry="1.676" transform="translate(8.127 17.817)" fill="#a0002f"/>
    <ellipse id="Ellipse_354" data-name="Ellipse 354" cx="1.676" cy="1.676" rx="1.676" ry="1.676" transform="translate(12.969 16.699)" fill="#a0002f"/>
  </g>
</svg>
