<svg id="Group_1605" data-name="Group 1605" xmlns="http://www.w3.org/2000/svg" width="35.929" height="50.223" viewBox="0 0 35.929 50.223">
  <ellipse id="Ellipse_368" data-name="Ellipse 368" cx="14.154" cy="1.862" rx="14.154" ry="1.862" transform="translate(3.725 46.498)" fill="#141414"/>
  <g id="Group_1580" data-name="Group 1580" transform="translate(0 0)">
    <path id="Path_1051" data-name="Path 1051" d="M57.371,31.06c0,13.519-8.043,20.008-17.964,20.008S21.442,44.579,21.442,31.06,29.485,2.116,39.407,2.116,57.371,17.543,57.371,31.06Z" transform="translate(-21.442 -2.116)" fill="#a0002f"/>
    <path id="Intersection_30" data-name="Intersection 30" d="M0,18.233C2.121,10.011,6.7,2.612,12.336,0a12.253,12.253,0,0,1,4.181,9.445c0,6.411-4.473,11.608-9.99,11.608A9.188,9.188,0,0,1,0,18.233Z" transform="translate(1.276 1)" fill="#38bee3"/>
    <path id="Intersection_28" data-name="Intersection 28" d="M2.818,26.972A19.854,19.854,0,0,1,0,16.555C0,7.412,5.666,0,12.654,0,18.594,0,23.577,5.353,24.94,12.573c-1.786,10.049-8.959,14.9-17.536,14.9A20.652,20.652,0,0,1,2.818,26.972Z" transform="translate(10.561 21.481)" fill="#ff7fa1"/>
    <path id="Intersection_27" data-name="Intersection 27" d="M0,10.086C0,4.515,3.791,0,8.468,0c4.107,0,7.531,3.483,8.3,8.1-3,5.61-8.4,8.463-14.624,8.7A11.2,11.2,0,0,1,0,10.086Z" transform="translate(16.651 32.138)" fill="#ffc300"/>
    <path id="Intersection_29" data-name="Intersection 29" d="M0,10.973C2.148,6.19,5.145,2.188,8.623,0a8.268,8.268,0,0,1,2.4,5.987c0,4.2-2.811,7.612-6.28,7.612A5.876,5.876,0,0,1,0,10.973Z" transform="translate(3.533 1.794)" fill="#ffc300"/>
    <path id="Intersection_31" data-name="Intersection 31" d="M0,2.375A8.693,8.693,0,0,1,.323,0a31.884,31.884,0,0,1,4.85,8.249,2.854,2.854,0,0,1-1.082.215C1.832,8.464,0,5.738,0,2.375Z" transform="translate(27.688 5.596)" fill="#38bee3"/>
    <ellipse id="Ellipse_201" data-name="Ellipse 201" cx="1.117" cy="1.117" rx="1.117" ry="1.117" transform="translate(23.739 4.407)" fill="#ffc300"/>
    <ellipse id="Ellipse_202" data-name="Ellipse 202" cx="1.304" cy="1.304" rx="1.304" ry="1.304" transform="translate(23.739 7.76)" fill="#ffc300"/>
    <ellipse id="Ellipse_365" data-name="Ellipse 365" cx="1.304" cy="1.304" rx="1.304" ry="1.304" transform="translate(10.702 5.152)" fill="#a0002f"/>
    <ellipse id="Ellipse_366" data-name="Ellipse 366" cx="1.304" cy="1.304" rx="1.304" ry="1.304" transform="translate(9.584 8.505)" fill="#a0002f"/>
    <ellipse id="Ellipse_367" data-name="Ellipse 367" cx="1.304" cy="1.304" rx="1.304" ry="1.304" transform="translate(6.605 11.112)" fill="#a0002f"/>
    <ellipse id="Ellipse_203" data-name="Ellipse 203" cx="1.117" cy="1.117" rx="1.117" ry="1.117" transform="translate(25.229 11.485)" fill="#ffc300"/>
    <ellipse id="Ellipse_204" data-name="Ellipse 204" cx="1.304" cy="1.304" rx="1.304" ry="1.304" transform="translate(27.836 14.837)" fill="#ffc300"/>
    <ellipse id="Ellipse_205" data-name="Ellipse 205" cx="1.117" cy="1.117" rx="1.117" ry="1.117" transform="translate(31.189 16.699)" fill="#ffc300"/>
    <ellipse id="Ellipse_206" data-name="Ellipse 206" cx="1.304" cy="1.304" rx="1.304" ry="1.304" transform="translate(13.309 44.636)" fill="#38bee3"/>
    <ellipse id="Ellipse_207" data-name="Ellipse 207" cx="1.304" cy="1.304" rx="1.304" ry="1.304" transform="translate(12.192 41.283)" fill="#ffc300"/>
    <ellipse id="Ellipse_208" data-name="Ellipse 208" cx="1.304" cy="1.304" rx="1.304" ry="1.304" transform="translate(11.819 36.814)" fill="#38bee3"/>
    <ellipse id="Ellipse_209" data-name="Ellipse 209" cx="1.304" cy="1.304" rx="1.304" ry="1.304" transform="translate(12.192 32.344)" fill="#ffc300"/>
    <ellipse id="Ellipse_210" data-name="Ellipse 210" cx="1.117" cy="1.117" rx="1.117" ry="1.117" transform="translate(13.682 28.246)" fill="#38bee3"/>
    <ellipse id="Ellipse_211" data-name="Ellipse 211" cx="1.304" cy="1.304" rx="1.304" ry="1.304" transform="translate(16.662 24.894)" fill="#ffc300"/>
    <ellipse id="Ellipse_212" data-name="Ellipse 212" cx="1.117" cy="1.117" rx="1.117" ry="1.117" transform="translate(20.759 23.032)" fill="#38bee3"/>
    <ellipse id="Ellipse_213" data-name="Ellipse 213" cx="1.304" cy="1.304" rx="1.304" ry="1.304" transform="translate(25.229 24.522)" fill="#ffc300"/>
    <ellipse id="Ellipse_214" data-name="Ellipse 214" cx="1.117" cy="1.117" rx="1.117" ry="1.117" transform="translate(28.954 26.756)" fill="#38bee3"/>
    <ellipse id="Ellipse_215" data-name="Ellipse 215" cx="1.304" cy="1.304" rx="1.304" ry="1.304" transform="translate(31.189 30.481)" fill="#ffc300"/>
  </g>
</svg>
