<svg id="Group_1608" data-name="Group 1608" xmlns="http://www.w3.org/2000/svg" width="35.93" height="50.223" viewBox="0 0 35.93 50.223">
  <ellipse id="Ellipse_370" data-name="Ellipse 370" cx="14.154" cy="1.862" rx="14.154" ry="1.862" transform="translate(4.47 46.498)" fill="#141414"/>
  <g id="Group_1581" data-name="Group 1581" transform="translate(0 0)">
    <path id="Path_1052" data-name="Path 1052" d="M57.371,31.06c0,13.519-8.043,20.008-17.964,20.008S21.442,44.579,21.442,31.06,29.485,2.116,39.407,2.116,57.371,17.543,57.371,31.06Z" transform="translate(-21.442 -2.116)" fill="#a0002f"/>
    <path id="Intersection_58" data-name="Intersection 58" d="M18.482,11.738c-8.035-1.2-13.365.057-16.693,1.624A25.023,25.023,0,0,1,0,3.571C0,2.391.061,1.2.18,0,.739.307,1.322.622,1.927.937,6.52,3.327,12.369,5.718,18.482,4.5c6.338-1.268,12.948-3,17.4-2.821q.051.953.052,1.9a23.7,23.7,0,0,1-2.543,11.365C30.178,14.38,25.545,12.794,18.482,11.738Z" transform="translate(0 25.373)" fill="#38bee3"/>
    <path id="Intersection_59" data-name="Intersection 59" d="M0,23.557c0-.136,0-.271,0-.408C0,14.836,3.042,5.8,7.693.074c5.33-.651,12.417,3.107,18.5,6.865,3.066,1.895,5.877,3.789,8.08,5.119a39.687,39.687,0,0,1,1.657,11.091,29.168,29.168,0,0,1-.431,5.128,14.118,14.118,0,0,1-6.6,1.229C19.634,29.505,5.653,25.362,0,23.557Z" transform="translate(0 5.796)" fill="#ffc300"/>
    <path id="Intersection_60" data-name="Intersection 60" d="M17.542,5.744A29.556,29.556,0,0,0,0,4.972,41.329,41.329,0,0,1,.943.437C5.987-.334,12.976-.36,15.52,2.662,18.4,6.08,29.313,7.3,35.4,7.722c.019.251.036.5.051.753-.611.034-1.286.055-2.021.055A50.167,50.167,0,0,1,17.542,5.744Z" transform="translate(0.421 18.458)" fill="#38bee3"/>
    <path id="Intersection_61" data-name="Intersection 61" d="M0,2.169Q.02,1.09.106,0C10.578,5.32,30.663,2.673,35.9,1.691c.012.375.018.751.018,1.124q0,.954-.053,1.861a39.5,39.5,0,0,1-8.543.781C17.616,5.457,5.793,3.34,0,2.169Z" transform="translate(0.007 26.129)" fill="#38bee3"/>
    <ellipse id="Ellipse_284" data-name="Ellipse 284" cx="1.862" cy="3.911" rx="1.862" ry="3.911" transform="translate(24.095 14.747) rotate(48)" fill="#a0002f"/>
    <ellipse id="Ellipse_350" data-name="Ellipse 350" cx="1.862" cy="3.911" rx="1.862" ry="3.911" transform="translate(28.737 16.292) rotate(30)" fill="#38bee3"/>
    <ellipse id="Ellipse_285" data-name="Ellipse 285" cx="1.862" cy="3.911" rx="1.862" ry="3.911" transform="matrix(0.996, 0.087, -0.087, 0.996, 16.078, 11.337)" fill="#38bee3"/>
    <ellipse id="Ellipse_349" data-name="Ellipse 349" cx="1.862" cy="3.911" rx="1.862" ry="3.911" transform="matrix(0.891, -0.454, 0.454, 0.891, 7.825, 11.639)" fill="#a0002f"/>
  </g>
</svg>
