<svg id="Group_1607" data-name="Group 1607" xmlns="http://www.w3.org/2000/svg" width="35.929" height="50.223" viewBox="0 0 35.929 50.223">
  <ellipse id="Ellipse_377" data-name="Ellipse 377" cx="14.154" cy="1.862" rx="14.154" ry="1.862" transform="translate(3.725 46.498)" fill="#141414"/>
  <g id="Group_1571" data-name="Group 1571" transform="translate(0 0)">
    <path id="Path_1068" data-name="Path 1068" d="M57.371,31.06c0,13.519-8.043,20.008-17.964,20.008S21.442,44.579,21.442,31.06,29.485,2.116,39.407,2.116,57.371,17.543,57.371,31.06Z" transform="translate(-21.442 -2.116)" fill="#a0002f"/>
    <path id="Intersection_85" data-name="Intersection 85" d="M4.381,24.071A42.339,42.339,0,0,1,0,8.03C3.162,3.23,7.309,0,11.849,0c9.922,0,17.964,15.427,17.964,28.945,0,6.061-1.617,10.71-4.295,13.993C18.168,42.152,9.658,34.889,4.381,24.071Z" transform="translate(6.116)" fill="#ffc300"/>
    <path id="Intersection_86" data-name="Intersection 86" d="M5.679,18.411A42.375,42.375,0,0,1,0,7.74C3.138,3.1,7.209,0,11.657,0c9.922,0,17.964,15.427,17.964,28.944a30,30,0,0,1-.289,4.244C21.608,33.076,12.373,27.625,5.679,18.411Z" transform="translate(6.309 0)" fill="#38bee3"/>
    <path id="Intersection_53" data-name="Intersection 53" d="M0,4.847A8.9,8.9,0,0,1,1.623,3.841a10.511,10.511,0,0,1,4.545-1h.1L6.32,2.8A11.566,11.566,0,0,1,10,.75,13.9,13.9,0,0,1,14.56,0c.346,0,.7.013,1.043.037A14.113,14.113,0,0,1,21.44,1.729,10.9,10.9,0,0,1,25.4,5.367l.054.085.1,0A9.558,9.558,0,0,1,32.518,8.38c-3.107,5.985-8.91,8.9-15.556,8.9C9.12,17.276,2.451,13.222,0,4.847Z" transform="translate(1.088 31.676)" fill="#ff7fa1"/>
    <path id="Intersection_52" data-name="Intersection 52" d="M0,5.192A26.949,26.949,0,0,1,11.948.383c5.958-.943,11.535-.1,15.389,1.991-3.24,5.1-8.66,7.584-14.8,7.584A17.444,17.444,0,0,1,0,5.192Z" transform="translate(5.514 38.994)" fill="#ffc300"/>
    <path id="Intersection_54" data-name="Intersection 54" d="M12.6,30.272A7.946,7.946,0,0,1,9.328,24.54l-.011-.156-.155-.017a11.529,11.529,0,0,1-6.534-2.846A8.438,8.438,0,0,1,.7,18.942,7.075,7.075,0,0,1,.97,12.3,8.955,8.955,0,0,1,3.6,9.451l.127-.09L3.661,9.22a7.071,7.071,0,0,1,.147-6.345A8.692,8.692,0,0,1,6.076.15Q6.17.074,6.265,0c8.26,3.032,14.493,16.412,14.493,28.311a29.93,29.93,0,0,1-.3,4.32q-.264.01-.531.01A12.025,12.025,0,0,1,12.6,30.272Z" transform="translate(15.171 0.633)" fill="#ff7fa1"/>
    <path id="Intersection_55" data-name="Intersection 55" d="M.976,12.642C-.886,7.529.007,2.35,2.89,0A39.769,39.769,0,0,1,8.959,20.844c0,.022,0,.046,0,.068C5.743,20.141,2.569,17.022.976,12.642Z" transform="translate(26.971 8.1)" fill="#ffc300"/>
    <ellipse id="Ellipse_280" data-name="Ellipse 280" cx="2.607" cy="2.607" rx="2.607" ry="2.607" transform="translate(20.945 4.035)" fill="#38bee3"/>
    <ellipse id="Ellipse_281" data-name="Ellipse 281" cx="2.607" cy="2.607" rx="2.607" ry="2.607" transform="translate(17.965 14.465)" fill="#a0002f"/>
    <ellipse id="Ellipse_282" data-name="Ellipse 282" cx="2.607" cy="2.607" rx="2.607" ry="2.607" transform="translate(3.81 36.814)" fill="#a0002f"/>
    <ellipse id="Ellipse_283" data-name="Ellipse 283" cx="2.607" cy="2.607" rx="2.607" ry="2.607" transform="translate(12.377 33.462)" fill="#38bee3"/>
    <ellipse id="Ellipse_286" data-name="Ellipse 286" cx="1.862" cy="1.862" rx="1.862" ry="1.862" transform="translate(29.139 27.502)" fill="#38bee3"/>
  </g>
</svg>
