<svg id="Group_1615" data-name="Group 1615" xmlns="http://www.w3.org/2000/svg" width="35.929" height="50.223" viewBox="0 0 35.929 50.223">
  <ellipse id="Ellipse_374" data-name="Ellipse 374" cx="14.154" cy="1.862" rx="14.154" ry="1.862" transform="translate(3.725 46.498)" fill="#141414"/>
  <g id="Group_1586" data-name="Group 1586" transform="translate(0 0)">
    <path id="Path_1071" data-name="Path 1071" d="M57.371,31.06c0,13.519-8.043,20.008-17.964,20.008S21.442,44.579,21.442,31.06,29.485,2.116,39.407,2.116,57.371,17.543,57.371,31.06Z" transform="translate(-21.442 -2.116)" fill="#a0002f"/>
    <path id="Union_137" data-name="Union 137" d="M9.544,13.768C7.695,12.842,7.78,8.753,7.829,8.65s3.132-2.689,4.981-1.762a3.875,3.875,0,0,1,1.715,5.118,3.717,3.717,0,0,1-3.351,2.151A3.629,3.629,0,0,1,9.544,13.768ZM.378,12.006A3.875,3.875,0,0,1,2.093,6.888c1.85-.927,4.932,1.659,4.981,1.762s.135,4.192-1.715,5.119a3.63,3.63,0,0,1-1.63.388A3.717,3.717,0,0,1,.378,12.006ZM3.656,3.828A3.778,3.778,0,0,1,7.382,0a3.777,3.777,0,0,1,3.725,3.828c0,2.114-3.614,3.827-3.725,3.827S3.656,5.942,3.656,3.828Z" transform="translate(6.043 8.505)" fill="#38bee3"/>
    <path id="Union_138" data-name="Union 138" d="M9.544,13.768C7.695,12.842,7.78,8.753,7.829,8.65s3.132-2.689,4.981-1.762a3.875,3.875,0,0,1,1.715,5.118,3.717,3.717,0,0,1-3.351,2.151A3.629,3.629,0,0,1,9.544,13.768ZM.378,12.006A3.875,3.875,0,0,1,2.093,6.888c1.85-.927,4.932,1.659,4.981,1.762s.135,4.192-1.715,5.119a3.63,3.63,0,0,1-1.63.388A3.717,3.717,0,0,1,.378,12.006ZM3.656,3.828A3.778,3.778,0,0,1,7.382,0a3.777,3.777,0,0,1,3.725,3.828c0,2.114-3.614,3.827-3.725,3.827S3.656,5.942,3.656,3.828Z" transform="translate(19.452 19.307)" fill="#38bee3"/>
    <path id="Union_139" data-name="Union 139" d="M9.544,13.768C7.695,12.842,7.78,8.753,7.829,8.65s3.132-2.689,4.981-1.762a3.875,3.875,0,0,1,1.715,5.118,3.717,3.717,0,0,1-3.351,2.151A3.629,3.629,0,0,1,9.544,13.768ZM.378,12.006A3.875,3.875,0,0,1,2.093,6.888c1.85-.927,4.932,1.659,4.981,1.762s.135,4.192-1.715,5.119a3.63,3.63,0,0,1-1.63.388A3.717,3.717,0,0,1,.378,12.006ZM3.656,3.828A3.778,3.778,0,0,1,7.382,0a3.777,3.777,0,0,1,3.725,3.828c0,2.114-3.614,3.827-3.725,3.827S3.656,5.942,3.656,3.828Z" transform="translate(3.436 26.384)" fill="#bbd500"/>
    <ellipse id="Ellipse_330" data-name="Ellipse 330" cx="1.676" cy="1.676" rx="1.676" ry="1.676" transform="translate(20.945 9.995)" fill="#ff7fa1"/>
    <ellipse id="Ellipse_331" data-name="Ellipse 331" cx="1.676" cy="1.676" rx="1.676" ry="1.676" transform="translate(16.847 5.152)" fill="#ffc300"/>
    <ellipse id="Ellipse_332" data-name="Ellipse 332" cx="1.676" cy="1.676" rx="1.676" ry="1.676" transform="translate(15.357 24.522)" fill="#ffc300"/>
    <ellipse id="Ellipse_333" data-name="Ellipse 333" cx="1.676" cy="1.676" rx="1.676" ry="1.676" transform="translate(2.693 23.404)" fill="#ff7fa1"/>
    <ellipse id="Ellipse_334" data-name="Ellipse 334" cx="1.676" cy="1.676" rx="1.676" ry="1.676" transform="translate(25.414 34.206)" fill="#ffc300"/>
    <ellipse id="Ellipse_335" data-name="Ellipse 335" cx="1.676" cy="1.676" rx="1.676" ry="1.676" transform="translate(22.807 39.049)" fill="#38bee3"/>
    <ellipse id="Ellipse_336" data-name="Ellipse 336" cx="1.676" cy="1.676" rx="1.676" ry="1.676" transform="translate(17.592 41.283)" fill="#ff7fa1"/>
    <ellipse id="Ellipse_337" data-name="Ellipse 337" cx="1.676" cy="1.676" rx="1.676" ry="1.676" transform="translate(10.887 41.656)" fill="#ffc300"/>
  </g>
</svg>
