<svg id="Group_1609" data-name="Group 1609" xmlns="http://www.w3.org/2000/svg" width="35.93" height="50.223" viewBox="0 0 35.93 50.223">
  <ellipse id="Ellipse_378" data-name="Ellipse 378" cx="14.154" cy="1.862" rx="14.154" ry="1.862" transform="translate(3.725 46.498)" fill="#141414"/>
  <g id="Group_1588" data-name="Group 1588" transform="translate(0 0)">
    <path id="Path_1073" data-name="Path 1073" d="M57.371,31.06c0,13.519-8.043,20.008-17.964,20.008S21.442,44.579,21.442,31.06,29.485,2.116,39.407,2.116,57.371,17.543,57.371,31.06Z" transform="translate(-21.442 -2.116)" fill="#a0002f"/>
    <path id="Intersection_44" data-name="Intersection 44" d="M0,4.1A34.47,34.47,0,0,1,2.168,0H26.715a34.473,34.473,0,0,1,2.168,4.1Z" transform="translate(3.523 8.691)" fill="#ff7fa1"/>
    <path id="Intersection_46" data-name="Intersection 46" d="M0,2.235C.094,1.489.209.743.346,0H34.989c.136.743.252,1.489.346,2.235Z" transform="translate(0.297 22.101)" fill="#ff7fa1"/>
    <path id="Intersection_48" data-name="Intersection 48" d="M.836,2.98A22.012,22.012,0,0,1,0,0H34.8a22.013,22.013,0,0,1-.836,2.98Z" transform="translate(0.565 34.765)" fill="#ffc300"/>
    <path id="Intersection_49" data-name="Intersection 49" d="M.362.745C.237.5.117.254,0,0H31.913c-.116.254-.236.5-.361.745Z" transform="translate(2.008 39.235)" fill="#ff7fa1"/>
    <path id="Intersection_50" data-name="Intersection 50" d="M1.734,2.235A16.14,16.14,0,0,1,0,0H29.472a16.14,16.14,0,0,1-1.733,2.235Z" transform="translate(3.229 41.47)" fill="#00c4ff"/>
    <path id="Intersection_47" data-name="Intersection 47" d="M.176,1.49Q.07.763,0,0H35.678q-.069.762-.176,1.49Z" transform="translate(0.125 31.785)" fill="#ff7fa1"/>
    <path id="Intersection_51" data-name="Intersection 51" d="M.067,3.725Q0,2.708,0,1.63,0,.819.038,0H35.892q.038.818.038,1.63,0,1.077-.067,2.1Z" transform="translate(0 27.315)" fill="#00c4ff"/>
    <path id="Intersection_57" data-name="Intersection 57" d="M0,2.235Q.063,1.12.194,0H35.621q.13,1.12.194,2.235Z" transform="translate(0.057 24.708)" fill="#bbd500"/>
    <path id="Intersection_77" data-name="Intersection 77" d="M0,3.353A24.232,24.232,0,0,1,2.747,0H20.338a24.233,24.233,0,0,1,2.747,3.353Z" transform="translate(6.423 4.221)" fill="#ffc300"/>
    <path id="Intersection_76" data-name="Intersection 76" d="M0,0h20.83A18.192,18.192,0,0,1,10.415,3.013,18.194,18.194,0,0,1,0,0Z" transform="translate(7.551 45.939)" fill="#ffc300"/>
    <path id="Intersection_78" data-name="Intersection 78" d="M0,1.862Q.334.916.711,0H30.554q.376.916.711,1.862Z" transform="translate(2.333 13.906)" fill="#bbd500"/>
    <path id="Intersection_79" data-name="Intersection 79" d="M0,3.353C.252,2.22.55,1.1.892,0H33.147c.342,1.1.641,2.22.892,3.353Z" transform="translate(0.945 17.258)" fill="#38bee3"/>
  </g>
</svg>
