<svg xmlns="http://www.w3.org/2000/svg" width="24" height="23.999" viewBox="0 0 24 23.999">
  <path id="Subtraction_78" data-name="Subtraction 78" d="M1221,2228h-24v-24h24v24Zm-11.559-20.514c-4.87,0-8.833,3.216-8.833,7.168,0,3.533,3.107,6.507,7.387,7.072.3.065.68.194.779.436a1.7,1.7,0,0,1,.028.8s-.1.623-.125.756l0,.018a.651.651,0,0,0,.044.491.294.294,0,0,0,.238.093,1.349,1.349,0,0,0,.486-.126,28.185,28.185,0,0,0,6.94-5.129,6.407,6.407,0,0,0,1.894-4.41C1218.275,2210.7,1214.313,2207.486,1209.442,2207.486Zm5.891,9.451h-2.475a.167.167,0,0,1-.119-.049l0,0a.173.173,0,0,1-.049-.12v-3.848a.172.172,0,0,1,.048-.118l.005,0a.17.17,0,0,1,.119-.049h2.475a.173.173,0,0,1,.173.172v.62a.172.172,0,0,1-.173.171h-1.682v.651h1.682a.173.173,0,0,1,.173.172v.62a.173.173,0,0,1-.173.172h-1.682v.651h1.682a.173.173,0,0,1,.173.172v.619A.173.173,0,0,1,1215.333,2216.937Zm-3.421,0h-.62a.132.132,0,0,1-.043-.006h-.006l-.008,0-.005,0-.008,0-.01,0,0,0-.013-.007a.189.189,0,0,1-.043-.043l-1.765-2.383v2.284a.172.172,0,0,1-.172.172h-.62a.173.173,0,0,1-.173-.172v-3.849a.172.172,0,0,1,.173-.171h.634l.009,0h.01l.007,0,.012,0,.01,0,.005,0,.005,0,0,0,.006,0,.009,0,0,0,0,0,0,0,.006.005.006.005.006.006.006.006.005.007.008.01,1.764,2.382v-2.287a.171.171,0,0,1,.171-.171h.62a.172.172,0,0,1,.172.171v3.849A.172.172,0,0,1,1211.912,2216.937Zm-4.265,0h-.619a.173.173,0,0,1-.173-.172v-3.849a.172.172,0,0,1,.173-.171h.619a.172.172,0,0,1,.172.171v3.849A.172.172,0,0,1,1207.647,2216.937Zm-1.493,0h-2.476a.17.17,0,0,1-.119-.049l0,0a.173.173,0,0,1-.049-.12v-3.848a.172.172,0,0,1,.173-.171h.619a.172.172,0,0,1,.172.171v3.057h1.684a.172.172,0,0,1,.172.172v.619A.173.173,0,0,1,1206.154,2216.937Z" transform="translate(-1197 -2204)"/>
</svg>
